G04 Layer_Color=16777215*
%FSLAX25Y25*%
%MOIN*%
G70*
G01*
G75*
%ADD49C,0.00500*%
%ADD50C,0.00250*%
D49*
X-28282Y-44718D02*
X5183D01*
Y-78183D02*
Y-44718D01*
X-28317Y-78183D02*
Y-44718D01*
X-28282Y-78183D02*
X5183D01*
X-106609Y-64876D02*
X-60152D01*
X-106609Y-1490D02*
X-60152D01*
X-106609Y-64876D02*
Y-1490D01*
X-60152Y-64876D02*
Y-51376D01*
Y-14876D02*
Y-1376D01*
X-78402Y-33126D02*
X-60152Y-51376D01*
X-78402Y-33126D02*
X-60152Y-14876D01*
X15114Y-69000D02*
X10115D01*
X11782D01*
X15114Y-65668D01*
X12615Y-68167D01*
X10115Y-65668D01*
Y-61502D02*
Y-63169D01*
X10949Y-64002D01*
X12615D01*
X13448Y-63169D01*
Y-61502D01*
X12615Y-60669D01*
X11782D01*
Y-64002D01*
X13448Y-59003D02*
X10115Y-57337D01*
X13448Y-55671D01*
X10115Y-54005D02*
Y-52339D01*
Y-53172D01*
X13448D01*
Y-54005D01*
X10115Y-49839D02*
X13448D01*
Y-47340D01*
X12615Y-46507D01*
X10115D01*
X15114Y-44841D02*
X10115D01*
X11782D01*
X15114Y-41509D01*
X12615Y-44008D01*
X10115Y-41509D01*
X13448Y-39843D02*
X10949D01*
X10115Y-39010D01*
Y-36511D01*
X13448D01*
Y-34844D02*
X10949D01*
X10115Y-34011D01*
X10949Y-33178D01*
X10115Y-32345D01*
X10949Y-31512D01*
X13448D01*
Y-29013D02*
Y-27347D01*
X12615Y-26514D01*
X10115D01*
Y-29013D01*
X10949Y-29846D01*
X11782Y-29013D01*
Y-26514D01*
X14281Y-24015D02*
X13448D01*
Y-24848D01*
Y-23181D01*
Y-24015D01*
X10949D01*
X10115Y-23181D01*
X13448Y-19849D02*
Y-18183D01*
X12615Y-17350D01*
X10115D01*
Y-19849D01*
X10949Y-20682D01*
X11782Y-19849D01*
Y-17350D01*
X10115Y-15684D02*
X10949D01*
Y-14851D01*
X10115D01*
Y-15684D01*
X13448Y-8186D02*
Y-10686D01*
X12615Y-11519D01*
X10949D01*
X10115Y-10686D01*
Y-8186D01*
Y-5687D02*
Y-4021D01*
X10949Y-3188D01*
X12615D01*
X13448Y-4021D01*
Y-5687D01*
X12615Y-6520D01*
X10949D01*
X10115Y-5687D01*
Y-1522D02*
X13448D01*
Y-689D01*
X12615Y144D01*
X10115D01*
X12615D01*
X13448Y977D01*
X12615Y1810D01*
X10115D01*
D50*
X-62683Y-100100D02*
X-61016Y-98434D01*
Y-100100D02*
X-62683Y-98434D01*
X-61850Y-100100D02*
Y-98434D01*
X-61016Y-99267D02*
X-62683D01*
X-86100Y7750D02*
X-87766D01*
X-86933Y6917D02*
Y8584D01*
X-92200Y-24950D02*
X-93866D01*
X-60117Y8017D02*
Y10516D01*
X-61367D01*
X-61783Y10100D01*
Y9267D01*
X-61367Y8850D01*
X-60117D01*
X-62616Y8017D02*
X-63450D01*
X-63033D01*
Y10516D01*
X-62616Y10100D01*
M02*
