G04 Layer_Color=8388736*
%FSLAX25Y25*%
%MOIN*%
G70*
G01*
G75*
%ADD51R,0.03950X0.03950*%
%ADD52R,0.03950X0.03950*%
%ADD53R,0.03753X0.03162*%
%ADD54R,0.03162X0.03753*%
%ADD55R,0.04343X0.04737*%
%ADD56R,0.02000X0.03600*%
%ADD57R,0.03600X0.02000*%
%ADD58R,0.04737X0.04343*%
%ADD59R,0.05918X0.06312*%
%ADD60R,0.05400X0.02200*%
%ADD61R,0.06312X0.04737*%
%ADD62R,0.30721X0.12217*%
%ADD63R,0.30328X0.12217*%
G04:AMPARAMS|DCode=64|XSize=47.37mil|YSize=86.74mil|CornerRadius=0mil|HoleSize=0mil|Usage=FLASHONLY|Rotation=315.000|XOffset=0mil|YOffset=0mil|HoleType=Round|Shape=Rectangle|*
%AMROTATEDRECTD64*
4,1,4,-0.04741,-0.01392,0.01392,0.04741,0.04741,0.01392,-0.01392,-0.04741,-0.04741,-0.01392,0.0*
%
%ADD64ROTATEDRECTD64*%

G04:AMPARAMS|DCode=65|XSize=118.24mil|YSize=35.56mil|CornerRadius=0mil|HoleSize=0mil|Usage=FLASHONLY|Rotation=315.000|XOffset=0mil|YOffset=0mil|HoleType=Round|Shape=Rectangle|*
%AMROTATEDRECTD65*
4,1,4,-0.05437,0.02923,-0.02923,0.05437,0.05437,-0.02923,0.02923,-0.05437,-0.05437,0.02923,0.0*
%
%ADD65ROTATEDRECTD65*%

%ADD66R,0.06312X0.05918*%
%ADD67R,0.04304X0.03910*%
%ADD68R,0.07847X0.06509*%
%ADD69R,0.08674X0.08674*%
%ADD70O,0.04147X0.01784*%
%ADD71O,0.01784X0.04147*%
%ADD72R,0.02800X0.03300*%
%ADD73R,0.03300X0.02800*%
%ADD74R,0.04107X0.01784*%
%ADD75R,0.01784X0.04107*%
%ADD76C,0.08200*%
%ADD77C,0.12611*%
D51*
X-58223Y-67088D02*
D03*
X-52317D02*
D03*
D52*
X-21717Y-29383D02*
D03*
Y-23477D02*
D03*
D53*
X-33217Y-23383D02*
D03*
X-28690D02*
D03*
X-33217Y-28916D02*
D03*
X-28690D02*
D03*
X-33217Y-34449D02*
D03*
X-28690D02*
D03*
X-33217Y-39983D02*
D03*
X-28690D02*
D03*
X-22745Y-50683D02*
D03*
X-18217D02*
D03*
X-67154Y-74583D02*
D03*
X-71681D02*
D03*
D54*
X-40317Y-41919D02*
D03*
Y-46446D02*
D03*
X-17217Y-75419D02*
D03*
Y-79947D02*
D03*
X-52317Y-78447D02*
D03*
Y-73919D02*
D03*
X-91417Y-69319D02*
D03*
Y-73847D02*
D03*
D55*
X-34017Y-49383D02*
D03*
X-28702D02*
D03*
X-84075Y-55583D02*
D03*
X-78760D02*
D03*
X-67075Y-10583D02*
D03*
X-61760D02*
D03*
X-84075Y-48583D02*
D03*
X-78760D02*
D03*
Y-78583D02*
D03*
X-84075D02*
D03*
X-78760Y-71583D02*
D03*
X-84075D02*
D03*
D56*
X-18617Y-70583D02*
D03*
X-21117D02*
D03*
X-23717D02*
D03*
X-26217D02*
D03*
Y-55383D02*
D03*
X-23717D02*
D03*
X-21117D02*
D03*
X-18617D02*
D03*
D57*
X-30017Y-66783D02*
D03*
Y-64283D02*
D03*
Y-61683D02*
D03*
Y-59183D02*
D03*
X-14817D02*
D03*
Y-61683D02*
D03*
Y-64283D02*
D03*
Y-66783D02*
D03*
D58*
X-36417Y-55983D02*
D03*
Y-61298D02*
D03*
X-37817Y-73740D02*
D03*
Y-68425D02*
D03*
X-73317Y-11025D02*
D03*
Y-16340D02*
D03*
D59*
X-30567Y-76983D02*
D03*
X-24268D02*
D03*
X-49968Y30517D02*
D03*
X-56267D02*
D03*
D60*
X-85517Y-60983D02*
D03*
Y-63583D02*
D03*
Y-66183D02*
D03*
X-77317D02*
D03*
Y-63583D02*
D03*
Y-60983D02*
D03*
D61*
X-101548Y-46742D02*
D03*
Y-54223D02*
D03*
X-92887Y-50483D02*
D03*
X-90017Y-4983D02*
D03*
Y2498D02*
D03*
X-98679Y-1242D02*
D03*
D62*
X-91821Y-33883D02*
D03*
D63*
X-92017Y-14383D02*
D03*
D64*
X-5738Y13238D02*
D03*
X8738Y-1238D02*
D03*
D65*
X3866Y8366D02*
D03*
X-866Y3634D02*
D03*
D66*
X-52117Y-14833D02*
D03*
Y-21132D02*
D03*
D67*
X-59502Y-16958D02*
D03*
X-65132D02*
D03*
X-59502Y-21407D02*
D03*
X-65132D02*
D03*
X-47687Y-734D02*
D03*
X-53317D02*
D03*
X-47687Y-5183D02*
D03*
X-53317D02*
D03*
D68*
X-69417Y-67736D02*
D03*
Y-59429D02*
D03*
D69*
X-55317Y-36183D02*
D03*
D70*
X-47837Y-30868D02*
D03*
Y-32639D02*
D03*
Y-34411D02*
D03*
Y-36183D02*
D03*
Y-37954D02*
D03*
Y-39726D02*
D03*
Y-41498D02*
D03*
X-62798D02*
D03*
Y-39726D02*
D03*
Y-37954D02*
D03*
Y-36183D02*
D03*
Y-34411D02*
D03*
Y-32639D02*
D03*
Y-30868D02*
D03*
D71*
X-50002Y-43663D02*
D03*
X-51774D02*
D03*
X-53546D02*
D03*
X-55317D02*
D03*
X-57089D02*
D03*
X-58861D02*
D03*
X-60632D02*
D03*
Y-28702D02*
D03*
X-58861D02*
D03*
X-57089D02*
D03*
X-55317D02*
D03*
X-53546D02*
D03*
X-51774D02*
D03*
X-50002D02*
D03*
D72*
X-41617Y-5183D02*
D03*
Y-1246D02*
D03*
X-60017Y-5183D02*
D03*
Y-1246D02*
D03*
X-22510Y18924D02*
D03*
Y14987D02*
D03*
X-38510Y14861D02*
D03*
Y10924D02*
D03*
X-35010Y6424D02*
D03*
Y10361D02*
D03*
X-43010Y25924D02*
D03*
Y29861D02*
D03*
D73*
X-58517Y24717D02*
D03*
X-62454D02*
D03*
X-27073Y5861D02*
D03*
X-31010D02*
D03*
X-27073Y2361D02*
D03*
X-31010D02*
D03*
X-26573Y18924D02*
D03*
X-30510D02*
D03*
X-38447D02*
D03*
X-34510D02*
D03*
X-52754Y-9683D02*
D03*
X-48817D02*
D03*
D74*
X-58810Y17361D02*
D03*
Y15393D02*
D03*
Y13424D02*
D03*
Y11456D02*
D03*
Y9487D02*
D03*
X-43824D02*
D03*
Y11456D02*
D03*
Y13424D02*
D03*
Y15393D02*
D03*
Y17361D02*
D03*
D75*
X-55254Y5931D02*
D03*
X-53286D02*
D03*
X-51317D02*
D03*
X-49349D02*
D03*
X-47380D02*
D03*
Y20817D02*
D03*
X-49349D02*
D03*
X-51317D02*
D03*
X-53286D02*
D03*
X-55254D02*
D03*
D76*
X-33317Y-88183D02*
D03*
Y-98183D02*
D03*
X-43317Y-88183D02*
D03*
Y-98183D02*
D03*
X-53317Y-88183D02*
D03*
Y-98183D02*
D03*
D77*
X-73417Y-90283D02*
D03*
M02*
