G04 Layer_Color=8421504*
%FSLAX25Y25*%
%MOIN*%
G70*
G01*
G75*
%ADD11R,0.03150X0.03150*%
%ADD12R,0.03150X0.03150*%
%ADD13R,0.02953X0.02362*%
%ADD14R,0.02362X0.02953*%
%ADD15R,0.03543X0.03937*%
%ADD16R,0.01200X0.02800*%
%ADD17R,0.02800X0.01200*%
%ADD18R,0.03937X0.03543*%
%ADD19R,0.05118X0.05512*%
%ADD20R,0.04600X0.01400*%
%ADD21R,0.05512X0.03937*%
%ADD22R,0.29921X0.11417*%
%ADD23R,0.29528X0.11417*%
G04:AMPARAMS|DCode=24|XSize=39.37mil|YSize=78.74mil|CornerRadius=0mil|HoleSize=0mil|Usage=FLASHONLY|Rotation=315.000|XOffset=0mil|YOffset=0mil|HoleType=Round|Shape=Rectangle|*
%AMROTATEDRECTD24*
4,1,4,-0.04176,-0.01392,0.01392,0.04176,0.04176,0.01392,-0.01392,-0.04176,-0.04176,-0.01392,0.0*
%
%ADD24ROTATEDRECTD24*%

G04:AMPARAMS|DCode=25|XSize=110.24mil|YSize=27.56mil|CornerRadius=0mil|HoleSize=0mil|Usage=FLASHONLY|Rotation=315.000|XOffset=0mil|YOffset=0mil|HoleType=Round|Shape=Rectangle|*
%AMROTATEDRECTD25*
4,1,4,-0.04872,0.02923,-0.02923,0.04872,0.04872,-0.02923,0.02923,-0.04872,-0.04872,0.02923,0.0*
%
%ADD25ROTATEDRECTD25*%

%ADD26R,0.05512X0.05118*%
%ADD27R,0.03504X0.03110*%
%ADD28R,0.07047X0.05709*%
%ADD29R,0.07874X0.07874*%
%ADD30O,0.03347X0.00984*%
%ADD31O,0.00984X0.03347*%
%ADD32R,0.02000X0.02500*%
%ADD33R,0.02500X0.02000*%
%ADD34R,0.03307X0.00984*%
%ADD35R,0.00984X0.03307*%
D11*
X-58223Y-67088D02*
D03*
X-52317D02*
D03*
D12*
X-21717Y-29383D02*
D03*
Y-23477D02*
D03*
D13*
X-33217Y-23383D02*
D03*
X-28690D02*
D03*
X-33217Y-28916D02*
D03*
X-28690D02*
D03*
X-33217Y-34449D02*
D03*
X-28690D02*
D03*
X-33217Y-39983D02*
D03*
X-28690D02*
D03*
X-22745Y-50683D02*
D03*
X-18217D02*
D03*
X-67154Y-74583D02*
D03*
X-71681D02*
D03*
D14*
X-40317Y-41919D02*
D03*
Y-46446D02*
D03*
X-17217Y-75419D02*
D03*
Y-79947D02*
D03*
X-52317Y-78447D02*
D03*
Y-73919D02*
D03*
X-91417Y-69319D02*
D03*
Y-73847D02*
D03*
D15*
X-34017Y-49383D02*
D03*
X-28702D02*
D03*
X-84075Y-55583D02*
D03*
X-78760D02*
D03*
X-67075Y-10583D02*
D03*
X-61760D02*
D03*
X-84075Y-48583D02*
D03*
X-78760D02*
D03*
Y-78583D02*
D03*
X-84075D02*
D03*
X-78760Y-71583D02*
D03*
X-84075D02*
D03*
D16*
X-18617Y-70583D02*
D03*
X-21117D02*
D03*
X-23717D02*
D03*
X-26217D02*
D03*
Y-55383D02*
D03*
X-23717D02*
D03*
X-21117D02*
D03*
X-18617D02*
D03*
D17*
X-30017Y-66783D02*
D03*
Y-64283D02*
D03*
Y-61683D02*
D03*
Y-59183D02*
D03*
X-14817D02*
D03*
Y-61683D02*
D03*
Y-64283D02*
D03*
Y-66783D02*
D03*
D18*
X-36417Y-55983D02*
D03*
Y-61298D02*
D03*
X-37817Y-73740D02*
D03*
Y-68425D02*
D03*
X-73317Y-11025D02*
D03*
Y-16340D02*
D03*
D19*
X-30567Y-76983D02*
D03*
X-24268D02*
D03*
X-49968Y30517D02*
D03*
X-56267D02*
D03*
D20*
X-85517Y-60983D02*
D03*
Y-63583D02*
D03*
Y-66183D02*
D03*
X-77317D02*
D03*
Y-63583D02*
D03*
Y-60983D02*
D03*
D21*
X-101548Y-46742D02*
D03*
Y-54223D02*
D03*
X-92887Y-50483D02*
D03*
X-90017Y-4983D02*
D03*
Y2498D02*
D03*
X-98679Y-1242D02*
D03*
D22*
X-91821Y-33883D02*
D03*
D23*
X-92017Y-14383D02*
D03*
D24*
X-5738Y13238D02*
D03*
X8738Y-1238D02*
D03*
D25*
X3866Y8366D02*
D03*
X-866Y3634D02*
D03*
D26*
X-52117Y-14833D02*
D03*
Y-21132D02*
D03*
D27*
X-59502Y-16958D02*
D03*
X-65132D02*
D03*
X-59502Y-21407D02*
D03*
X-65132D02*
D03*
X-47687Y-734D02*
D03*
X-53317D02*
D03*
X-47687Y-5183D02*
D03*
X-53317D02*
D03*
D28*
X-69417Y-67736D02*
D03*
Y-59429D02*
D03*
D29*
X-55317Y-36183D02*
D03*
D30*
X-47837Y-30868D02*
D03*
Y-32639D02*
D03*
Y-34411D02*
D03*
Y-36183D02*
D03*
Y-37954D02*
D03*
Y-39726D02*
D03*
Y-41498D02*
D03*
X-62798D02*
D03*
Y-39726D02*
D03*
Y-37954D02*
D03*
Y-36183D02*
D03*
Y-34411D02*
D03*
Y-32639D02*
D03*
Y-30868D02*
D03*
D31*
X-50002Y-43663D02*
D03*
X-51774D02*
D03*
X-53546D02*
D03*
X-55317D02*
D03*
X-57089D02*
D03*
X-58861D02*
D03*
X-60632D02*
D03*
Y-28702D02*
D03*
X-58861D02*
D03*
X-57089D02*
D03*
X-55317D02*
D03*
X-53546D02*
D03*
X-51774D02*
D03*
X-50002D02*
D03*
D32*
X-41617Y-5183D02*
D03*
Y-1246D02*
D03*
X-60017Y-5183D02*
D03*
Y-1246D02*
D03*
X-22510Y18924D02*
D03*
Y14987D02*
D03*
X-38510Y14861D02*
D03*
Y10924D02*
D03*
X-35010Y6424D02*
D03*
Y10361D02*
D03*
X-43010Y25924D02*
D03*
Y29861D02*
D03*
D33*
X-58517Y24717D02*
D03*
X-62454D02*
D03*
X-27073Y5861D02*
D03*
X-31010D02*
D03*
X-27073Y2361D02*
D03*
X-31010D02*
D03*
X-26573Y18924D02*
D03*
X-30510D02*
D03*
X-38447D02*
D03*
X-34510D02*
D03*
X-52754Y-9683D02*
D03*
X-48817D02*
D03*
D34*
X-58810Y17361D02*
D03*
Y15393D02*
D03*
Y13424D02*
D03*
Y11456D02*
D03*
Y9487D02*
D03*
X-43824D02*
D03*
Y11456D02*
D03*
Y13424D02*
D03*
Y15393D02*
D03*
Y17361D02*
D03*
D35*
X-55254Y5931D02*
D03*
X-53286D02*
D03*
X-51317D02*
D03*
X-49349D02*
D03*
X-47380D02*
D03*
Y20817D02*
D03*
X-49349D02*
D03*
X-51317D02*
D03*
X-53286D02*
D03*
X-55254D02*
D03*
M02*
