G04 Layer_Physical_Order=4*
G04 Layer_Color=16711680*
%FSLAX25Y25*%
%MOIN*%
G70*
G01*
G75*
%ADD36C,0.00600*%
%ADD37C,0.02000*%
%ADD38C,0.07400*%
%ADD39C,0.11811*%
%ADD40C,0.01968*%
%ADD41C,0.02900*%
%ADD42R,0.09842X0.09842*%
%ADD43R,0.14173X0.13780*%
G36*
X-38660Y37632D02*
X-33628Y37091D01*
X-28648Y36192D01*
X-23744Y34941D01*
X-18942Y33342D01*
X-14266Y31406D01*
X-9741Y29140D01*
X-5389Y26558D01*
X-2707Y24696D01*
X-2662Y24198D01*
X-12619Y14241D01*
X-13262Y14305D01*
X-13481Y14632D01*
X-14160Y15085D01*
X-14959Y15245D01*
X-15759Y15085D01*
X-16437Y14632D01*
X-16500Y14538D01*
X-17101Y14539D01*
X-17369Y14940D01*
X-18047Y15393D01*
X-18847Y15552D01*
X-19647Y15393D01*
X-20325Y14940D01*
X-20778Y14262D01*
X-20894Y13680D01*
X-21373Y13430D01*
X-21415Y13427D01*
X-21861Y13725D01*
X-22317Y13816D01*
Y11417D01*
Y9019D01*
X-21861Y9110D01*
X-21051Y9651D01*
X-20509Y10461D01*
X-20319Y11417D01*
X-19860Y11673D01*
X-19647Y11531D01*
X-18847Y11372D01*
X-18047Y11531D01*
X-17369Y11984D01*
X-17306Y12078D01*
X-16705Y12077D01*
X-16437Y11676D01*
X-16110Y11457D01*
X-16046Y10814D01*
X-24080Y2780D01*
X-18852Y-2448D01*
X-19171Y-2836D01*
X-19331Y-2730D01*
X-19861Y-2375D01*
X-20317Y-2284D01*
Y-4183D01*
X-18419D01*
X-18509Y-3727D01*
X-18864Y-3196D01*
X-18971Y-3036D01*
X-18583Y-2717D01*
X1148Y-22448D01*
X829Y-22836D01*
X669Y-22729D01*
X139Y-22375D01*
X-317Y-22284D01*
Y-24183D01*
X1581D01*
X1491Y-23727D01*
X1136Y-23196D01*
X1029Y-23036D01*
X1418Y-22717D01*
X21148Y-42448D01*
X20829Y-42836D01*
X20669Y-42729D01*
X20139Y-42375D01*
X19683Y-42284D01*
Y-44183D01*
X21581D01*
X21490Y-43727D01*
X21136Y-43196D01*
X21029Y-43036D01*
X21418Y-42718D01*
X25756Y-47056D01*
X25558Y-48153D01*
X24306Y-53056D01*
X22708Y-57858D01*
X20771Y-62534D01*
X18506Y-67059D01*
X15924Y-71412D01*
X13037Y-75569D01*
X9862Y-79509D01*
X6413Y-83213D01*
X2709Y-86662D01*
X-1231Y-89837D01*
X-5389Y-92724D01*
X-9741Y-95306D01*
X-14266Y-97571D01*
X-18942Y-99508D01*
X-23744Y-101106D01*
X-28648Y-102358D01*
X-33628Y-103256D01*
X-38660Y-103797D01*
X-43717Y-103978D01*
X-48775Y-103797D01*
X-53807Y-103256D01*
X-58787Y-102358D01*
X-63691Y-101106D01*
X-68493Y-99508D01*
X-73168Y-97571D01*
X-73727Y-97292D01*
X-73586Y-96803D01*
X-73417Y-96820D01*
X-72142Y-96694D01*
X-70916Y-96322D01*
X-69786Y-95718D01*
X-68795Y-94905D01*
X-68784Y-94891D01*
X-68247Y-95026D01*
X-68125Y-95639D01*
X-67584Y-96449D01*
X-66773Y-96991D01*
X-66317Y-97081D01*
Y-94683D01*
Y-92284D01*
X-66729Y-92366D01*
X-67164Y-92081D01*
X-67006Y-91558D01*
X-66880Y-90283D01*
X-67006Y-89007D01*
X-67378Y-87781D01*
X-67982Y-86651D01*
X-68795Y-85660D01*
X-69786Y-84847D01*
X-70916Y-84243D01*
X-72142Y-83871D01*
X-73417Y-83746D01*
X-74693Y-83871D01*
X-75919Y-84243D01*
X-77049Y-84847D01*
X-78040Y-85660D01*
X-78853Y-86651D01*
X-79457Y-87781D01*
X-79829Y-89007D01*
X-79954Y-90283D01*
X-79829Y-91558D01*
X-79457Y-92784D01*
X-78853Y-93914D01*
X-78657Y-94153D01*
X-78987Y-94538D01*
X-82046Y-92724D01*
X-86203Y-89837D01*
X-90144Y-86662D01*
X-93848Y-83213D01*
X-97296Y-79509D01*
X-100472Y-75569D01*
X-103358Y-71412D01*
X-105940Y-67059D01*
X-108206Y-62534D01*
X-110143Y-57858D01*
X-111741Y-53056D01*
X-112992Y-48153D01*
X-113891Y-43172D01*
X-114432Y-38140D01*
X-114612Y-33083D01*
X-114432Y-28025D01*
X-113891Y-22993D01*
X-112992Y-18013D01*
X-111741Y-13109D01*
X-110143Y-8307D01*
X-108206Y-3632D01*
X-105940Y894D01*
X-103358Y5246D01*
X-100472Y9403D01*
X-97296Y13344D01*
X-93848Y17048D01*
X-90144Y20496D01*
X-86203Y23672D01*
X-82046Y26558D01*
X-77694Y29140D01*
X-73168Y31406D01*
X-68493Y33342D01*
X-63691Y34941D01*
X-58787Y36192D01*
X-53807Y37091D01*
X-48775Y37632D01*
X-43717Y37813D01*
X-38660Y37632D01*
D02*
G37*
%LPC*%
G36*
X-36317Y-52284D02*
X-36773Y-52375D01*
X-37584Y-52916D01*
X-38125Y-53727D01*
X-38216Y-54183D01*
X-36317D01*
Y-52284D01*
D02*
G37*
G36*
X-46317D02*
X-46773Y-52375D01*
X-47584Y-52916D01*
X-48125Y-53727D01*
X-48216Y-54183D01*
X-46317D01*
Y-52284D01*
D02*
G37*
G36*
X-5317D02*
Y-54183D01*
X-3419D01*
X-3509Y-53727D01*
X-4051Y-52916D01*
X-4861Y-52375D01*
X-5317Y-52284D01*
D02*
G37*
G36*
X-6317D02*
X-6773Y-52375D01*
X-7584Y-52916D01*
X-8125Y-53727D01*
X-8216Y-54183D01*
X-6317D01*
Y-52284D01*
D02*
G37*
G36*
X-95317D02*
Y-54183D01*
X-93419D01*
X-93510Y-53727D01*
X-94051Y-52916D01*
X-94861Y-52375D01*
X-95317Y-52284D01*
D02*
G37*
G36*
X-96317D02*
X-96773Y-52375D01*
X-97584Y-52916D01*
X-98125Y-53727D01*
X-98216Y-54183D01*
X-96317D01*
Y-52284D01*
D02*
G37*
G36*
X-55317D02*
Y-54183D01*
X-53419D01*
X-53509Y-53727D01*
X-54051Y-52916D01*
X-54861Y-52375D01*
X-55317Y-52284D01*
D02*
G37*
G36*
X-56317D02*
X-56773Y-52375D01*
X-57584Y-52916D01*
X-58125Y-53727D01*
X-58216Y-54183D01*
X-56317D01*
Y-52284D01*
D02*
G37*
G36*
X7384Y-41833D02*
X-2459D01*
X-2918Y-42023D01*
X-3108Y-42482D01*
Y-52324D01*
X-2918Y-52784D01*
X-2459Y-52974D01*
X1848D01*
X2083Y-53415D01*
X1875Y-53727D01*
X1784Y-54183D01*
X6581D01*
X6491Y-53727D01*
X6282Y-53415D01*
X6518Y-52974D01*
X7384D01*
X7843Y-52784D01*
X8033Y-52324D01*
Y-42482D01*
X7843Y-42023D01*
X7384Y-41833D01*
D02*
G37*
G36*
X-53019Y-48283D02*
X-54917D01*
Y-50181D01*
X-54461Y-50090D01*
X-53651Y-49549D01*
X-53110Y-48739D01*
X-53019Y-48283D01*
D02*
G37*
G36*
X-55917D02*
X-57816D01*
X-57725Y-48739D01*
X-57184Y-49549D01*
X-56373Y-50090D01*
X-55917Y-50181D01*
Y-48283D01*
D02*
G37*
G36*
Y-45384D02*
X-56373Y-45475D01*
X-57184Y-46016D01*
X-57725Y-46827D01*
X-57816Y-47283D01*
X-55917D01*
Y-45384D01*
D02*
G37*
G36*
X-108717Y-43393D02*
X-109517Y-43552D01*
X-110195Y-44005D01*
X-110648Y-44683D01*
X-110808Y-45483D01*
X-110648Y-46283D01*
X-110195Y-46961D01*
X-109517Y-47414D01*
X-108717Y-47573D01*
X-107917Y-47414D01*
X-107239Y-46961D01*
X-106786Y-46283D01*
X-106627Y-45483D01*
X-106786Y-44683D01*
X-107239Y-44005D01*
X-107917Y-43552D01*
X-108717Y-43393D01*
D02*
G37*
G36*
X14683Y-52284D02*
Y-54183D01*
X16581D01*
X16490Y-53727D01*
X15949Y-52916D01*
X15139Y-52375D01*
X14683Y-52284D01*
D02*
G37*
G36*
X13683D02*
X13227Y-52375D01*
X12416Y-52916D01*
X11875Y-53727D01*
X11784Y-54183D01*
X13683D01*
Y-52284D01*
D02*
G37*
G36*
X-14617Y-48484D02*
X-15073Y-48575D01*
X-15884Y-49116D01*
X-16425Y-49927D01*
X-16516Y-50383D01*
X-14617D01*
Y-48484D01*
D02*
G37*
G36*
X-19156Y-47903D02*
X-24597D01*
Y-53344D01*
X-20176D01*
X-19785Y-53266D01*
X-19455Y-53045D01*
X-19234Y-52715D01*
X-19156Y-52324D01*
Y-47903D01*
D02*
G37*
G36*
X-105317Y-52284D02*
Y-54183D01*
X-103419D01*
X-103509Y-53727D01*
X-104051Y-52916D01*
X-104861Y-52375D01*
X-105317Y-52284D01*
D02*
G37*
G36*
X-53419Y-55183D02*
X-55317D01*
Y-57081D01*
X-54861Y-56990D01*
X-54051Y-56449D01*
X-53509Y-55639D01*
X-53419Y-55183D01*
D02*
G37*
G36*
X-56317D02*
X-58216D01*
X-58125Y-55639D01*
X-57584Y-56449D01*
X-56773Y-56990D01*
X-56317Y-57081D01*
Y-55183D01*
D02*
G37*
G36*
X-36317D02*
X-38216D01*
X-38125Y-55639D01*
X-37584Y-56449D01*
X-36773Y-56990D01*
X-36317Y-57081D01*
Y-55183D01*
D02*
G37*
G36*
X-46317D02*
X-48216D01*
X-48125Y-55639D01*
X-47584Y-56449D01*
X-46773Y-56990D01*
X-46317Y-57081D01*
Y-55183D01*
D02*
G37*
G36*
X-93419D02*
X-95317D01*
Y-57081D01*
X-94861Y-56990D01*
X-94051Y-56449D01*
X-93510Y-55639D01*
X-93419Y-55183D01*
D02*
G37*
G36*
X-106317D02*
X-108216D01*
X-108125Y-55639D01*
X-107584Y-56449D01*
X-106773Y-56990D01*
X-106317Y-57081D01*
Y-55183D01*
D02*
G37*
G36*
X-101317Y-56084D02*
Y-57983D01*
X-99419D01*
X-99510Y-57527D01*
X-100051Y-56716D01*
X-100861Y-56175D01*
X-101317Y-56084D01*
D02*
G37*
G36*
X-96317Y-55183D02*
X-98216D01*
X-98125Y-55639D01*
X-97584Y-56449D01*
X-96773Y-56990D01*
X-96317Y-57081D01*
Y-55183D01*
D02*
G37*
G36*
X-103419D02*
X-105317D01*
Y-57081D01*
X-104861Y-56990D01*
X-104051Y-56449D01*
X-103509Y-55639D01*
X-103419Y-55183D01*
D02*
G37*
G36*
X13683D02*
X11784D01*
X11875Y-55639D01*
X12416Y-56449D01*
X13227Y-56990D01*
X13683Y-57081D01*
Y-55183D01*
D02*
G37*
G36*
X6581D02*
X4683D01*
Y-57081D01*
X5139Y-56990D01*
X5949Y-56449D01*
X6491Y-55639D01*
X6581Y-55183D01*
D02*
G37*
G36*
X-106317Y-52284D02*
X-106773Y-52375D01*
X-107584Y-52916D01*
X-108125Y-53727D01*
X-108216Y-54183D01*
X-106317D01*
Y-52284D01*
D02*
G37*
G36*
X16581Y-55183D02*
X14683D01*
Y-57081D01*
X15139Y-56990D01*
X15949Y-56449D01*
X16490Y-55639D01*
X16581Y-55183D01*
D02*
G37*
G36*
X3683D02*
X1784D01*
X1875Y-55639D01*
X2416Y-56449D01*
X3227Y-56990D01*
X3683Y-57081D01*
Y-55183D01*
D02*
G37*
G36*
X-13419D02*
X-15317D01*
Y-57081D01*
X-14861Y-56990D01*
X-14051Y-56449D01*
X-13510Y-55639D01*
X-13419Y-55183D01*
D02*
G37*
G36*
X-16317D02*
X-18216D01*
X-18125Y-55639D01*
X-17584Y-56449D01*
X-16773Y-56990D01*
X-16317Y-57081D01*
Y-55183D01*
D02*
G37*
G36*
X-3419D02*
X-5317D01*
Y-57081D01*
X-4861Y-56990D01*
X-4051Y-56449D01*
X-3509Y-55639D01*
X-3419Y-55183D01*
D02*
G37*
G36*
X-6317D02*
X-8216D01*
X-8125Y-55639D01*
X-7584Y-56449D01*
X-6773Y-56990D01*
X-6317Y-57081D01*
Y-55183D01*
D02*
G37*
G36*
X-54917Y-45384D02*
Y-47283D01*
X-53019D01*
X-53110Y-46827D01*
X-53651Y-46016D01*
X-54461Y-45475D01*
X-54917Y-45384D01*
D02*
G37*
G36*
X-106317Y-35183D02*
X-108216D01*
X-108125Y-35639D01*
X-107584Y-36449D01*
X-106773Y-36990D01*
X-106317Y-37081D01*
Y-35183D01*
D02*
G37*
G36*
X-51228Y-38848D02*
X-52652D01*
Y-40272D01*
X-52378Y-40217D01*
X-51721Y-39779D01*
X-51283Y-39122D01*
X-51228Y-38848D01*
D02*
G37*
G36*
X-38617Y-19592D02*
X-39417Y-19752D01*
X-40095Y-20205D01*
X-40548Y-20883D01*
X-40707Y-21683D01*
X-40548Y-22483D01*
X-40095Y-23161D01*
X-39535Y-23535D01*
Y-44998D01*
X-39465Y-45349D01*
X-39266Y-45647D01*
X-31570Y-53343D01*
X-31816Y-53804D01*
X-32673Y-53975D01*
X-32994Y-54189D01*
X-33456Y-53998D01*
X-33509Y-53727D01*
X-34051Y-52916D01*
X-34861Y-52375D01*
X-35317Y-52284D01*
Y-54683D01*
Y-57081D01*
X-34861Y-56990D01*
X-34541Y-56776D01*
X-34079Y-56968D01*
X-34025Y-57239D01*
X-33484Y-58049D01*
X-32673Y-58591D01*
X-32217Y-58681D01*
Y-56283D01*
X-31217D01*
Y-58681D01*
X-30761Y-58591D01*
X-29951Y-58049D01*
X-29410Y-57239D01*
X-29239Y-56381D01*
X-28778Y-56135D01*
X-22812Y-62101D01*
X-22907Y-62583D01*
X-22748Y-63383D01*
X-22295Y-64061D01*
X-21617Y-64514D01*
X-20817Y-64673D01*
X-20017Y-64514D01*
X-19339Y-64061D01*
X-18886Y-63383D01*
X-18727Y-62583D01*
X-18886Y-61783D01*
X-19339Y-61105D01*
X-20017Y-60652D01*
X-20817Y-60492D01*
X-21617Y-60652D01*
X-21646Y-60671D01*
X-28512Y-53806D01*
X-28320Y-53344D01*
X-25597D01*
Y-47903D01*
X-31038D01*
Y-50627D01*
X-31500Y-50818D01*
X-34804Y-47514D01*
X-34558Y-47053D01*
X-34417Y-47081D01*
X-33461Y-46891D01*
X-32651Y-46349D01*
X-32109Y-45539D01*
X-32019Y-45083D01*
X-34417D01*
Y-44583D01*
X-34917D01*
Y-42184D01*
X-35373Y-42275D01*
X-36184Y-42816D01*
X-36725Y-43627D01*
X-36915Y-44583D01*
X-36887Y-44723D01*
X-37348Y-44969D01*
X-37700Y-44618D01*
Y-36973D01*
X-37200Y-36706D01*
X-36773Y-36990D01*
X-36317Y-37081D01*
Y-34683D01*
Y-32284D01*
X-36773Y-32375D01*
X-37200Y-32660D01*
X-37700Y-32392D01*
Y-23535D01*
X-37139Y-23161D01*
X-36686Y-22483D01*
X-36527Y-21683D01*
X-36686Y-20883D01*
X-37139Y-20205D01*
X-37817Y-19752D01*
X-38617Y-19592D01*
D02*
G37*
G36*
X-103419Y-35183D02*
X-105317D01*
Y-37081D01*
X-104861Y-36990D01*
X-104051Y-36449D01*
X-103509Y-35639D01*
X-103419Y-35183D01*
D02*
G37*
G36*
X-57983Y-38848D02*
X-59406D01*
X-59352Y-39122D01*
X-58913Y-39779D01*
X-58257Y-40217D01*
X-57983Y-40272D01*
Y-38848D01*
D02*
G37*
G36*
X-79717Y-41884D02*
X-80173Y-41975D01*
X-80984Y-42516D01*
X-81525Y-43327D01*
X-81616Y-43783D01*
X-79717D01*
Y-41884D01*
D02*
G37*
G36*
X-33917Y-42184D02*
Y-44083D01*
X-32019D01*
X-32109Y-43627D01*
X-32651Y-42816D01*
X-33461Y-42275D01*
X-33917Y-42184D01*
D02*
G37*
G36*
X-87817Y-33683D02*
X-95424D01*
Y-40072D01*
X-95346Y-40463D01*
X-95125Y-40793D01*
X-94794Y-41014D01*
X-94404Y-41092D01*
X-87817D01*
Y-33683D01*
D02*
G37*
G36*
X-78717Y-41884D02*
Y-43783D01*
X-76819D01*
X-76910Y-43327D01*
X-77451Y-42516D01*
X-78261Y-41975D01*
X-78717Y-41884D01*
D02*
G37*
G36*
X6581Y-35183D02*
X4683D01*
Y-37081D01*
X5139Y-36990D01*
X5949Y-36449D01*
X6491Y-35639D01*
X6581Y-35183D01*
D02*
G37*
G36*
X3683D02*
X1784D01*
X1875Y-35639D01*
X2416Y-36449D01*
X3227Y-36990D01*
X3683Y-37081D01*
Y-35183D01*
D02*
G37*
G36*
X-105317Y-32284D02*
Y-34183D01*
X-103419D01*
X-103509Y-33727D01*
X-104051Y-32916D01*
X-104861Y-32375D01*
X-105317Y-32284D01*
D02*
G37*
G36*
X-106317D02*
X-106773Y-32375D01*
X-107584Y-32916D01*
X-108125Y-33727D01*
X-108216Y-34183D01*
X-106317D01*
Y-32284D01*
D02*
G37*
G36*
X-3419Y-35183D02*
X-5317D01*
Y-37081D01*
X-4861Y-36990D01*
X-4051Y-36449D01*
X-3509Y-35639D01*
X-3419Y-35183D01*
D02*
G37*
G36*
X-16317D02*
X-18216D01*
X-18125Y-35639D01*
X-17584Y-36449D01*
X-16773Y-36990D01*
X-16317Y-37081D01*
Y-35183D01*
D02*
G37*
G36*
X-33419D02*
X-35317D01*
Y-37081D01*
X-34861Y-36990D01*
X-34051Y-36449D01*
X-33509Y-35639D01*
X-33419Y-35183D01*
D02*
G37*
G36*
X-6317D02*
X-8216D01*
X-8125Y-35639D01*
X-7584Y-36449D01*
X-6773Y-36990D01*
X-6317Y-37081D01*
Y-35183D01*
D02*
G37*
G36*
X-13419D02*
X-15317D01*
Y-37081D01*
X-14861Y-36990D01*
X-14051Y-36449D01*
X-13510Y-35639D01*
X-13419Y-35183D01*
D02*
G37*
G36*
X18683Y-45183D02*
X16784D01*
X16875Y-45639D01*
X17416Y-46449D01*
X18227Y-46990D01*
X18683Y-47081D01*
Y-45183D01*
D02*
G37*
G36*
X-8419D02*
X-10317D01*
Y-47081D01*
X-9861Y-46990D01*
X-9051Y-46449D01*
X-8510Y-45639D01*
X-8419Y-45183D01*
D02*
G37*
G36*
X-79717Y-44783D02*
X-81616D01*
X-81525Y-45239D01*
X-80984Y-46049D01*
X-80173Y-46591D01*
X-79717Y-46681D01*
Y-44783D01*
D02*
G37*
G36*
X21581Y-45183D02*
X19683D01*
Y-47081D01*
X20139Y-46990D01*
X20949Y-46449D01*
X21490Y-45639D01*
X21581Y-45183D01*
D02*
G37*
G36*
X-48419D02*
X-50317D01*
Y-47081D01*
X-49861Y-46990D01*
X-49051Y-46449D01*
X-48509Y-45639D01*
X-48419Y-45183D01*
D02*
G37*
G36*
X-101317D02*
X-103216D01*
X-103125Y-45639D01*
X-102584Y-46449D01*
X-101773Y-46990D01*
X-101317Y-47081D01*
Y-45183D01*
D02*
G37*
G36*
X-98417Y-21393D02*
X-99217Y-21552D01*
X-99895Y-22005D01*
X-100348Y-22683D01*
X-100507Y-23483D01*
X-100348Y-24283D01*
X-100049Y-24731D01*
Y-41943D01*
X-100317Y-42164D01*
Y-44683D01*
Y-47081D01*
X-99861Y-46990D01*
X-99051Y-46449D01*
X-98510Y-45639D01*
X-98473Y-45457D01*
X-97995Y-45312D01*
X-91971Y-51336D01*
X-91442Y-51690D01*
X-90817Y-51814D01*
X-86517D01*
X-86468Y-52314D01*
X-86773Y-52375D01*
X-87584Y-52916D01*
X-88125Y-53727D01*
X-88216Y-54183D01*
X-83419D01*
X-83509Y-53727D01*
X-84051Y-52916D01*
X-84861Y-52375D01*
X-85167Y-52314D01*
X-85118Y-51814D01*
X-76693D01*
X-74171Y-54336D01*
X-73642Y-54690D01*
X-73371Y-54744D01*
X-72817Y-55114D01*
X-72017Y-55273D01*
X-71217Y-55114D01*
X-70539Y-54661D01*
X-70086Y-53983D01*
X-69927Y-53183D01*
X-70086Y-52383D01*
X-70539Y-51705D01*
X-71217Y-51252D01*
X-72017Y-51092D01*
X-72671Y-51222D01*
X-74864Y-49029D01*
X-75393Y-48676D01*
X-76017Y-48551D01*
X-90142D01*
X-91076Y-47617D01*
X-90840Y-47176D01*
X-90817Y-47181D01*
X-89861Y-46990D01*
X-89051Y-46449D01*
X-88510Y-45639D01*
X-88419Y-45183D01*
X-90817D01*
Y-44683D01*
X-91317D01*
Y-42284D01*
X-91773Y-42375D01*
X-92584Y-42916D01*
X-93125Y-43727D01*
X-93315Y-44683D01*
X-93311Y-44706D01*
X-93752Y-44941D01*
X-96786Y-41907D01*
Y-24731D01*
X-96486Y-24283D01*
X-96327Y-23483D01*
X-96486Y-22683D01*
X-96939Y-22005D01*
X-97617Y-21552D01*
X-98417Y-21393D01*
D02*
G37*
G36*
X-51317Y-45183D02*
X-53216D01*
X-53125Y-45639D01*
X-52584Y-46449D01*
X-51773Y-46990D01*
X-51317Y-47081D01*
Y-45183D01*
D02*
G37*
G36*
X-58419D02*
X-60317D01*
Y-47081D01*
X-59861Y-46990D01*
X-59051Y-46449D01*
X-58509Y-45639D01*
X-58419Y-45183D01*
D02*
G37*
G36*
X-11317Y-42284D02*
X-11773Y-42375D01*
X-12584Y-42916D01*
X-13125Y-43727D01*
X-13216Y-44183D01*
X-11317D01*
Y-42284D01*
D02*
G37*
G36*
X-50317D02*
Y-44183D01*
X-48419D01*
X-48509Y-43727D01*
X-49051Y-42916D01*
X-49861Y-42375D01*
X-50317Y-42284D01*
D02*
G37*
G36*
X18683D02*
X18227Y-42375D01*
X17416Y-42916D01*
X16875Y-43727D01*
X16784Y-44183D01*
X18683D01*
Y-42284D01*
D02*
G37*
G36*
X-10317D02*
Y-44183D01*
X-8419D01*
X-8510Y-43727D01*
X-9051Y-42916D01*
X-9861Y-42375D01*
X-10317Y-42284D01*
D02*
G37*
G36*
X-51317D02*
X-51773Y-42375D01*
X-52584Y-42916D01*
X-53125Y-43727D01*
X-53216Y-44183D01*
X-51317D01*
Y-42284D01*
D02*
G37*
G36*
X-101317D02*
X-101773Y-42375D01*
X-102584Y-42916D01*
X-103125Y-43727D01*
X-103216Y-44183D01*
X-101317D01*
Y-42284D01*
D02*
G37*
G36*
X-76819Y-44783D02*
X-78717D01*
Y-46681D01*
X-78261Y-46591D01*
X-77451Y-46049D01*
X-76910Y-45239D01*
X-76819Y-44783D01*
D02*
G37*
G36*
X-60317Y-42284D02*
Y-44183D01*
X-58419D01*
X-58509Y-43727D01*
X-59051Y-42916D01*
X-59861Y-42375D01*
X-60317Y-42284D01*
D02*
G37*
G36*
X-90317D02*
Y-44183D01*
X-88419D01*
X-88510Y-43727D01*
X-89051Y-42916D01*
X-89861Y-42375D01*
X-90317Y-42284D01*
D02*
G37*
G36*
X-102317Y-56084D02*
X-102773Y-56175D01*
X-103584Y-56716D01*
X-104125Y-57527D01*
X-104216Y-57983D01*
X-102317D01*
Y-56084D01*
D02*
G37*
G36*
X-317Y-82284D02*
Y-84183D01*
X1581D01*
X1491Y-83727D01*
X949Y-82916D01*
X139Y-82375D01*
X-317Y-82284D01*
D02*
G37*
G36*
X-1317D02*
X-1773Y-82375D01*
X-2584Y-82916D01*
X-3125Y-83727D01*
X-3216Y-84183D01*
X-1317D01*
Y-82284D01*
D02*
G37*
G36*
X-83917Y-81584D02*
Y-83483D01*
X-82019D01*
X-82109Y-83027D01*
X-82651Y-82216D01*
X-83461Y-81675D01*
X-83917Y-81584D01*
D02*
G37*
G36*
X-84917D02*
X-85373Y-81675D01*
X-86184Y-82216D01*
X-86725Y-83027D01*
X-86816Y-83483D01*
X-84917D01*
Y-81584D01*
D02*
G37*
G36*
X-10317Y-82284D02*
Y-84183D01*
X-8419D01*
X-8510Y-83727D01*
X-9051Y-82916D01*
X-9861Y-82375D01*
X-10317Y-82284D01*
D02*
G37*
G36*
X-82019Y-84483D02*
X-83917D01*
Y-86381D01*
X-83461Y-86291D01*
X-82651Y-85749D01*
X-82109Y-84939D01*
X-82019Y-84483D01*
D02*
G37*
G36*
X-84917D02*
X-86816D01*
X-86725Y-84939D01*
X-86184Y-85749D01*
X-85373Y-86291D01*
X-84917Y-86381D01*
Y-84483D01*
D02*
G37*
G36*
X-11317Y-82284D02*
X-11773Y-82375D01*
X-12584Y-82916D01*
X-13125Y-83727D01*
X-13216Y-84183D01*
X-11317D01*
Y-82284D01*
D02*
G37*
G36*
X-20317D02*
Y-84183D01*
X-18419D01*
X-18509Y-83727D01*
X-19051Y-82916D01*
X-19861Y-82375D01*
X-20317Y-82284D01*
D02*
G37*
G36*
X-46317Y-75183D02*
X-48216D01*
X-48125Y-75639D01*
X-47584Y-76449D01*
X-46773Y-76990D01*
X-46317Y-77081D01*
Y-75183D01*
D02*
G37*
G36*
X-73419D02*
X-75317D01*
Y-77081D01*
X-74861Y-76990D01*
X-74051Y-76449D01*
X-73510Y-75639D01*
X-73419Y-75183D01*
D02*
G37*
G36*
X-33419D02*
X-35317D01*
Y-77081D01*
X-34861Y-76990D01*
X-34051Y-76449D01*
X-33509Y-75639D01*
X-33419Y-75183D01*
D02*
G37*
G36*
X-36317D02*
X-38216D01*
X-38125Y-75639D01*
X-37584Y-76449D01*
X-36773Y-76990D01*
X-36317Y-77081D01*
Y-75183D01*
D02*
G37*
G36*
X-76317D02*
X-78216D01*
X-78125Y-75639D01*
X-77584Y-76449D01*
X-76773Y-76990D01*
X-76317Y-77081D01*
Y-75183D01*
D02*
G37*
G36*
X-15317Y-72284D02*
Y-74683D01*
Y-77081D01*
X-14861Y-76990D01*
X-14250Y-76582D01*
X-13676Y-76625D01*
X-13593Y-76664D01*
X-13395Y-76961D01*
X-12717Y-77414D01*
X-11917Y-77573D01*
X-11117Y-77414D01*
X-10439Y-76961D01*
X-9986Y-76283D01*
X-9827Y-75483D01*
X-9986Y-74683D01*
X-10439Y-74005D01*
X-11117Y-73552D01*
X-11917Y-73392D01*
X-12717Y-73552D01*
X-12997Y-73739D01*
X-13510Y-73727D01*
X-14051Y-72916D01*
X-14861Y-72375D01*
X-15317Y-72284D01*
D02*
G37*
G36*
X-72617Y-77793D02*
X-73417Y-77952D01*
X-74095Y-78405D01*
X-74548Y-79083D01*
X-74708Y-79883D01*
X-74548Y-80683D01*
X-74095Y-81361D01*
X-73417Y-81814D01*
X-72617Y-81973D01*
X-71817Y-81814D01*
X-71139Y-81361D01*
X-70686Y-80683D01*
X-70527Y-79883D01*
X-70686Y-79083D01*
X-71139Y-78405D01*
X-71817Y-77952D01*
X-72617Y-77793D01*
D02*
G37*
G36*
X-83419Y-75183D02*
X-85317D01*
Y-77081D01*
X-84861Y-76990D01*
X-84051Y-76449D01*
X-83509Y-75639D01*
X-83419Y-75183D01*
D02*
G37*
G36*
X-86317D02*
X-88216D01*
X-88125Y-75639D01*
X-87584Y-76449D01*
X-86773Y-76990D01*
X-86317Y-77081D01*
Y-75183D01*
D02*
G37*
G36*
X-26317Y-92284D02*
X-26773Y-92375D01*
X-27584Y-92916D01*
X-28125Y-93727D01*
X-28216Y-94183D01*
X-26317D01*
Y-92284D01*
D02*
G37*
G36*
X-65317D02*
Y-94183D01*
X-63419D01*
X-63510Y-93727D01*
X-64051Y-92916D01*
X-64861Y-92375D01*
X-65317Y-92284D01*
D02*
G37*
G36*
X-16317D02*
X-16773Y-92375D01*
X-17584Y-92916D01*
X-18125Y-93727D01*
X-18216Y-94183D01*
X-16317D01*
Y-92284D01*
D02*
G37*
G36*
X-25317D02*
Y-94183D01*
X-23419D01*
X-23509Y-93727D01*
X-24051Y-92916D01*
X-24861Y-92375D01*
X-25317Y-92284D01*
D02*
G37*
G36*
X-13419Y-95183D02*
X-15317D01*
Y-97081D01*
X-14861Y-96991D01*
X-14051Y-96449D01*
X-13510Y-95639D01*
X-13419Y-95183D01*
D02*
G37*
G36*
X-26317D02*
X-28216D01*
X-28125Y-95639D01*
X-27584Y-96449D01*
X-26773Y-96991D01*
X-26317Y-97081D01*
Y-95183D01*
D02*
G37*
G36*
X-63419D02*
X-65317D01*
Y-97081D01*
X-64861Y-96991D01*
X-64051Y-96449D01*
X-63510Y-95639D01*
X-63419Y-95183D01*
D02*
G37*
G36*
X-16317D02*
X-18216D01*
X-18125Y-95639D01*
X-17584Y-96449D01*
X-16773Y-96991D01*
X-16317Y-97081D01*
Y-95183D01*
D02*
G37*
G36*
X-23419D02*
X-25317D01*
Y-97081D01*
X-24861Y-96991D01*
X-24051Y-96449D01*
X-23509Y-95639D01*
X-23419Y-95183D01*
D02*
G37*
G36*
X-8419Y-85183D02*
X-10317D01*
Y-87081D01*
X-9861Y-86990D01*
X-9051Y-86449D01*
X-8510Y-85639D01*
X-8419Y-85183D01*
D02*
G37*
G36*
X-11317D02*
X-13216D01*
X-13125Y-85639D01*
X-12584Y-86449D01*
X-11773Y-86990D01*
X-11317Y-87081D01*
Y-85183D01*
D02*
G37*
G36*
X1581D02*
X-317D01*
Y-87081D01*
X139Y-86990D01*
X949Y-86449D01*
X1491Y-85639D01*
X1581Y-85183D01*
D02*
G37*
G36*
X-1317D02*
X-3216D01*
X-3125Y-85639D01*
X-2584Y-86449D01*
X-1773Y-86990D01*
X-1317Y-87081D01*
Y-85183D01*
D02*
G37*
G36*
X-18419D02*
X-20317D01*
Y-87081D01*
X-19861Y-86990D01*
X-19051Y-86449D01*
X-18509Y-85639D01*
X-18419Y-85183D01*
D02*
G37*
G36*
X-28643Y-88683D02*
X-32817D01*
Y-92857D01*
X-32090Y-92762D01*
X-30947Y-92288D01*
X-29965Y-91535D01*
X-29212Y-90553D01*
X-28738Y-89410D01*
X-28643Y-88683D01*
D02*
G37*
G36*
X-15317Y-92284D02*
Y-94183D01*
X-13419D01*
X-13510Y-93727D01*
X-14051Y-92916D01*
X-14861Y-92375D01*
X-15317Y-92284D01*
D02*
G37*
G36*
X-32817Y-68984D02*
Y-71383D01*
X-33317D01*
Y-71883D01*
X-35856D01*
X-36109Y-72243D01*
X-36773Y-72375D01*
X-37584Y-72916D01*
X-38125Y-73727D01*
X-38216Y-74183D01*
X-33279D01*
X-33025Y-73823D01*
X-32361Y-73690D01*
X-31551Y-73149D01*
X-31168Y-72575D01*
X-30667Y-72727D01*
Y-79883D01*
X-30477Y-80343D01*
X-30018Y-80533D01*
X-25849D01*
Y-82134D01*
X-26148Y-82583D01*
X-26307Y-83383D01*
X-26148Y-84183D01*
X-25695Y-84861D01*
X-25017Y-85314D01*
X-24217Y-85473D01*
X-23417Y-85314D01*
X-23169Y-85417D01*
X-23125Y-85639D01*
X-22584Y-86449D01*
X-21773Y-86990D01*
X-21317Y-87081D01*
Y-84683D01*
Y-82284D01*
X-21773Y-82375D01*
X-21847Y-82424D01*
X-22502Y-82260D01*
X-22586Y-82134D01*
Y-80533D01*
X-20176D01*
X-19716Y-80343D01*
X-19526Y-79883D01*
Y-70041D01*
X-19716Y-69582D01*
X-20176Y-69392D01*
X-30018D01*
X-30477Y-69582D01*
X-30667Y-70041D01*
X-31168Y-70190D01*
X-31551Y-69616D01*
X-32361Y-69075D01*
X-32817Y-68984D01*
D02*
G37*
G36*
Y-83508D02*
Y-87683D01*
X-28643D01*
X-28738Y-86956D01*
X-29212Y-85812D01*
X-29965Y-84831D01*
X-30947Y-84077D01*
X-32090Y-83604D01*
X-32817Y-83508D01*
D02*
G37*
G36*
X-16317Y-75183D02*
X-18216D01*
X-18125Y-75639D01*
X-17584Y-76449D01*
X-16773Y-76990D01*
X-16317Y-77081D01*
Y-75183D01*
D02*
G37*
G36*
X-71317Y-62284D02*
X-71773Y-62375D01*
X-72584Y-62916D01*
X-73125Y-63727D01*
X-73216Y-64183D01*
X-71317D01*
Y-62284D01*
D02*
G37*
G36*
X-83419Y-55183D02*
X-88216D01*
X-88125Y-55639D01*
X-87584Y-56449D01*
X-87004Y-56836D01*
X-87156Y-57336D01*
X-94404D01*
X-94863Y-57527D01*
X-95053Y-57986D01*
Y-63958D01*
X-96110D01*
X-96461Y-64028D01*
X-96759Y-64227D01*
X-97856Y-65324D01*
X-98517Y-65193D01*
X-99317Y-65352D01*
X-99995Y-65805D01*
X-100448Y-66483D01*
X-100608Y-67283D01*
X-100448Y-68083D01*
X-99995Y-68761D01*
X-99317Y-69214D01*
X-98517Y-69373D01*
X-97717Y-69214D01*
X-97039Y-68761D01*
X-96586Y-68083D01*
X-96427Y-67283D01*
X-96559Y-66622D01*
X-95730Y-65793D01*
X-95053D01*
Y-71447D01*
X-95553Y-71714D01*
X-95761Y-71575D01*
X-96217Y-71484D01*
Y-73383D01*
X-94319D01*
X-94410Y-72927D01*
X-94423Y-72907D01*
X-94150Y-72415D01*
X-87694D01*
X-87549Y-72893D01*
X-87584Y-72916D01*
X-88125Y-73727D01*
X-88216Y-74183D01*
X-83419D01*
X-83509Y-73727D01*
X-84051Y-72916D01*
X-84086Y-72893D01*
X-83940Y-72415D01*
X-80231D01*
X-79772Y-72225D01*
X-79581Y-71765D01*
Y-57986D01*
X-79772Y-57527D01*
X-80231Y-57336D01*
X-84479D01*
X-84631Y-56836D01*
X-84051Y-56449D01*
X-83509Y-55639D01*
X-83419Y-55183D01*
D02*
G37*
G36*
X-51317Y-62284D02*
X-51773Y-62375D01*
X-52584Y-62916D01*
X-53125Y-63727D01*
X-53216Y-64183D01*
X-51317D01*
Y-62284D01*
D02*
G37*
G36*
X-70317D02*
Y-64183D01*
X-68419D01*
X-68510Y-63727D01*
X-69051Y-62916D01*
X-69861Y-62375D01*
X-70317Y-62284D01*
D02*
G37*
G36*
X11581Y-65183D02*
X9683D01*
Y-67081D01*
X10139Y-66991D01*
X10949Y-66449D01*
X11490Y-65639D01*
X11581Y-65183D01*
D02*
G37*
G36*
X-1317D02*
X-3216D01*
X-3125Y-65639D01*
X-2584Y-66449D01*
X-1773Y-66991D01*
X-1317Y-67081D01*
Y-65183D01*
D02*
G37*
G36*
X-28419D02*
X-30317D01*
Y-67081D01*
X-29861Y-66991D01*
X-29051Y-66449D01*
X-28510Y-65639D01*
X-28419Y-65183D01*
D02*
G37*
G36*
X8683D02*
X6784D01*
X6875Y-65639D01*
X7416Y-66449D01*
X8227Y-66991D01*
X8683Y-67081D01*
Y-65183D01*
D02*
G37*
G36*
X1581D02*
X-317D01*
Y-67081D01*
X139Y-66991D01*
X949Y-66449D01*
X1491Y-65639D01*
X1581Y-65183D01*
D02*
G37*
G36*
X9683Y-62284D02*
Y-64183D01*
X11581D01*
X11490Y-63727D01*
X10949Y-62916D01*
X10139Y-62375D01*
X9683Y-62284D01*
D02*
G37*
G36*
X8683D02*
X8227Y-62375D01*
X7416Y-62916D01*
X6875Y-63727D01*
X6784Y-64183D01*
X8683D01*
Y-62284D01*
D02*
G37*
G36*
X-99419Y-58983D02*
X-101317D01*
Y-60881D01*
X-100861Y-60790D01*
X-100051Y-60249D01*
X-99510Y-59439D01*
X-99419Y-58983D01*
D02*
G37*
G36*
X-102317D02*
X-104216D01*
X-104125Y-59439D01*
X-103584Y-60249D01*
X-102773Y-60790D01*
X-102317Y-60881D01*
Y-58983D01*
D02*
G37*
G36*
X-317Y-62284D02*
Y-64183D01*
X1581D01*
X1491Y-63727D01*
X949Y-62916D01*
X139Y-62375D01*
X-317Y-62284D01*
D02*
G37*
G36*
X-31317D02*
X-31773Y-62375D01*
X-32584Y-62916D01*
X-33125Y-63727D01*
X-33216Y-64183D01*
X-31317D01*
Y-62284D01*
D02*
G37*
G36*
X-50317D02*
Y-64183D01*
X-48419D01*
X-48509Y-63727D01*
X-49051Y-62916D01*
X-49861Y-62375D01*
X-50317Y-62284D01*
D02*
G37*
G36*
X-1317D02*
X-1773Y-62375D01*
X-2584Y-62916D01*
X-3125Y-63727D01*
X-3216Y-64183D01*
X-1317D01*
Y-62284D01*
D02*
G37*
G36*
X-30317D02*
Y-64183D01*
X-28419D01*
X-28510Y-63727D01*
X-29051Y-62916D01*
X-29861Y-62375D01*
X-30317Y-62284D01*
D02*
G37*
G36*
X-16317Y-72284D02*
X-16773Y-72375D01*
X-17584Y-72916D01*
X-18125Y-73727D01*
X-18216Y-74183D01*
X-16317D01*
Y-72284D01*
D02*
G37*
G36*
X-46317D02*
X-46773Y-72375D01*
X-47584Y-72916D01*
X-48125Y-73727D01*
X-48216Y-74183D01*
X-46317D01*
Y-72284D01*
D02*
G37*
G36*
X7384Y-69392D02*
X-2459D01*
X-2918Y-69582D01*
X-3108Y-70041D01*
Y-73427D01*
X-3608Y-73579D01*
X-4051Y-72916D01*
X-4861Y-72375D01*
X-5317Y-72284D01*
Y-74683D01*
Y-77081D01*
X-4861Y-76990D01*
X-4051Y-76449D01*
X-3608Y-75787D01*
X-3108Y-75938D01*
Y-79883D01*
X-2918Y-80343D01*
X-2459Y-80533D01*
X7384D01*
X7843Y-80343D01*
X8033Y-79883D01*
Y-70041D01*
X7843Y-69582D01*
X7384Y-69392D01*
D02*
G37*
G36*
X-6317Y-72284D02*
X-6773Y-72375D01*
X-7584Y-72916D01*
X-8125Y-73727D01*
X-8216Y-74183D01*
X-6317D01*
Y-72284D01*
D02*
G37*
G36*
X-75317D02*
Y-74183D01*
X-73419D01*
X-73510Y-73727D01*
X-74051Y-72916D01*
X-74861Y-72375D01*
X-75317Y-72284D01*
D02*
G37*
G36*
X-97217Y-74383D02*
X-99116D01*
X-99025Y-74839D01*
X-98484Y-75649D01*
X-97673Y-76191D01*
X-97217Y-76281D01*
Y-74383D01*
D02*
G37*
G36*
X-6317Y-75183D02*
X-8216D01*
X-8125Y-75639D01*
X-7584Y-76449D01*
X-6773Y-76990D01*
X-6317Y-77081D01*
Y-75183D01*
D02*
G37*
G36*
X-76317Y-72284D02*
X-76773Y-72375D01*
X-77584Y-72916D01*
X-78125Y-73727D01*
X-78216Y-74183D01*
X-76317D01*
Y-72284D01*
D02*
G37*
G36*
X-94319Y-74383D02*
X-96217D01*
Y-76281D01*
X-95761Y-76191D01*
X-94951Y-75649D01*
X-94410Y-74839D01*
X-94319Y-74383D01*
D02*
G37*
G36*
X-51317Y-65183D02*
X-53216D01*
X-53125Y-65639D01*
X-52584Y-66449D01*
X-51773Y-66991D01*
X-51317Y-67081D01*
Y-65183D01*
D02*
G37*
G36*
X-68419D02*
X-70317D01*
Y-67081D01*
X-69861Y-66991D01*
X-69051Y-66449D01*
X-68510Y-65639D01*
X-68419Y-65183D01*
D02*
G37*
G36*
X-31317D02*
X-33216D01*
X-33125Y-65639D01*
X-32584Y-66449D01*
X-31773Y-66991D01*
X-31317Y-67081D01*
Y-65183D01*
D02*
G37*
G36*
X-48419D02*
X-50317D01*
Y-67081D01*
X-49861Y-66991D01*
X-49051Y-66449D01*
X-48509Y-65639D01*
X-48419Y-65183D01*
D02*
G37*
G36*
X-71317D02*
X-73216D01*
X-73125Y-65639D01*
X-72584Y-66449D01*
X-71773Y-66991D01*
X-71317Y-67081D01*
Y-65183D01*
D02*
G37*
G36*
X-11617Y-69283D02*
X-13516D01*
X-13425Y-69739D01*
X-12884Y-70549D01*
X-12073Y-71091D01*
X-11617Y-71181D01*
Y-69283D01*
D02*
G37*
G36*
X-97217Y-71484D02*
X-97673Y-71575D01*
X-98484Y-72116D01*
X-99025Y-72927D01*
X-99116Y-73383D01*
X-97217D01*
Y-71484D01*
D02*
G37*
G36*
X-33817Y-68984D02*
X-34273Y-69075D01*
X-35084Y-69616D01*
X-35625Y-70427D01*
X-35716Y-70883D01*
X-33817D01*
Y-68984D01*
D02*
G37*
G36*
X-8719Y-69283D02*
X-10617D01*
Y-71181D01*
X-10161Y-71091D01*
X-9351Y-70549D01*
X-8810Y-69739D01*
X-8719Y-69283D01*
D02*
G37*
G36*
X-36317Y7716D02*
X-36773Y7625D01*
X-37584Y7084D01*
X-38125Y6273D01*
X-38216Y5817D01*
X-36317D01*
Y7716D01*
D02*
G37*
G36*
X-23419Y4817D02*
X-25317D01*
Y2919D01*
X-24861Y3009D01*
X-24051Y3551D01*
X-23509Y4361D01*
X-23419Y4817D01*
D02*
G37*
G36*
X-26317Y7716D02*
X-26773Y7625D01*
X-27584Y7084D01*
X-28125Y6273D01*
X-28216Y5817D01*
X-26317D01*
Y7716D01*
D02*
G37*
G36*
X-35317D02*
Y5817D01*
X-33419D01*
X-33509Y6273D01*
X-34051Y7084D01*
X-34861Y7625D01*
X-35317Y7716D01*
D02*
G37*
G36*
X-26317Y4817D02*
X-28216D01*
X-28125Y4361D01*
X-27584Y3551D01*
X-26773Y3009D01*
X-26317Y2919D01*
Y4817D01*
D02*
G37*
G36*
X-64517Y2316D02*
Y417D01*
X-62619D01*
X-62709Y873D01*
X-63251Y1684D01*
X-64061Y2225D01*
X-64517Y2316D01*
D02*
G37*
G36*
X-65517D02*
X-65973Y2225D01*
X-66784Y1684D01*
X-67325Y873D01*
X-67416Y417D01*
X-65517D01*
Y2316D01*
D02*
G37*
G36*
X-33419Y4817D02*
X-35317D01*
Y2919D01*
X-34861Y3009D01*
X-34051Y3551D01*
X-33509Y4361D01*
X-33419Y4817D01*
D02*
G37*
G36*
X-36317D02*
X-38216D01*
X-38125Y4361D01*
X-37584Y3551D01*
X-36773Y3009D01*
X-36317Y2919D01*
Y4817D01*
D02*
G37*
G36*
X-78419Y14817D02*
X-80317D01*
Y12919D01*
X-79861Y13010D01*
X-79051Y13551D01*
X-78509Y14361D01*
X-78419Y14817D01*
D02*
G37*
G36*
X-81317D02*
X-83216D01*
X-83125Y14361D01*
X-82584Y13551D01*
X-81773Y13010D01*
X-81317Y12919D01*
Y14817D01*
D02*
G37*
G36*
X-58419D02*
X-60317D01*
Y12919D01*
X-59861Y13010D01*
X-59051Y13551D01*
X-58509Y14361D01*
X-58419Y14817D01*
D02*
G37*
G36*
X-61317D02*
X-63216D01*
X-63125Y14361D01*
X-62584Y13551D01*
X-61773Y13010D01*
X-61317Y12919D01*
Y14817D01*
D02*
G37*
G36*
X-88419D02*
X-90317D01*
Y12919D01*
X-89861Y13010D01*
X-89051Y13551D01*
X-88510Y14361D01*
X-88419Y14817D01*
D02*
G37*
G36*
X-50817Y10517D02*
X-52716D01*
X-52625Y10061D01*
X-52084Y9251D01*
X-51273Y8709D01*
X-50817Y8619D01*
Y10517D01*
D02*
G37*
G36*
X-25317Y7716D02*
Y5817D01*
X-23419D01*
X-23509Y6273D01*
X-24051Y7084D01*
X-24861Y7625D01*
X-25317Y7716D01*
D02*
G37*
G36*
X-91317Y14817D02*
X-93216D01*
X-93125Y14361D01*
X-92584Y13551D01*
X-91773Y13010D01*
X-91317Y12919D01*
Y14817D01*
D02*
G37*
G36*
X-30425Y16213D02*
X-31225Y16054D01*
X-31903Y15601D01*
X-32356Y14923D01*
X-32515Y14123D01*
X-32356Y13323D01*
X-31903Y12645D01*
X-31225Y12192D01*
X-30425Y12033D01*
X-29625Y12192D01*
X-29072Y12561D01*
X-28672Y12503D01*
X-28499Y12414D01*
X-28094Y11807D01*
X-27416Y11354D01*
X-26616Y11195D01*
X-25816Y11354D01*
X-25796Y11367D01*
X-25257Y11126D01*
X-25125Y10461D01*
X-24584Y9651D01*
X-23773Y9110D01*
X-23317Y9019D01*
Y11417D01*
Y13816D01*
X-23773Y13725D01*
X-24065Y13531D01*
X-24620Y13761D01*
X-24685Y14085D01*
X-25138Y14763D01*
X-25816Y15216D01*
X-26616Y15375D01*
X-27416Y15216D01*
X-27969Y14847D01*
X-28368Y14905D01*
X-28541Y14994D01*
X-28947Y15601D01*
X-29625Y16054D01*
X-30425Y16213D01*
D02*
G37*
G36*
X-61317Y-2284D02*
X-61773Y-2375D01*
X-62584Y-2916D01*
X-63125Y-3727D01*
X-63216Y-4183D01*
X-61317D01*
Y-2284D01*
D02*
G37*
G36*
X-100317D02*
Y-4183D01*
X-98419D01*
X-98510Y-3727D01*
X-99051Y-2916D01*
X-99861Y-2375D01*
X-100317Y-2284D01*
D02*
G37*
G36*
X-50317D02*
Y-4183D01*
X-48419D01*
X-48509Y-3727D01*
X-49051Y-2916D01*
X-49861Y-2375D01*
X-50317Y-2284D01*
D02*
G37*
G36*
X-51317D02*
X-51773Y-2375D01*
X-52584Y-2916D01*
X-53125Y-3727D01*
X-53216Y-4183D01*
X-51317D01*
Y-2284D01*
D02*
G37*
G36*
X-101317D02*
X-101773Y-2375D01*
X-102584Y-2916D01*
X-103125Y-3727D01*
X-103216Y-4183D01*
X-101317D01*
Y-2284D01*
D02*
G37*
G36*
X-18419Y-5183D02*
X-20317D01*
Y-7081D01*
X-19861Y-6990D01*
X-19051Y-6449D01*
X-18509Y-5639D01*
X-18419Y-5183D01*
D02*
G37*
G36*
X-21317D02*
X-23216D01*
X-23125Y-5639D01*
X-22584Y-6449D01*
X-21773Y-6990D01*
X-21317Y-7081D01*
Y-5183D01*
D02*
G37*
G36*
X-37217Y-2684D02*
Y-4583D01*
X-35319D01*
X-35410Y-4127D01*
X-35951Y-3316D01*
X-36761Y-2775D01*
X-37217Y-2684D01*
D02*
G37*
G36*
X-38217D02*
X-38673Y-2775D01*
X-39484Y-3316D01*
X-40025Y-4127D01*
X-40116Y-4583D01*
X-38217D01*
Y-2684D01*
D02*
G37*
G36*
X-62619Y-583D02*
X-64517D01*
Y-2481D01*
X-64061Y-2390D01*
X-63251Y-1849D01*
X-62709Y-1039D01*
X-62619Y-583D01*
D02*
G37*
G36*
X-65517D02*
X-67416D01*
X-67325Y-1039D01*
X-66784Y-1849D01*
X-65973Y-2390D01*
X-65517Y-2481D01*
Y-583D01*
D02*
G37*
G36*
X-27217Y816D02*
Y-1083D01*
X-25319D01*
X-25409Y-627D01*
X-25951Y184D01*
X-26761Y725D01*
X-27217Y816D01*
D02*
G37*
G36*
X-28217D02*
X-28673Y725D01*
X-29484Y184D01*
X-30025Y-627D01*
X-30116Y-1083D01*
X-28217D01*
Y816D01*
D02*
G37*
G36*
X-57617Y4808D02*
X-58417Y4648D01*
X-59095Y4195D01*
X-59548Y3517D01*
X-59707Y2717D01*
X-59548Y1917D01*
X-59095Y1239D01*
X-58535Y865D01*
Y-2827D01*
X-59013Y-2973D01*
X-59051Y-2916D01*
X-59861Y-2375D01*
X-60317Y-2284D01*
Y-4683D01*
Y-7081D01*
X-59861Y-6990D01*
X-59051Y-6449D01*
X-59013Y-6393D01*
X-58535Y-6538D01*
Y-7183D01*
X-58465Y-7534D01*
X-58266Y-7831D01*
X-58074Y-8023D01*
X-58448Y-8583D01*
X-58608Y-9383D01*
X-58448Y-10183D01*
X-57995Y-10861D01*
X-57317Y-11314D01*
X-56517Y-11473D01*
X-55717Y-11314D01*
X-55039Y-10861D01*
X-54586Y-10183D01*
X-54427Y-9383D01*
X-54586Y-8583D01*
X-55039Y-7905D01*
X-55717Y-7452D01*
X-56133Y-7369D01*
X-56700Y-6803D01*
Y865D01*
X-56139Y1239D01*
X-55686Y1917D01*
X-55527Y2717D01*
X-55686Y3517D01*
X-56139Y4195D01*
X-56817Y4648D01*
X-57617Y4808D01*
D02*
G37*
G36*
X-28217Y-2083D02*
X-30317D01*
Y-4183D01*
X-28217D01*
Y-2083D01*
D02*
G37*
G36*
X-31317Y-2284D02*
X-31773Y-2375D01*
X-32584Y-2916D01*
X-33125Y-3727D01*
X-33216Y-4183D01*
X-31317D01*
Y-2284D01*
D02*
G37*
G36*
X-25319Y-2083D02*
X-27217D01*
Y-3981D01*
X-26761Y-3890D01*
X-25951Y-3349D01*
X-25409Y-2539D01*
X-25319Y-2083D01*
D02*
G37*
G36*
X-21317Y-2284D02*
X-21773Y-2375D01*
X-22584Y-2916D01*
X-23125Y-3727D01*
X-23216Y-4183D01*
X-21317D01*
Y-2284D01*
D02*
G37*
G36*
X-41317Y14817D02*
X-43216D01*
X-43125Y14361D01*
X-42584Y13551D01*
X-41773Y13010D01*
X-41317Y12919D01*
Y14817D01*
D02*
G37*
G36*
X-56317Y27716D02*
X-56773Y27625D01*
X-57584Y27084D01*
X-58125Y26273D01*
X-58216Y25817D01*
X-56317D01*
Y27716D01*
D02*
G37*
G36*
X-75317D02*
Y25817D01*
X-73419D01*
X-73510Y26273D01*
X-74051Y27084D01*
X-74861Y27625D01*
X-75317Y27716D01*
D02*
G37*
G36*
X-46317D02*
X-46773Y27625D01*
X-47584Y27084D01*
X-48125Y26273D01*
X-48216Y25817D01*
X-46317D01*
Y27716D01*
D02*
G37*
G36*
X-55317D02*
Y25817D01*
X-53419D01*
X-53509Y26273D01*
X-54051Y27084D01*
X-54861Y27625D01*
X-55317Y27716D01*
D02*
G37*
G36*
X-76317D02*
X-76773Y27625D01*
X-77584Y27084D01*
X-78125Y26273D01*
X-78216Y25817D01*
X-76317D01*
Y27716D01*
D02*
G37*
G36*
X-66517Y27017D02*
X-68416D01*
X-68325Y26561D01*
X-67784Y25751D01*
X-66973Y25210D01*
X-66517Y25119D01*
Y27017D01*
D02*
G37*
G36*
X-33419Y24817D02*
X-35317D01*
Y22919D01*
X-34861Y23009D01*
X-34051Y23551D01*
X-33509Y24361D01*
X-33419Y24817D01*
D02*
G37*
G36*
X-25629Y26654D02*
X-26428Y26495D01*
X-27107Y26042D01*
X-27390Y25618D01*
X-27983Y25605D01*
X-28034Y25681D01*
X-28712Y26135D01*
X-29512Y26294D01*
X-30312Y26135D01*
X-30990Y25681D01*
X-31443Y25003D01*
X-31602Y24204D01*
X-31443Y23404D01*
X-30990Y22726D01*
X-30312Y22273D01*
X-29512Y22113D01*
X-28712Y22273D01*
X-28034Y22726D01*
X-27751Y23150D01*
X-27158Y23163D01*
X-27107Y23086D01*
X-26428Y22633D01*
X-25629Y22474D01*
X-24829Y22633D01*
X-24151Y23086D01*
X-23697Y23764D01*
X-23538Y24564D01*
X-23697Y25364D01*
X-24151Y26042D01*
X-24829Y26495D01*
X-25629Y26654D01*
D02*
G37*
G36*
X-63619Y27017D02*
X-65517D01*
Y25119D01*
X-65061Y25210D01*
X-64251Y25751D01*
X-63709Y26561D01*
X-63619Y27017D01*
D02*
G37*
G36*
X-42119Y33617D02*
X-44017D01*
Y31719D01*
X-43561Y31809D01*
X-42751Y32351D01*
X-42210Y33161D01*
X-42119Y33617D01*
D02*
G37*
G36*
X-45017D02*
X-46916D01*
X-46825Y33161D01*
X-46284Y32351D01*
X-45473Y31809D01*
X-45017Y31719D01*
Y33617D01*
D02*
G37*
G36*
X-44017Y36516D02*
Y34617D01*
X-42119D01*
X-42210Y35073D01*
X-42751Y35884D01*
X-43561Y36425D01*
X-44017Y36516D01*
D02*
G37*
G36*
X-45017D02*
X-45473Y36425D01*
X-46284Y35884D01*
X-46825Y35073D01*
X-46916Y34617D01*
X-45017D01*
Y36516D01*
D02*
G37*
G36*
X-65517Y29916D02*
Y28017D01*
X-63619D01*
X-63709Y28473D01*
X-64251Y29284D01*
X-65061Y29825D01*
X-65517Y29916D01*
D02*
G37*
G36*
X-36317Y27716D02*
X-36773Y27625D01*
X-37584Y27084D01*
X-38125Y26273D01*
X-38216Y25817D01*
X-36317D01*
Y27716D01*
D02*
G37*
G36*
X-45317D02*
Y25817D01*
X-43419D01*
X-43510Y26273D01*
X-44051Y27084D01*
X-44861Y27625D01*
X-45317Y27716D01*
D02*
G37*
G36*
X-66517Y29916D02*
X-66973Y29825D01*
X-67784Y29284D01*
X-68325Y28473D01*
X-68416Y28017D01*
X-66517D01*
Y29916D01*
D02*
G37*
G36*
X-35317Y27716D02*
Y25817D01*
X-33419D01*
X-33509Y26273D01*
X-34051Y27084D01*
X-34861Y27625D01*
X-35317Y27716D01*
D02*
G37*
G36*
X-60317Y17716D02*
Y15817D01*
X-58419D01*
X-58509Y16273D01*
X-59051Y17084D01*
X-59861Y17625D01*
X-60317Y17716D01*
D02*
G37*
G36*
X-61317D02*
X-61773Y17625D01*
X-62584Y17084D01*
X-63125Y16273D01*
X-63216Y15817D01*
X-61317D01*
Y17716D01*
D02*
G37*
G36*
X-40317D02*
Y15817D01*
X-38419D01*
X-38510Y16273D01*
X-39051Y17084D01*
X-39861Y17625D01*
X-40317Y17716D01*
D02*
G37*
G36*
X-41317D02*
X-41773Y17625D01*
X-42584Y17084D01*
X-43125Y16273D01*
X-43216Y15817D01*
X-41317D01*
Y17716D01*
D02*
G37*
G36*
X-80317D02*
Y15817D01*
X-78419D01*
X-78509Y16273D01*
X-79051Y17084D01*
X-79861Y17625D01*
X-80317Y17716D01*
D02*
G37*
G36*
X-91317D02*
X-91773Y17625D01*
X-92584Y17084D01*
X-93125Y16273D01*
X-93216Y15817D01*
X-91317D01*
Y17716D01*
D02*
G37*
G36*
X-38419Y14817D02*
X-40317D01*
Y12919D01*
X-39861Y13010D01*
X-39051Y13551D01*
X-38510Y14361D01*
X-38419Y14817D01*
D02*
G37*
G36*
X-81317Y17716D02*
X-81773Y17625D01*
X-82584Y17084D01*
X-83125Y16273D01*
X-83216Y15817D01*
X-81317D01*
Y17716D01*
D02*
G37*
G36*
X-90317D02*
Y15817D01*
X-88419D01*
X-88510Y16273D01*
X-89051Y17084D01*
X-89861Y17625D01*
X-90317Y17716D01*
D02*
G37*
G36*
X-46317Y24817D02*
X-48216D01*
X-48125Y24361D01*
X-47584Y23551D01*
X-46773Y23009D01*
X-46317Y22919D01*
Y24817D01*
D02*
G37*
G36*
X-53419D02*
X-55317D01*
Y22919D01*
X-54861Y23009D01*
X-54051Y23551D01*
X-53509Y24361D01*
X-53419Y24817D01*
D02*
G37*
G36*
X-36317D02*
X-38216D01*
X-38125Y24361D01*
X-37584Y23551D01*
X-36773Y23009D01*
X-36317Y22919D01*
Y24817D01*
D02*
G37*
G36*
X-43419D02*
X-45317D01*
Y22919D01*
X-44861Y23009D01*
X-44051Y23551D01*
X-43510Y24361D01*
X-43419Y24817D01*
D02*
G37*
G36*
X-56317D02*
X-58216D01*
X-58125Y24361D01*
X-57584Y23551D01*
X-56773Y23009D01*
X-56317Y22919D01*
Y24817D01*
D02*
G37*
G36*
X-20310Y26746D02*
X-21109Y26587D01*
X-21788Y26134D01*
X-22241Y25455D01*
X-22400Y24656D01*
X-22241Y23856D01*
X-21788Y23178D01*
X-21109Y22725D01*
X-20310Y22566D01*
X-19510Y22725D01*
X-18832Y23178D01*
X-18753Y23295D01*
X-18152D01*
X-17897Y22912D01*
X-17218Y22459D01*
X-16419Y22300D01*
X-15619Y22459D01*
X-14941Y22912D01*
X-14931Y22926D01*
X-14365Y22874D01*
X-14033Y22378D01*
X-13355Y21925D01*
X-12555Y21766D01*
X-11755Y21925D01*
X-11484Y22106D01*
X-10929Y21876D01*
X-10872Y21591D01*
X-10419Y20913D01*
X-9741Y20460D01*
X-8941Y20301D01*
X-8141Y20460D01*
X-7463Y20913D01*
X-7010Y21591D01*
X-6851Y22391D01*
X-7010Y23191D01*
X-7463Y23869D01*
X-8141Y24322D01*
X-8941Y24482D01*
X-9741Y24322D01*
X-10012Y24141D01*
X-10567Y24371D01*
X-10624Y24656D01*
X-11077Y25334D01*
X-11755Y25787D01*
X-12555Y25947D01*
X-13355Y25787D01*
X-14033Y25334D01*
X-14042Y25321D01*
X-14609Y25372D01*
X-14941Y25868D01*
X-15619Y26321D01*
X-16419Y26480D01*
X-17218Y26321D01*
X-17897Y25868D01*
X-17975Y25751D01*
X-18576D01*
X-18832Y26134D01*
X-19510Y26587D01*
X-20310Y26746D01*
D02*
G37*
G36*
X-66417Y23108D02*
X-67217Y22948D01*
X-67895Y22495D01*
X-68348Y21817D01*
X-68507Y21017D01*
X-68348Y20217D01*
X-68295Y20137D01*
X-69350Y19082D01*
X-69893Y19247D01*
X-69986Y19717D01*
X-70439Y20395D01*
X-71117Y20848D01*
X-71917Y21008D01*
X-72717Y20848D01*
X-73395Y20395D01*
X-73848Y19717D01*
X-74007Y18917D01*
X-73848Y18117D01*
X-73715Y17918D01*
X-76366Y15266D01*
X-76565Y14968D01*
X-76635Y14617D01*
Y9821D01*
X-77135Y9659D01*
X-77717Y10048D01*
X-78517Y10208D01*
X-79317Y10048D01*
X-79995Y9595D01*
X-80448Y8917D01*
X-80607Y8117D01*
X-80448Y7317D01*
X-79995Y6639D01*
X-79317Y6186D01*
X-78517Y6027D01*
X-78221Y6086D01*
X-77835Y5769D01*
Y-21329D01*
X-78335Y-21574D01*
X-78817Y-21252D01*
X-79617Y-21092D01*
X-80417Y-21252D01*
X-81095Y-21705D01*
X-81548Y-22383D01*
X-81708Y-23183D01*
X-81548Y-23983D01*
X-81095Y-24661D01*
X-80927Y-24773D01*
X-81078Y-25273D01*
X-86203D01*
X-86439Y-24832D01*
X-86309Y-24639D01*
X-86219Y-24183D01*
X-91016D01*
X-90925Y-24639D01*
X-90796Y-24832D01*
X-91031Y-25273D01*
X-94404D01*
X-94794Y-25351D01*
X-95125Y-25572D01*
X-95346Y-25903D01*
X-95424Y-26293D01*
Y-32683D01*
X-87317D01*
Y-33183D01*
X-86817D01*
Y-41092D01*
X-80231D01*
X-79840Y-41014D01*
X-79510Y-40793D01*
X-79289Y-40463D01*
X-79211Y-40072D01*
Y-35486D01*
X-78938Y-35342D01*
X-78711Y-35307D01*
X-72735Y-41283D01*
Y-42206D01*
X-72665Y-42557D01*
X-72466Y-42855D01*
X-71774Y-43547D01*
X-72093Y-43935D01*
X-72517Y-43652D01*
X-73317Y-43492D01*
X-74117Y-43652D01*
X-74795Y-44105D01*
X-75248Y-44783D01*
X-75407Y-45583D01*
X-75248Y-46382D01*
X-74795Y-47061D01*
X-74117Y-47514D01*
X-73317Y-47673D01*
X-72656Y-47541D01*
X-67235Y-52963D01*
Y-80630D01*
X-67795Y-81005D01*
X-68248Y-81683D01*
X-68407Y-82483D01*
X-68248Y-83283D01*
X-67795Y-83961D01*
X-67117Y-84414D01*
X-66317Y-84573D01*
X-65517Y-84414D01*
X-64839Y-83961D01*
X-64386Y-83283D01*
X-64227Y-82483D01*
X-64386Y-81683D01*
X-64839Y-81005D01*
X-65400Y-80630D01*
Y-52583D01*
X-65469Y-52232D01*
X-65668Y-51934D01*
X-69269Y-48333D01*
X-69023Y-47872D01*
X-68517Y-47973D01*
X-67856Y-47841D01*
X-63435Y-52263D01*
Y-88983D01*
X-63365Y-89334D01*
X-63166Y-89631D01*
X-56948Y-95850D01*
X-57073Y-96014D01*
X-57507Y-97060D01*
X-57654Y-98183D01*
X-57507Y-99305D01*
X-57073Y-100351D01*
X-56384Y-101250D01*
X-55486Y-101939D01*
X-54440Y-102372D01*
X-53317Y-102520D01*
X-52195Y-102372D01*
X-51149Y-101939D01*
X-50251Y-101250D01*
X-49561Y-100351D01*
X-49128Y-99305D01*
X-48980Y-98183D01*
X-49128Y-97060D01*
X-49561Y-96014D01*
X-50251Y-95116D01*
X-51149Y-94427D01*
X-51695Y-94200D01*
X-51596Y-93700D01*
X-49197D01*
X-46991Y-95907D01*
X-47073Y-96014D01*
X-47507Y-97060D01*
X-47654Y-98183D01*
X-47507Y-99305D01*
X-47073Y-100351D01*
X-46384Y-101250D01*
X-45486Y-101939D01*
X-44440Y-102372D01*
X-43317Y-102520D01*
X-42195Y-102372D01*
X-41149Y-101939D01*
X-40251Y-101250D01*
X-39561Y-100351D01*
X-39128Y-99305D01*
X-38980Y-98183D01*
X-39128Y-97060D01*
X-39561Y-96014D01*
X-40251Y-95116D01*
X-41149Y-94427D01*
X-42195Y-93993D01*
X-43317Y-93846D01*
X-44440Y-93993D01*
X-45486Y-94427D01*
X-45706Y-94596D01*
X-48169Y-92134D01*
X-48466Y-91935D01*
X-48817Y-91865D01*
X-50275D01*
X-50436Y-91392D01*
X-50251Y-91250D01*
X-49561Y-90351D01*
X-49128Y-89305D01*
X-48980Y-88183D01*
X-49128Y-87060D01*
X-49561Y-86014D01*
X-50251Y-85116D01*
X-51149Y-84427D01*
X-52195Y-83993D01*
X-53317Y-83846D01*
X-54440Y-83993D01*
X-55486Y-84427D01*
X-56384Y-85116D01*
X-57073Y-86014D01*
X-57507Y-87060D01*
X-57654Y-88183D01*
X-57624Y-88414D01*
X-58072Y-88635D01*
X-60050Y-86658D01*
Y-74447D01*
X-59638Y-74190D01*
X-59550Y-74195D01*
X-58759Y-74352D01*
X-58489Y-74554D01*
X-58287Y-74825D01*
X-58125Y-75639D01*
X-57895Y-75984D01*
X-58047Y-76350D01*
X-58163Y-76482D01*
X-58795Y-76905D01*
X-59248Y-77583D01*
X-59408Y-78383D01*
X-59248Y-79183D01*
X-58795Y-79861D01*
X-58117Y-80314D01*
X-57317Y-80473D01*
X-56517Y-80314D01*
X-55839Y-79861D01*
X-55386Y-79183D01*
X-55227Y-78383D01*
X-55386Y-77583D01*
X-55424Y-77526D01*
X-55233Y-77064D01*
X-54861Y-76990D01*
X-54051Y-76449D01*
X-53509Y-75639D01*
X-53419Y-75183D01*
X-55817D01*
Y-74183D01*
X-53419D01*
X-53509Y-73727D01*
X-54051Y-72916D01*
X-54861Y-72375D01*
X-55675Y-72213D01*
X-55946Y-72012D01*
X-56148Y-71741D01*
X-56309Y-70927D01*
X-56851Y-70116D01*
X-57661Y-69575D01*
X-58117Y-69484D01*
Y-71883D01*
X-59117D01*
Y-69484D01*
X-59400Y-69540D01*
X-59900Y-69237D01*
Y-51683D01*
X-59970Y-51332D01*
X-60168Y-51034D01*
X-63184Y-48018D01*
X-63139Y-47561D01*
X-62732Y-46951D01*
X-62599Y-46859D01*
X-62148Y-46740D01*
X-61773Y-46990D01*
X-61317Y-47081D01*
Y-44683D01*
Y-42284D01*
X-61773Y-42375D01*
X-62584Y-42916D01*
X-63125Y-43727D01*
X-63669Y-43896D01*
X-63700Y-43884D01*
Y-37159D01*
X-63770Y-36808D01*
X-63968Y-36510D01*
X-68507Y-31971D01*
X-68458Y-31474D01*
X-68139Y-31261D01*
X-67686Y-30582D01*
X-67527Y-29783D01*
X-67686Y-28983D01*
X-68139Y-28305D01*
X-68700Y-27930D01*
Y-27079D01*
X-68611Y-27015D01*
X-68059Y-27231D01*
X-68048Y-27283D01*
X-67595Y-27961D01*
X-66917Y-28414D01*
X-66117Y-28573D01*
X-65317Y-28414D01*
X-64639Y-27961D01*
X-64186Y-27283D01*
X-64027Y-26483D01*
X-64186Y-25683D01*
X-64639Y-25005D01*
X-65200Y-24630D01*
Y-7583D01*
X-65270Y-7231D01*
X-65468Y-6934D01*
X-66059Y-6344D01*
X-65927Y-5683D01*
X-66086Y-4883D01*
X-66539Y-4205D01*
X-67217Y-3752D01*
X-68017Y-3593D01*
X-68817Y-3752D01*
X-69009Y-3880D01*
X-69450Y-3644D01*
Y287D01*
X-65387Y4350D01*
X-64636D01*
X-64295Y3839D01*
X-63617Y3386D01*
X-62817Y3227D01*
X-62017Y3386D01*
X-61339Y3839D01*
X-60886Y4518D01*
X-60727Y5317D01*
X-60886Y6117D01*
X-61339Y6795D01*
X-62017Y7248D01*
X-62817Y7407D01*
X-63617Y7248D01*
X-64163Y6883D01*
X-64623Y7137D01*
X-64527Y7617D01*
X-64686Y8417D01*
X-65139Y9095D01*
X-65817Y9548D01*
X-66617Y9708D01*
X-67417Y9548D01*
X-68095Y9095D01*
X-68470Y8535D01*
X-69017D01*
X-69368Y8465D01*
X-69666Y8266D01*
X-71785Y6148D01*
X-72247Y6339D01*
Y11893D01*
X-69890Y14250D01*
X-68369D01*
X-68295Y14139D01*
X-67617Y13686D01*
X-66817Y13527D01*
X-66017Y13686D01*
X-65339Y14139D01*
X-64886Y14817D01*
X-64727Y15617D01*
X-64886Y16417D01*
X-65339Y17095D01*
X-66017Y17548D01*
X-66817Y17707D01*
X-67572Y17557D01*
X-67601Y17580D01*
X-67711Y18126D01*
X-66828Y19009D01*
X-66417Y18927D01*
X-65617Y19086D01*
X-64939Y19539D01*
X-64486Y20217D01*
X-64327Y21017D01*
X-64486Y21817D01*
X-64939Y22495D01*
X-65617Y22948D01*
X-66417Y23108D01*
D02*
G37*
G36*
X-73419Y24817D02*
X-75317D01*
Y22919D01*
X-74861Y23009D01*
X-74051Y23551D01*
X-73510Y24361D01*
X-73419Y24817D01*
D02*
G37*
G36*
X-76317D02*
X-78216D01*
X-78125Y24361D01*
X-77584Y23551D01*
X-76773Y23009D01*
X-76317Y22919D01*
Y24817D01*
D02*
G37*
G36*
X-28419Y-5183D02*
X-30317D01*
Y-7081D01*
X-29861Y-6990D01*
X-29051Y-6449D01*
X-28510Y-5639D01*
X-28419Y-5183D01*
D02*
G37*
G36*
X-51317Y-22284D02*
X-51773Y-22375D01*
X-52584Y-22916D01*
X-53125Y-23727D01*
X-53216Y-24183D01*
X-51317D01*
Y-22284D01*
D02*
G37*
G36*
X-60317D02*
Y-24183D01*
X-58419D01*
X-58509Y-23727D01*
X-59051Y-22916D01*
X-59861Y-22375D01*
X-60317Y-22284D01*
D02*
G37*
G36*
X-30317D02*
Y-24183D01*
X-28419D01*
X-28510Y-23727D01*
X-29051Y-22916D01*
X-29861Y-22375D01*
X-30317Y-22284D01*
D02*
G37*
G36*
X-50317D02*
Y-24183D01*
X-48419D01*
X-48509Y-23727D01*
X-49051Y-22916D01*
X-49861Y-22375D01*
X-50317Y-22284D01*
D02*
G37*
G36*
X-61317D02*
X-61773Y-22375D01*
X-62584Y-22916D01*
X-63125Y-23727D01*
X-63216Y-24183D01*
X-61317D01*
Y-22284D01*
D02*
G37*
G36*
X-8419Y-25183D02*
X-10317D01*
Y-27081D01*
X-9861Y-26991D01*
X-9051Y-26449D01*
X-8510Y-25639D01*
X-8419Y-25183D01*
D02*
G37*
G36*
X-11317D02*
X-13216D01*
X-13125Y-25639D01*
X-12584Y-26449D01*
X-11773Y-26991D01*
X-11317Y-27081D01*
Y-25183D01*
D02*
G37*
G36*
X1581D02*
X-317D01*
Y-27081D01*
X139Y-26991D01*
X949Y-26449D01*
X1491Y-25639D01*
X1581Y-25183D01*
D02*
G37*
G36*
X-1317D02*
X-3216D01*
X-3125Y-25639D01*
X-2584Y-26449D01*
X-1773Y-26991D01*
X-1317Y-27081D01*
Y-25183D01*
D02*
G37*
G36*
X-88117Y-21284D02*
Y-23183D01*
X-86219D01*
X-86309Y-22727D01*
X-86851Y-21916D01*
X-87661Y-21375D01*
X-88117Y-21284D01*
D02*
G37*
G36*
X-89117D02*
X-89573Y-21375D01*
X-90384Y-21916D01*
X-90925Y-22727D01*
X-91016Y-23183D01*
X-89117D01*
Y-21284D01*
D02*
G37*
G36*
X-106317Y-15183D02*
X-108216D01*
X-108125Y-15639D01*
X-107584Y-16449D01*
X-106773Y-16991D01*
X-106317Y-17081D01*
Y-15183D01*
D02*
G37*
G36*
X-46717Y-15283D02*
X-48616D01*
X-48525Y-15739D01*
X-47984Y-16549D01*
X-47173Y-17090D01*
X-46717Y-17181D01*
Y-15283D01*
D02*
G37*
G36*
X-1317Y-22284D02*
X-1773Y-22375D01*
X-2584Y-22916D01*
X-3125Y-23727D01*
X-3216Y-24183D01*
X-1317D01*
Y-22284D01*
D02*
G37*
G36*
X-20317D02*
Y-24183D01*
X-18419D01*
X-18509Y-23727D01*
X-19051Y-22916D01*
X-19861Y-22375D01*
X-20317Y-22284D01*
D02*
G37*
G36*
X-21317D02*
X-21773Y-22375D01*
X-22584Y-22916D01*
X-23125Y-23727D01*
X-23216Y-24183D01*
X-21317D01*
Y-22284D01*
D02*
G37*
G36*
X-10317D02*
Y-24183D01*
X-8419D01*
X-8510Y-23727D01*
X-9051Y-22916D01*
X-9861Y-22375D01*
X-10317Y-22284D01*
D02*
G37*
G36*
X-11317D02*
X-11773Y-22375D01*
X-12584Y-22916D01*
X-13125Y-23727D01*
X-13216Y-24183D01*
X-11317D01*
Y-22284D01*
D02*
G37*
G36*
X4683Y-32284D02*
Y-34183D01*
X6581D01*
X6491Y-33727D01*
X5949Y-32916D01*
X5139Y-32375D01*
X4683Y-32284D01*
D02*
G37*
G36*
X3683D02*
X3227Y-32375D01*
X2416Y-32916D01*
X1875Y-33727D01*
X1784Y-34183D01*
X3683D01*
Y-32284D01*
D02*
G37*
G36*
X-52652Y-32094D02*
Y-33517D01*
X-51228D01*
X-51283Y-33243D01*
X-51721Y-32587D01*
X-52378Y-32148D01*
X-52652Y-32094D01*
D02*
G37*
G36*
X-57983D02*
X-58257Y-32148D01*
X-58913Y-32587D01*
X-59352Y-33243D01*
X-59406Y-33517D01*
X-57983D01*
Y-32094D01*
D02*
G37*
G36*
X-5317Y-32284D02*
Y-34183D01*
X-3419D01*
X-3509Y-33727D01*
X-4051Y-32916D01*
X-4861Y-32375D01*
X-5317Y-32284D01*
D02*
G37*
G36*
X-16317D02*
X-16773Y-32375D01*
X-17584Y-32916D01*
X-18125Y-33727D01*
X-18216Y-34183D01*
X-16317D01*
Y-32284D01*
D02*
G37*
G36*
X-35317D02*
Y-34183D01*
X-33419D01*
X-33509Y-33727D01*
X-34051Y-32916D01*
X-34861Y-32375D01*
X-35317Y-32284D01*
D02*
G37*
G36*
X-6317D02*
X-6773Y-32375D01*
X-7584Y-32916D01*
X-8125Y-33727D01*
X-8216Y-34183D01*
X-6317D01*
Y-32284D01*
D02*
G37*
G36*
X-15317D02*
Y-34183D01*
X-13419D01*
X-13510Y-33727D01*
X-14051Y-32916D01*
X-14861Y-32375D01*
X-15317Y-32284D01*
D02*
G37*
G36*
X-28419Y-25183D02*
X-30317D01*
Y-27081D01*
X-29861Y-26991D01*
X-29051Y-26449D01*
X-28510Y-25639D01*
X-28419Y-25183D01*
D02*
G37*
G36*
X-33419Y-15183D02*
X-38216D01*
X-38125Y-15639D01*
X-37584Y-16449D01*
X-36773Y-16991D01*
X-35981Y-17148D01*
X-36108Y-17783D01*
X-35948Y-18583D01*
X-35495Y-19261D01*
X-34935Y-19635D01*
Y-27006D01*
X-34865Y-27357D01*
X-34666Y-27655D01*
X-24809Y-37512D01*
X-24954Y-38051D01*
X-25073Y-38075D01*
X-25884Y-38616D01*
X-26425Y-39427D01*
X-26516Y-39883D01*
X-24117D01*
Y-40883D01*
X-26516D01*
X-26500Y-40962D01*
X-26898Y-41462D01*
X-30018D01*
X-30408Y-41540D01*
X-30739Y-41761D01*
X-30960Y-42092D01*
X-31038Y-42482D01*
Y-46903D01*
X-25097D01*
X-19156D01*
Y-43125D01*
X-18656Y-42918D01*
X-13596Y-47979D01*
X-13617Y-48019D01*
Y-50883D01*
X-14117D01*
Y-51383D01*
X-16516D01*
X-16425Y-51839D01*
X-16400Y-51877D01*
X-16591Y-52339D01*
X-16773Y-52375D01*
X-17584Y-52916D01*
X-18125Y-53727D01*
X-18216Y-54183D01*
X-13419D01*
X-13510Y-53727D01*
X-13535Y-53689D01*
X-13343Y-53227D01*
X-13161Y-53190D01*
X-12635Y-52839D01*
X-12135Y-53106D01*
Y-62130D01*
X-12695Y-62505D01*
X-13148Y-63183D01*
X-13307Y-63983D01*
X-13148Y-64783D01*
X-12695Y-65461D01*
X-12017Y-65914D01*
X-11916Y-65934D01*
Y-66444D01*
X-12073Y-66475D01*
X-12884Y-67016D01*
X-13425Y-67827D01*
X-13516Y-68283D01*
X-8719D01*
X-8810Y-67827D01*
X-9351Y-67016D01*
X-10161Y-66475D01*
X-10418Y-66424D01*
X-10418Y-65914D01*
X-10417Y-65914D01*
X-9739Y-65461D01*
X-9286Y-64783D01*
X-9127Y-63983D01*
X-9286Y-63183D01*
X-9739Y-62505D01*
X-10300Y-62130D01*
Y-49059D01*
X-10369Y-48708D01*
X-10569Y-48410D01*
X-11405Y-47574D01*
X-11317Y-47409D01*
Y-45183D01*
X-13543D01*
X-13708Y-45271D01*
X-22595Y-36384D01*
X-22893Y-36185D01*
X-23244Y-36115D01*
X-23611D01*
X-32860Y-26866D01*
X-32541Y-26478D01*
X-31773Y-26991D01*
X-31317Y-27081D01*
Y-24683D01*
Y-22284D01*
X-31773Y-22375D01*
X-32584Y-22916D01*
X-32621Y-22973D01*
X-33100Y-22827D01*
Y-19635D01*
X-32539Y-19261D01*
X-32086Y-18583D01*
X-31927Y-17783D01*
X-32086Y-16983D01*
X-32539Y-16305D01*
X-33102Y-15929D01*
X-33220Y-15845D01*
X-33442Y-15297D01*
X-33419Y-15183D01*
D02*
G37*
G36*
X-18419Y-25183D02*
X-20317D01*
Y-27081D01*
X-19861Y-26991D01*
X-19051Y-26449D01*
X-18509Y-25639D01*
X-18419Y-25183D01*
D02*
G37*
G36*
X-21317D02*
X-23216D01*
X-23125Y-25639D01*
X-22584Y-26449D01*
X-21773Y-26991D01*
X-21317Y-27081D01*
Y-25183D01*
D02*
G37*
G36*
X-48419D02*
X-50317D01*
Y-27081D01*
X-49861Y-26991D01*
X-49051Y-26449D01*
X-48509Y-25639D01*
X-48419Y-25183D01*
D02*
G37*
G36*
X-61317D02*
X-63216D01*
X-63125Y-25639D01*
X-62584Y-26449D01*
X-61773Y-26991D01*
X-61317Y-27081D01*
Y-25183D01*
D02*
G37*
G36*
X-53652Y-32094D02*
X-53926Y-32148D01*
X-54583Y-32587D01*
X-55021Y-33243D01*
X-55062Y-33451D01*
X-55572D01*
X-55614Y-33243D01*
X-56052Y-32587D01*
X-56709Y-32148D01*
X-56983Y-32094D01*
Y-34017D01*
X-57483D01*
Y-34517D01*
X-59406D01*
X-59352Y-34791D01*
X-58913Y-35448D01*
X-58257Y-35886D01*
X-58049Y-35928D01*
Y-36438D01*
X-58257Y-36479D01*
X-58913Y-36917D01*
X-59352Y-37574D01*
X-59406Y-37848D01*
X-57483D01*
Y-38348D01*
X-56983D01*
Y-40272D01*
X-56709Y-40217D01*
X-56052Y-39779D01*
X-55614Y-39122D01*
X-55572Y-38914D01*
X-55062D01*
X-55021Y-39122D01*
X-54583Y-39779D01*
X-53926Y-40217D01*
X-53652Y-40272D01*
Y-38348D01*
X-53152D01*
Y-37848D01*
X-51228D01*
X-51283Y-37574D01*
X-51721Y-36917D01*
X-52378Y-36479D01*
X-52586Y-36438D01*
Y-35928D01*
X-52378Y-35886D01*
X-51721Y-35448D01*
X-51283Y-34791D01*
X-51228Y-34517D01*
X-53152D01*
Y-34017D01*
X-53652D01*
Y-32094D01*
D02*
G37*
G36*
X-51317Y-25183D02*
X-53216D01*
X-53125Y-25639D01*
X-52584Y-26449D01*
X-51773Y-26991D01*
X-51317Y-27081D01*
Y-25183D01*
D02*
G37*
G36*
X-58419D02*
X-60317D01*
Y-27081D01*
X-59861Y-26991D01*
X-59051Y-26449D01*
X-58509Y-25639D01*
X-58419Y-25183D01*
D02*
G37*
G36*
X-16317Y-12284D02*
X-16773Y-12375D01*
X-17584Y-12916D01*
X-18125Y-13727D01*
X-18216Y-14183D01*
X-16317D01*
Y-12284D01*
D02*
G37*
G36*
X-25317D02*
Y-14183D01*
X-23419D01*
X-23509Y-13727D01*
X-24051Y-12916D01*
X-24861Y-12375D01*
X-25317Y-12284D01*
D02*
G37*
G36*
X-53917Y17607D02*
X-54717Y17448D01*
X-55395Y16995D01*
X-55848Y16317D01*
X-56007Y15517D01*
X-55848Y14717D01*
X-55395Y14039D01*
X-54717Y13586D01*
X-53917Y13427D01*
X-53117Y13586D01*
X-52439Y14039D01*
X-52065Y14600D01*
X-50997D01*
X-50401Y14003D01*
X-50570Y13465D01*
X-51273Y13325D01*
X-52084Y12784D01*
X-52625Y11973D01*
X-52716Y11517D01*
X-50317D01*
Y11017D01*
X-49817D01*
Y8619D01*
X-49361Y8709D01*
X-48551Y9251D01*
X-48549Y9253D01*
X-48041Y9115D01*
X-48003Y8928D01*
X-47804Y8630D01*
X-44785Y5611D01*
Y-12218D01*
X-45197Y-12476D01*
X-45285Y-12470D01*
X-45717Y-12384D01*
Y-14783D01*
Y-17181D01*
X-45285Y-17095D01*
X-45197Y-17090D01*
X-44785Y-17347D01*
Y-18144D01*
X-45226Y-18380D01*
X-45417Y-18252D01*
X-46217Y-18092D01*
X-47017Y-18252D01*
X-47695Y-18705D01*
X-48148Y-19383D01*
X-48307Y-20183D01*
X-48148Y-20983D01*
X-47695Y-21661D01*
X-47017Y-22114D01*
X-46217Y-22273D01*
X-45417Y-22114D01*
X-45226Y-21986D01*
X-44785Y-22221D01*
Y-34029D01*
X-45316Y-34560D01*
X-45515Y-34858D01*
X-45585Y-35209D01*
Y-43830D01*
X-45995Y-44105D01*
X-46448Y-44783D01*
X-46608Y-45583D01*
X-46448Y-46382D01*
X-45995Y-47061D01*
X-45317Y-47514D01*
X-44517Y-47673D01*
X-43735Y-47517D01*
X-43646Y-47506D01*
X-43235Y-47776D01*
Y-53238D01*
X-43735Y-53389D01*
X-44051Y-52916D01*
X-44861Y-52375D01*
X-45317Y-52284D01*
Y-54683D01*
Y-57081D01*
X-44861Y-56990D01*
X-44051Y-56449D01*
X-43735Y-55976D01*
X-43235Y-56128D01*
Y-73238D01*
X-43735Y-73389D01*
X-44051Y-72916D01*
X-44861Y-72375D01*
X-45317Y-72284D01*
Y-74683D01*
Y-77081D01*
X-44861Y-76990D01*
X-44051Y-76449D01*
X-43591Y-75761D01*
X-43158Y-75715D01*
X-43025Y-75744D01*
X-42966Y-75832D01*
X-39235Y-79563D01*
Y-85618D01*
X-39735Y-85788D01*
X-40251Y-85116D01*
X-41149Y-84427D01*
X-42195Y-83993D01*
X-43317Y-83846D01*
X-44440Y-83993D01*
X-45486Y-84427D01*
X-46384Y-85116D01*
X-47073Y-86014D01*
X-47507Y-87060D01*
X-47654Y-88183D01*
X-47507Y-89305D01*
X-47073Y-90351D01*
X-46384Y-91250D01*
X-45486Y-91939D01*
X-44440Y-92372D01*
X-43317Y-92520D01*
X-42195Y-92372D01*
X-41149Y-91939D01*
X-40251Y-91250D01*
X-39735Y-90578D01*
X-39235Y-90747D01*
Y-94183D01*
X-39165Y-94534D01*
X-38966Y-94832D01*
X-37281Y-96516D01*
X-37507Y-97060D01*
X-37654Y-98183D01*
X-37507Y-99305D01*
X-37073Y-100351D01*
X-36384Y-101250D01*
X-35486Y-101939D01*
X-34440Y-102372D01*
X-33317Y-102520D01*
X-32195Y-102372D01*
X-31149Y-101939D01*
X-30250Y-101250D01*
X-29561Y-100351D01*
X-29128Y-99305D01*
X-28980Y-98183D01*
X-29128Y-97060D01*
X-29561Y-96014D01*
X-30250Y-95116D01*
X-31149Y-94427D01*
X-32195Y-93993D01*
X-33317Y-93846D01*
X-34440Y-93993D01*
X-35486Y-94427D01*
X-36216Y-94987D01*
X-37400Y-93803D01*
Y-91361D01*
X-36926Y-91200D01*
X-36669Y-91535D01*
X-35688Y-92288D01*
X-34544Y-92762D01*
X-33817Y-92857D01*
Y-88183D01*
Y-83508D01*
X-34544Y-83604D01*
X-35688Y-84077D01*
X-36669Y-84831D01*
X-36926Y-85165D01*
X-37400Y-85005D01*
Y-79183D01*
X-37470Y-78831D01*
X-37668Y-78534D01*
X-41400Y-74803D01*
Y-47027D01*
X-41320Y-46907D01*
X-41250Y-46556D01*
Y-37935D01*
X-40839Y-37661D01*
X-40386Y-36983D01*
X-40227Y-36183D01*
X-40386Y-35383D01*
X-40839Y-34705D01*
X-41517Y-34252D01*
X-42317Y-34093D01*
X-42563Y-34141D01*
X-42950Y-33824D01*
Y5991D01*
X-43020Y6342D01*
X-43218Y6640D01*
X-46238Y9659D01*
Y12056D01*
X-46308Y12407D01*
X-46507Y12705D01*
X-49968Y16166D01*
X-50266Y16365D01*
X-50617Y16435D01*
X-52065D01*
X-52439Y16995D01*
X-53117Y17448D01*
X-53917Y17607D01*
D02*
G37*
G36*
X-15317Y-12284D02*
Y-14183D01*
X-13419D01*
X-13510Y-13727D01*
X-14051Y-12916D01*
X-14861Y-12375D01*
X-15317Y-12284D01*
D02*
G37*
G36*
X-26317D02*
X-26773Y-12375D01*
X-27584Y-12916D01*
X-28125Y-13727D01*
X-28216Y-14183D01*
X-26317D01*
Y-12284D01*
D02*
G37*
G36*
X-55317D02*
Y-14183D01*
X-53419D01*
X-53509Y-13727D01*
X-54051Y-12916D01*
X-54861Y-12375D01*
X-55317Y-12284D01*
D02*
G37*
G36*
X-56317D02*
X-56773Y-12375D01*
X-57584Y-12916D01*
X-58125Y-13727D01*
X-58216Y-14183D01*
X-56317D01*
Y-12284D01*
D02*
G37*
G36*
X-35317D02*
Y-14183D01*
X-33419D01*
X-33509Y-13727D01*
X-34051Y-12916D01*
X-34861Y-12375D01*
X-35317Y-12284D01*
D02*
G37*
G36*
X-36317D02*
X-36773Y-12375D01*
X-37584Y-12916D01*
X-38125Y-13727D01*
X-38216Y-14183D01*
X-36317D01*
Y-12284D01*
D02*
G37*
G36*
X-51317Y-5183D02*
X-53216D01*
X-53125Y-5639D01*
X-52584Y-6449D01*
X-51773Y-6990D01*
X-51317Y-7081D01*
Y-5183D01*
D02*
G37*
G36*
X-61317D02*
X-63216D01*
X-63125Y-5639D01*
X-62584Y-6449D01*
X-61773Y-6990D01*
X-61317Y-7081D01*
Y-5183D01*
D02*
G37*
G36*
X-31317D02*
X-33216D01*
X-33125Y-5639D01*
X-32584Y-6449D01*
X-31773Y-6990D01*
X-31317Y-7081D01*
Y-5183D01*
D02*
G37*
G36*
X-48419D02*
X-50317D01*
Y-7081D01*
X-49861Y-6990D01*
X-49051Y-6449D01*
X-48509Y-5639D01*
X-48419Y-5183D01*
D02*
G37*
G36*
X-98419D02*
X-100317D01*
Y-7081D01*
X-99861Y-6990D01*
X-99051Y-6449D01*
X-98510Y-5639D01*
X-98419Y-5183D01*
D02*
G37*
G36*
X-38217Y-5583D02*
X-40116D01*
X-40025Y-6039D01*
X-39484Y-6849D01*
X-38673Y-7390D01*
X-38217Y-7481D01*
Y-5583D01*
D02*
G37*
G36*
X-96417Y9008D02*
X-97217Y8848D01*
X-97895Y8395D01*
X-98348Y7717D01*
X-98507Y6917D01*
X-98348Y6117D01*
X-97895Y5439D01*
X-97217Y4986D01*
X-96417Y4827D01*
X-95617Y4986D01*
X-95494Y5068D01*
X-95053Y4833D01*
Y-8380D01*
X-94863Y-8839D01*
X-94404Y-9029D01*
X-80231D01*
X-79772Y-8839D01*
X-79581Y-8380D01*
Y5400D01*
X-79772Y5859D01*
X-80231Y6049D01*
X-93990D01*
X-94400Y6549D01*
X-94327Y6917D01*
X-94486Y7717D01*
X-94939Y8395D01*
X-95617Y8848D01*
X-96417Y9008D01*
D02*
G37*
G36*
X-101317Y-5183D02*
X-103216D01*
X-103125Y-5639D01*
X-102584Y-6449D01*
X-101773Y-6990D01*
X-101317Y-7081D01*
Y-5183D01*
D02*
G37*
G36*
X-35319Y-5583D02*
X-37217D01*
Y-7481D01*
X-36761Y-7390D01*
X-35951Y-6849D01*
X-35410Y-6039D01*
X-35319Y-5583D01*
D02*
G37*
G36*
X-85317Y-12284D02*
Y-14183D01*
X-83419D01*
X-83509Y-13727D01*
X-84051Y-12916D01*
X-84861Y-12375D01*
X-85317Y-12284D01*
D02*
G37*
G36*
X-56317Y-15183D02*
X-58216D01*
X-58125Y-15639D01*
X-57584Y-16449D01*
X-56773Y-16991D01*
X-56317Y-17081D01*
Y-15183D01*
D02*
G37*
G36*
X-83419D02*
X-85317D01*
Y-17081D01*
X-84861Y-16991D01*
X-84051Y-16449D01*
X-83509Y-15639D01*
X-83419Y-15183D01*
D02*
G37*
G36*
X-26317D02*
X-28216D01*
X-28125Y-15639D01*
X-27584Y-16449D01*
X-26773Y-16991D01*
X-26317Y-17081D01*
Y-15183D01*
D02*
G37*
G36*
X-53419D02*
X-55317D01*
Y-17081D01*
X-54861Y-16991D01*
X-54051Y-16449D01*
X-53509Y-15639D01*
X-53419Y-15183D01*
D02*
G37*
G36*
X-96317D02*
X-98216D01*
X-98125Y-15639D01*
X-97584Y-16449D01*
X-96773Y-16991D01*
X-96317Y-17081D01*
Y-15183D01*
D02*
G37*
G36*
X-103419D02*
X-105317D01*
Y-17081D01*
X-104861Y-16991D01*
X-104051Y-16449D01*
X-103509Y-15639D01*
X-103419Y-15183D01*
D02*
G37*
G36*
X-86317D02*
X-88216D01*
X-88125Y-15639D01*
X-87584Y-16449D01*
X-86773Y-16991D01*
X-86317Y-17081D01*
Y-15183D01*
D02*
G37*
G36*
X-93419D02*
X-95317D01*
Y-17081D01*
X-94861Y-16991D01*
X-94051Y-16449D01*
X-93510Y-15639D01*
X-93419Y-15183D01*
D02*
G37*
G36*
X-23419D02*
X-25317D01*
Y-17081D01*
X-24861Y-16991D01*
X-24051Y-16449D01*
X-23509Y-15639D01*
X-23419Y-15183D01*
D02*
G37*
G36*
X-96317Y-12284D02*
X-96773Y-12375D01*
X-97584Y-12916D01*
X-98125Y-13727D01*
X-98216Y-14183D01*
X-96317D01*
Y-12284D01*
D02*
G37*
G36*
X-105317D02*
Y-14183D01*
X-103419D01*
X-103509Y-13727D01*
X-104051Y-12916D01*
X-104861Y-12375D01*
X-105317Y-12284D01*
D02*
G37*
G36*
X-86317D02*
X-86773Y-12375D01*
X-87584Y-12916D01*
X-88125Y-13727D01*
X-88216Y-14183D01*
X-86317D01*
Y-12284D01*
D02*
G37*
G36*
X-95317D02*
Y-14183D01*
X-93419D01*
X-93510Y-13727D01*
X-94051Y-12916D01*
X-94861Y-12375D01*
X-95317Y-12284D01*
D02*
G37*
G36*
X-16317Y-15183D02*
X-18216D01*
X-18125Y-15639D01*
X-17584Y-16449D01*
X-16773Y-16991D01*
X-16317Y-17081D01*
Y-15183D01*
D02*
G37*
G36*
X-13419D02*
X-15317D01*
Y-17081D01*
X-14861Y-16991D01*
X-14051Y-16449D01*
X-13510Y-15639D01*
X-13419Y-15183D01*
D02*
G37*
G36*
X-106317Y-12284D02*
X-106773Y-12375D01*
X-107584Y-12916D01*
X-108125Y-13727D01*
X-108216Y-14183D01*
X-106317D01*
Y-12284D01*
D02*
G37*
G36*
X-46717Y-12384D02*
X-47173Y-12475D01*
X-47984Y-13016D01*
X-48525Y-13827D01*
X-48616Y-14283D01*
X-46717D01*
Y-12384D01*
D02*
G37*
%LPD*%
G36*
X-68800Y-7617D02*
X-68017Y-7773D01*
X-67406Y-7651D01*
X-67035Y-7982D01*
Y-20248D01*
X-67535Y-20334D01*
X-67668Y-20134D01*
X-69300Y-18503D01*
Y-7876D01*
X-68889Y-7606D01*
X-68800Y-7617D01*
D02*
G37*
D36*
X-71867Y-19836D02*
X-70117Y-21586D01*
X-78217Y9017D02*
X-76917Y7717D01*
X-75717Y14617D02*
X-71617Y18717D01*
X-47156Y9279D02*
X-43867Y5991D01*
X-53917Y15517D02*
X-50617D01*
X-47156Y12056D01*
Y9279D02*
Y12056D01*
X-43867Y-34409D02*
Y5991D01*
X-25097Y-41362D02*
X-24117Y-40383D01*
X-25097Y-47403D02*
Y-41362D01*
X-11217Y-63983D02*
Y-49059D01*
X-23991Y-37033D02*
X-23244D01*
X-11217Y-49059D01*
X-34017Y-27006D02*
Y-17783D01*
Y-27006D02*
X-23991Y-37033D01*
X-60967Y-87038D02*
X-55223Y-92783D01*
X-60967Y-87038D02*
Y-70909D01*
X-60817Y-70759D02*
Y-51683D01*
X-60967Y-70909D02*
X-60817Y-70759D01*
X-88617Y-23683D02*
X-87317Y-24983D01*
Y-33183D02*
Y-24983D01*
X-44667Y-35209D02*
X-43867Y-34409D01*
X-56517Y-9383D02*
Y-8283D01*
X-57617Y-7183D02*
X-56517Y-8283D01*
X-62517Y-88983D02*
Y-51883D01*
X-68517Y-45883D02*
X-62517Y-51883D01*
X-64617Y-47883D02*
X-60817Y-51683D01*
X-42317Y-75183D02*
X-38317Y-79183D01*
X-42317Y-75183D02*
Y-46706D01*
X-42167Y-46556D01*
Y-36333D01*
X-42317Y-36183D02*
X-42167Y-36333D01*
X-38617Y-44998D02*
X-21033Y-62583D01*
X-38617Y-44998D02*
Y-21683D01*
X-21033Y-62583D02*
X-20817D01*
X-69644Y-32133D02*
X-64617Y-37159D01*
X-70967Y-32133D02*
X-69644D01*
X-75717Y-32706D02*
X-70041Y-38383D01*
X-69317D01*
X-71867Y-19836D02*
Y4767D01*
X-69017Y7617D01*
X-78117Y-34603D02*
X-71817Y-40903D01*
Y-42206D02*
Y-40903D01*
X-79617Y-25083D02*
X-78117Y-26583D01*
Y-34603D02*
Y-26583D01*
X-71817Y-42206D02*
X-68517Y-45506D01*
X-79617Y-25083D02*
Y-23183D01*
X-68517Y-45883D02*
Y-45506D01*
X-62517Y-88983D02*
X-53317Y-98183D01*
X-69017Y7617D02*
X-66617D01*
X-38317Y-94183D02*
Y-79183D01*
Y-94183D02*
X-34317Y-98183D01*
X-33317D01*
X-71817Y18917D02*
X-71617Y18717D01*
X-71917Y18917D02*
X-71817D01*
X-66417Y20717D02*
Y21017D01*
X-68741Y-42283D02*
X-68417D01*
X-67267Y15167D02*
X-66817Y15617D01*
X-70270Y15167D02*
X-67267D01*
X-78517Y8717D02*
X-78217Y9017D01*
X-78517Y8117D02*
Y8717D01*
X-43417Y-98183D02*
X-43317D01*
X-48817Y-92783D02*
X-43417Y-98183D01*
X-55223Y-92783D02*
X-48817D01*
X-64617Y-46083D02*
Y-37159D01*
X-76917Y-34106D02*
X-68741Y-42283D01*
X-64617Y-47883D02*
Y-46083D01*
X-96110Y-64876D02*
X-87317D01*
X-98517Y-67283D02*
X-96110Y-64876D01*
X-57617Y-7183D02*
Y2717D01*
X-44667Y-45433D02*
X-44517Y-45583D01*
X-44667Y-45433D02*
Y-35209D01*
X-73317Y-45583D02*
X-66317Y-52583D01*
Y-82483D02*
Y-52583D01*
X-62867Y5267D02*
X-62817Y5317D01*
X-65767Y5267D02*
X-62867D01*
X-70367Y667D02*
X-65767Y5267D01*
X-70367Y-6656D02*
Y667D01*
Y-6656D02*
X-70217Y-6806D01*
X-68017Y-5683D02*
X-66117Y-7583D01*
Y-26483D02*
Y-7583D01*
X-76917Y-34106D02*
Y7717D01*
X-75717Y-32706D02*
Y14617D01*
X-74364Y-30736D02*
Y12770D01*
X-73164Y-29936D02*
Y12273D01*
Y-29936D02*
X-70967Y-32133D01*
X-73164Y12273D02*
X-70270Y15167D01*
X-74364Y-30736D02*
X-70617Y-34483D01*
X-74364Y12770D02*
X-66417Y20717D01*
X-69617Y-29783D02*
Y-26183D01*
X-70217Y-18883D02*
Y-6806D01*
X-69617Y-26183D02*
X-68317Y-24883D01*
Y-20783D01*
X-70217Y-18883D02*
X-68317Y-20783D01*
X-70814Y-22283D02*
X-70117Y-21586D01*
D37*
X-24217Y-77442D02*
X-23417Y-76642D01*
X-76017Y-50183D02*
X-73017Y-53183D01*
X-90817Y-50183D02*
X-76017D01*
X-98417Y-42583D02*
X-90817Y-50183D01*
X-73017Y-53183D02*
X-72017D01*
X-98417Y-42583D02*
Y-23483D01*
X-25097Y-74962D02*
X-23417Y-76642D01*
X-24217Y-83383D02*
Y-77442D01*
D38*
X-33317Y-88183D02*
D03*
Y-98183D02*
D03*
X-43317Y-88183D02*
D03*
Y-98183D02*
D03*
X-53317Y-88183D02*
D03*
Y-98183D02*
D03*
D39*
X-73417Y-90283D02*
D03*
D40*
X-57483Y-38348D02*
D03*
Y-34017D02*
D03*
X-53152Y-38348D02*
D03*
Y-34017D02*
D03*
D41*
X19183Y-44683D02*
D03*
X14183Y-54683D02*
D03*
X4183Y-34683D02*
D03*
Y-54683D02*
D03*
X9183Y-64683D02*
D03*
X-817Y-24683D02*
D03*
X-5817Y-34683D02*
D03*
Y-54683D02*
D03*
X-817Y-64683D02*
D03*
X-5817Y-74683D02*
D03*
X-817Y-84683D02*
D03*
X-15817Y-14683D02*
D03*
X-10817Y-24683D02*
D03*
X-15817Y-34683D02*
D03*
X-10817Y-44683D02*
D03*
X-15817Y-54683D02*
D03*
Y-74683D02*
D03*
X-10817Y-84683D02*
D03*
X-15817Y-94683D02*
D03*
X-25817Y5317D02*
D03*
X-20817Y-4683D02*
D03*
X-25817Y-14683D02*
D03*
X-20817Y-24683D02*
D03*
Y-84683D02*
D03*
X-25817Y-94683D02*
D03*
X-35817Y25317D02*
D03*
Y5317D02*
D03*
X-30817Y-4683D02*
D03*
X-35817Y-14683D02*
D03*
X-30817Y-24683D02*
D03*
X-35817Y-34683D02*
D03*
Y-54683D02*
D03*
X-30817Y-64683D02*
D03*
X-35817Y-74683D02*
D03*
X-45817Y25317D02*
D03*
X-40817Y15317D02*
D03*
X-45817Y-54683D02*
D03*
Y-74683D02*
D03*
X-55817Y25317D02*
D03*
X-50817Y-4683D02*
D03*
X-55817Y-14683D02*
D03*
X-50817Y-24683D02*
D03*
Y-44683D02*
D03*
X-55817Y-54683D02*
D03*
X-50817Y-64683D02*
D03*
X-55817Y-74683D02*
D03*
X-60817Y15317D02*
D03*
Y-4683D02*
D03*
Y-24683D02*
D03*
Y-44683D02*
D03*
X-65817Y-94683D02*
D03*
X-75817Y25317D02*
D03*
X-70817Y-64683D02*
D03*
X-75817Y-74683D02*
D03*
X-80817Y15317D02*
D03*
X-85817Y-14683D02*
D03*
Y-54683D02*
D03*
Y-74683D02*
D03*
X-90817Y15317D02*
D03*
X-95817Y-14683D02*
D03*
X-90817Y-44683D02*
D03*
X-95817Y-54683D02*
D03*
X-100817Y-4683D02*
D03*
X-105817Y-14683D02*
D03*
Y-34683D02*
D03*
X-100817Y-44683D02*
D03*
X-105817Y-54683D02*
D03*
X-25629Y24564D02*
D03*
X-29512Y24204D02*
D03*
X-30425Y14123D02*
D03*
X-26616Y13285D02*
D03*
X-18847Y13462D02*
D03*
X-14959Y13154D02*
D03*
X-8941Y22391D02*
D03*
X-12555Y23856D02*
D03*
X-16419Y24390D02*
D03*
X-20310Y24656D02*
D03*
X-22817Y11417D02*
D03*
X-27717Y-1583D02*
D03*
X-44517Y34117D02*
D03*
X-66017Y27517D02*
D03*
X-50317Y11017D02*
D03*
X-53917Y15517D02*
D03*
X-24117Y-40383D02*
D03*
X-31717Y-56283D02*
D03*
X-11117Y-68783D02*
D03*
X-33317Y-71383D02*
D03*
X-14117Y-50883D02*
D03*
X-34417Y-44583D02*
D03*
X-55417Y-47783D02*
D03*
X-58617Y-71883D02*
D03*
X-84417Y-83983D02*
D03*
X-96717Y-73883D02*
D03*
X-101817Y-58483D02*
D03*
X-79217Y-44283D02*
D03*
X-88617Y-23683D02*
D03*
X-46217Y-14783D02*
D03*
Y-20183D02*
D03*
X-56517Y-9383D02*
D03*
X-57317Y-78383D02*
D03*
X-11917Y-75483D02*
D03*
X-72617Y-79883D02*
D03*
X-108717Y-45483D02*
D03*
X-96417Y6917D02*
D03*
X-69617Y-29783D02*
D03*
X-70617Y-34483D02*
D03*
X-11217Y-63983D02*
D03*
X-68017Y-5683D02*
D03*
X-68517Y-45883D02*
D03*
X-79617Y-23183D02*
D03*
X-66617Y7617D02*
D03*
X-68417Y-42283D02*
D03*
X-62817Y5317D02*
D03*
X-66817Y15617D02*
D03*
X-66417Y21017D02*
D03*
X-71917Y18917D02*
D03*
X-78517Y8117D02*
D03*
X-66317Y-82483D02*
D03*
X-64617Y-46083D02*
D03*
X-69317Y-38383D02*
D03*
X-73317Y-45583D02*
D03*
X-98517Y-67283D02*
D03*
X-20817Y-62583D02*
D03*
X-42317Y-36183D02*
D03*
X-38617Y-21683D02*
D03*
X-37717Y-5083D02*
D03*
X-65017Y-83D02*
D03*
X-57617Y2717D02*
D03*
X-44517Y-45583D02*
D03*
X-98417Y-23483D02*
D03*
X-24217Y-83383D02*
D03*
X-72017Y-53183D02*
D03*
X-66117Y-26483D02*
D03*
X-70814Y-22283D02*
D03*
X-34017Y-17783D02*
D03*
D42*
X-25097Y-74962D02*
D03*
X2462Y-47403D02*
D03*
Y-74962D02*
D03*
X-25097Y-47403D02*
D03*
D43*
X-87317Y-33183D02*
D03*
Y-64876D02*
D03*
Y-1490D02*
D03*
M02*
