M48
;Layer_Color=9474304
;FILE_FORMAT=2:5
INCH,LZ
;TYPE=PLATED
T1F00S00C0.00787
T2F00S00C0.01181
T3F00S00C0.04000
T4F00S00C0.10000
%
T01
X-0057483Y-0038348
Y-0034017
X-0053152
Y-0038348
T02
X-0096717Y-0073883
X-0098517Y-0067283
X-0101817Y-0058483
X-0108717Y-0045483
X-0079217Y-0044283
X-0073317Y-0045583
X-0068517Y-0045883
X-0068417Y-0042283
X-0069317Y-0038383
X-0070617Y-0034483
X-0069617Y-0029783
X-0064617Y-0046083
X-0055417Y-0047783
X-0072017Y-0053183
X-0072617Y-0079883
X-0066317Y-0082483
X-0057317Y-0078383
X-0058617Y-0071883
X-0084417Y-0083983
X-0024217Y-0083383
X-0011917Y-0075483
X-0011117Y-0068783
X-0011217Y-0063983
X-0020817Y-0062583
X-0031717Y-0056283
X-0034417Y-0044583
X-0044517Y-0045583
X-0042317Y-0036183
X-0024117Y-0040383
X-0014117Y-0050883
X-0033317Y-0071383
X-0034017Y-0017783
X-0038617Y-0021683
X-0046217Y-0020183
Y-0014783
X-0037717Y-0005083
X-0027717Y-0001583
X-0026616Y0013285
X-0030425Y0014123
X-0022817Y0011417
X-0018847Y0013462
X-0014959Y0013154
X-0016419Y002439
X-002031Y0024656
X-0025629Y0024564
X-0029512Y0024204
X-0012555Y0023856
X-0008941Y0022391
X-0044517Y0034117
X-0053917Y0015517
X-0050317Y0011017
X-0057617Y0002717
X-0062817Y0005317
X-0066617Y0007617
X-0066817Y0015617
X-0066417Y0021017
X-0066017Y0027517
X-0071917Y0018917
X-0078517Y0008117
X-0096417Y0006917
X-0098417Y-0023483
X-0088617Y-0023683
X-0079617Y-0023183
X-0070814Y-0022283
X-0066117Y-0026483
X-0068017Y-0005683
X-0065017Y-0000083
X-0056517Y-0009383
T03
X-0053317Y-0098183
Y-0088183
X-0043317
X-0033317
Y-0098183
X-0043317
T04
X-0073417Y-0090283
M30
