G04 Layer_Color=8388736*
%FSLAX25Y25*%
%MOIN*%
G70*
G01*
G75*
%ADD80C,0.01000*%
D80*
X-185801Y310172D02*
X-186801Y311172D01*
X-188800D01*
X-189800Y310172D01*
Y306173D01*
X-188800Y305174D01*
X-186801D01*
X-185801Y306173D01*
X-182802Y305174D02*
X-180803D01*
X-179803Y306173D01*
Y308173D01*
X-180803Y309173D01*
X-182802D01*
X-183802Y308173D01*
Y306173D01*
X-182802Y305174D01*
X-177804D02*
Y309173D01*
X-174805D01*
X-173805Y308173D01*
Y305174D01*
X-170806Y310172D02*
Y309173D01*
X-171806D01*
X-169807D01*
X-170806D01*
Y306173D01*
X-169807Y305174D01*
X-166807Y309173D02*
Y305174D01*
Y307173D01*
X-165808Y308173D01*
X-164808Y309173D01*
X-163808D01*
X-159810Y305174D02*
X-157810D01*
X-156811Y306173D01*
Y308173D01*
X-157810Y309173D01*
X-159810D01*
X-160809Y308173D01*
Y306173D01*
X-159810Y305174D01*
X-154811D02*
X-152812D01*
X-153812D01*
Y311172D01*
X-154811D01*
X-149813Y305174D02*
X-147814D01*
X-148813D01*
Y311172D01*
X-149813D01*
X-141815Y305174D02*
X-143815D01*
X-144815Y306173D01*
Y308173D01*
X-143815Y309173D01*
X-141815D01*
X-140816Y308173D01*
Y307173D01*
X-144815D01*
X-134818Y311172D02*
Y305174D01*
X-137817D01*
X-138816Y306173D01*
Y308173D01*
X-137817Y309173D01*
X-134818D01*
X-126820Y311172D02*
X-124821D01*
X-125821D01*
Y305174D01*
X-126820D01*
X-124821D01*
X-121822D02*
Y309173D01*
X-120822D01*
X-119823Y308173D01*
Y305174D01*
Y308173D01*
X-118823Y309173D01*
X-117823Y308173D01*
Y305174D01*
X-115824Y303174D02*
Y309173D01*
X-112825D01*
X-111825Y308173D01*
Y306173D01*
X-112825Y305174D01*
X-115824D01*
X-106827D02*
X-108826D01*
X-109826Y306173D01*
Y308173D01*
X-108826Y309173D01*
X-106827D01*
X-105827Y308173D01*
Y307173D01*
X-109826D01*
X-99829Y311172D02*
Y305174D01*
X-102828D01*
X-103828Y306173D01*
Y308173D01*
X-102828Y309173D01*
X-99829D01*
X-96830D02*
X-94831D01*
X-93831Y308173D01*
Y305174D01*
X-96830D01*
X-97830Y306173D01*
X-96830Y307173D01*
X-93831D01*
X-91832Y305174D02*
Y309173D01*
X-88833D01*
X-87833Y308173D01*
Y305174D01*
X-81835Y309173D02*
X-84834D01*
X-85834Y308173D01*
Y306173D01*
X-84834Y305174D01*
X-81835D01*
X-76837D02*
X-78836D01*
X-79836Y306173D01*
Y308173D01*
X-78836Y309173D01*
X-76837D01*
X-75837Y308173D01*
Y307173D01*
X-79836D01*
X-64840Y305174D02*
Y311172D01*
X-67839Y308173D01*
X-63841D01*
X-55843Y311172D02*
Y305174D01*
X-51845D01*
X-48846Y309173D02*
X-46846D01*
X-45847Y308173D01*
Y305174D01*
X-48846D01*
X-49845Y306173D01*
X-48846Y307173D01*
X-45847D01*
X-43847Y309173D02*
Y306173D01*
X-42847Y305174D01*
X-39849D01*
Y304174D01*
X-40848Y303174D01*
X-41848D01*
X-39849Y305174D02*
Y309173D01*
X-34850Y305174D02*
X-36849D01*
X-37849Y306173D01*
Y308173D01*
X-36849Y309173D01*
X-34850D01*
X-33850Y308173D01*
Y307173D01*
X-37849D01*
X-31851Y309173D02*
Y305174D01*
Y307173D01*
X-30851Y308173D01*
X-29852Y309173D01*
X-28852D01*
X-15856Y310172D02*
X-16856Y311172D01*
X-18855D01*
X-19855Y310172D01*
Y309173D01*
X-18855Y308173D01*
X-16856D01*
X-15856Y307173D01*
Y306173D01*
X-16856Y305174D01*
X-18855D01*
X-19855Y306173D01*
X-12857Y310172D02*
Y309173D01*
X-13857D01*
X-11858D01*
X-12857D01*
Y306173D01*
X-11858Y305174D01*
X-7859Y309173D02*
X-5860D01*
X-4860Y308173D01*
Y305174D01*
X-7859D01*
X-8858Y306173D01*
X-7859Y307173D01*
X-4860D01*
X1138Y309173D02*
X-1861D01*
X-2860Y308173D01*
Y306173D01*
X-1861Y305174D01*
X1138D01*
X3138D02*
Y311172D01*
Y307173D02*
X6137Y309173D01*
X3138Y307173D02*
X6137Y305174D01*
X9136Y309173D02*
Y306173D01*
X10135Y305174D01*
X13134D01*
Y309173D01*
X15134Y303174D02*
Y309173D01*
X18133D01*
X19132Y308173D01*
Y306173D01*
X18133Y305174D01*
X15134D01*
X28130Y309173D02*
X30129D01*
X31128Y308173D01*
Y305174D01*
X28130D01*
X27130Y306173D01*
X28130Y307173D01*
X31128D01*
X33128Y305174D02*
X35127D01*
X34128D01*
Y311172D01*
X33128D01*
X38126Y305174D02*
X40126D01*
X39126D01*
Y311172D01*
X38126D01*
X49123Y305174D02*
Y309173D01*
X50122D01*
X51122Y308173D01*
Y305174D01*
Y308173D01*
X52122Y309173D01*
X53121Y308173D01*
Y305174D01*
X58120D02*
X56120D01*
X55121Y306173D01*
Y308173D01*
X56120Y309173D01*
X58120D01*
X59119Y308173D01*
Y307173D01*
X55121D01*
X62119Y309173D02*
X64118D01*
X65118Y308173D01*
Y305174D01*
X62119D01*
X61119Y306173D01*
X62119Y307173D01*
X65118D01*
X67117Y305174D02*
X70116D01*
X71116Y306173D01*
X70116Y307173D01*
X68117D01*
X67117Y308173D01*
X68117Y309173D01*
X71116D01*
X73115D02*
Y306173D01*
X74115Y305174D01*
X77114D01*
Y309173D01*
X79113D02*
Y305174D01*
Y307173D01*
X80113Y308173D01*
X81112Y309173D01*
X82112D01*
X88110Y305174D02*
X86111D01*
X85111Y306173D01*
Y308173D01*
X86111Y309173D01*
X88110D01*
X89110Y308173D01*
Y307173D01*
X85111D01*
X91109Y305174D02*
Y309173D01*
X92109D01*
X93108Y308173D01*
Y305174D01*
Y308173D01*
X94108Y309173D01*
X95108Y308173D01*
Y305174D01*
X100106D02*
X98107D01*
X97107Y306173D01*
Y308173D01*
X98107Y309173D01*
X100106D01*
X101106Y308173D01*
Y307173D01*
X97107D01*
X103105Y305174D02*
Y309173D01*
X106104D01*
X107104Y308173D01*
Y305174D01*
X110103Y310172D02*
Y309173D01*
X109103D01*
X111103D01*
X110103D01*
Y306173D01*
X111103Y305174D01*
X114102D02*
X117101D01*
X118100Y306173D01*
X117101Y307173D01*
X115101D01*
X114102Y308173D01*
X115101Y309173D01*
X118100D01*
X126098Y305174D02*
X128097D01*
X127097D01*
Y309173D01*
X126098D01*
X131096Y305174D02*
Y309173D01*
X134095D01*
X135095Y308173D01*
Y305174D01*
X145092D02*
X143092D01*
Y311172D01*
X145092D01*
X148091Y305174D02*
Y309173D01*
X149090D01*
X150090Y308173D01*
Y305174D01*
Y308173D01*
X151090Y309173D01*
X152089Y308173D01*
Y305174D01*
X154089D02*
Y309173D01*
X155088D01*
X156088Y308173D01*
Y305174D01*
Y308173D01*
X157088Y309173D01*
X158087Y308173D01*
Y305174D01*
X160087D02*
X162086D01*
Y311172D01*
X160087D01*
X-189800Y299575D02*
X-185801D01*
X-187801D01*
Y293577D01*
X-182802D02*
X-180803D01*
X-179803Y294577D01*
Y296576D01*
X-180803Y297575D01*
X-182802D01*
X-183802Y296576D01*
Y294577D01*
X-182802Y293577D01*
X-177804Y291578D02*
Y297575D01*
X-174805D01*
X-173805Y296576D01*
Y294577D01*
X-174805Y293577D01*
X-177804D01*
X-165808Y299575D02*
Y293577D01*
X-161809D01*
X-158810Y297575D02*
X-156811D01*
X-155811Y296576D01*
Y293577D01*
X-158810D01*
X-159810Y294577D01*
X-158810Y295576D01*
X-155811D01*
X-153812Y297575D02*
Y294577D01*
X-152812Y293577D01*
X-149813D01*
Y292577D01*
X-150813Y291578D01*
X-151812D01*
X-149813Y293577D02*
Y297575D01*
X-144815Y293577D02*
X-146814D01*
X-147814Y294577D01*
Y296576D01*
X-146814Y297575D01*
X-144815D01*
X-143815Y296576D01*
Y295576D01*
X-147814D01*
X-141815Y297575D02*
Y293577D01*
Y295576D01*
X-140816Y296576D01*
X-139816Y297575D01*
X-138816D01*
X-129819Y296576D02*
X-125821D01*
X-117823Y298575D02*
X-116824Y299575D01*
X-114824D01*
X-113825Y298575D01*
Y294577D01*
X-114824Y293577D01*
X-116824D01*
X-117823Y294577D01*
Y298575D01*
X-111825Y293577D02*
Y294577D01*
X-110826D01*
Y293577D01*
X-111825D01*
X-106827Y298575D02*
X-105827Y299575D01*
X-103828D01*
X-102828Y298575D01*
Y294577D01*
X-103828Y293577D01*
X-105827D01*
X-106827Y294577D01*
Y298575D01*
X-100829D02*
X-99829Y299575D01*
X-97830D01*
X-96830Y298575D01*
Y297575D01*
X-97830Y296576D01*
X-98829D01*
X-97830D01*
X-96830Y295576D01*
Y294577D01*
X-97830Y293577D01*
X-99829D01*
X-100829Y294577D01*
X-90832Y299575D02*
X-94831D01*
Y296576D01*
X-92831Y297575D01*
X-91832D01*
X-90832Y296576D01*
Y294577D01*
X-91832Y293577D01*
X-93831D01*
X-94831Y294577D01*
X-189800Y281980D02*
Y287978D01*
X-186801D01*
X-185801Y286978D01*
Y284979D01*
X-186801Y283979D01*
X-189800D01*
X-183802Y285979D02*
Y281980D01*
Y283979D01*
X-182802Y284979D01*
X-181803Y285979D01*
X-180803D01*
X-174805Y281980D02*
X-176804D01*
X-177804Y282979D01*
Y284979D01*
X-176804Y285979D01*
X-174805D01*
X-173805Y284979D01*
Y283979D01*
X-177804D01*
X-171806Y281980D02*
Y287978D01*
X-168807D01*
X-167807Y286978D01*
Y284979D01*
X-168807Y283979D01*
X-171806D01*
X-165808Y285979D02*
Y281980D01*
Y283979D01*
X-164808Y284979D01*
X-163808Y285979D01*
X-162809D01*
X-156811Y281980D02*
X-158810D01*
X-159810Y282979D01*
Y284979D01*
X-158810Y285979D01*
X-156811D01*
X-155811Y284979D01*
Y283979D01*
X-159810D01*
X-151812Y279980D02*
X-150813D01*
X-149813Y280980D01*
Y285979D01*
X-152812D01*
X-153812Y284979D01*
Y282979D01*
X-152812Y281980D01*
X-149813D01*
X-141815Y284979D02*
X-137817D01*
X-129819Y286978D02*
X-128820Y287978D01*
X-126820D01*
X-125821Y286978D01*
Y282979D01*
X-126820Y281980D01*
X-128820D01*
X-129819Y282979D01*
Y286978D01*
X-123821Y281980D02*
Y282979D01*
X-122822D01*
Y281980D01*
X-123821D01*
X-114824D02*
X-118823D01*
X-114824Y285979D01*
Y286978D01*
X-115824Y287978D01*
X-117823D01*
X-118823Y286978D01*
X-112825D02*
X-111825Y287978D01*
X-109826D01*
X-108826Y286978D01*
Y285979D01*
X-109826Y284979D01*
X-110826D01*
X-109826D01*
X-108826Y283979D01*
Y282979D01*
X-109826Y281980D01*
X-111825D01*
X-112825Y282979D01*
X-189800Y276381D02*
X-187801D01*
X-188800D01*
Y270383D01*
X-189800D01*
X-187801D01*
X-184802D02*
Y274381D01*
X-181803D01*
X-180803Y273382D01*
Y270383D01*
X-178804D02*
Y274381D01*
X-175804D01*
X-174805Y273382D01*
Y270383D01*
X-169807D02*
X-171806D01*
X-172806Y271382D01*
Y273382D01*
X-171806Y274381D01*
X-169807D01*
X-168807Y273382D01*
Y272382D01*
X-172806D01*
X-166807Y274381D02*
Y270383D01*
Y272382D01*
X-165808Y273382D01*
X-164808Y274381D01*
X-163808D01*
X-154811Y276381D02*
Y270383D01*
X-150813D01*
X-147814Y274381D02*
X-145814D01*
X-144815Y273382D01*
Y270383D01*
X-147814D01*
X-148813Y271382D01*
X-147814Y272382D01*
X-144815D01*
X-142815Y274381D02*
Y271382D01*
X-141815Y270383D01*
X-138816D01*
Y269383D01*
X-139816Y268383D01*
X-140816D01*
X-138816Y270383D02*
Y274381D01*
X-133818Y270383D02*
X-135818D01*
X-136817Y271382D01*
Y273382D01*
X-135818Y274381D01*
X-133818D01*
X-132818Y273382D01*
Y272382D01*
X-136817D01*
X-130819Y274381D02*
Y270383D01*
Y272382D01*
X-129819Y273382D01*
X-128820Y274381D01*
X-127820D01*
X-118823Y270383D02*
X-116824D01*
X-117823D01*
Y276381D01*
X-118823Y275381D01*
X-107826Y273382D02*
X-103828D01*
X-95830Y275381D02*
X-94831Y276381D01*
X-92831D01*
X-91832Y275381D01*
Y271382D01*
X-92831Y270383D01*
X-94831D01*
X-95830Y271382D01*
Y275381D01*
X-89832Y270383D02*
Y271382D01*
X-88833D01*
Y270383D01*
X-89832D01*
X-84834Y275381D02*
X-83834Y276381D01*
X-81835D01*
X-80835Y275381D01*
Y271382D01*
X-81835Y270383D01*
X-83834D01*
X-84834Y271382D01*
Y275381D01*
X-78836D02*
X-77836Y276381D01*
X-75837D01*
X-74837Y275381D01*
Y274381D01*
X-75837Y273382D01*
X-76837D01*
X-75837D01*
X-74837Y272382D01*
Y271382D01*
X-75837Y270383D01*
X-77836D01*
X-78836Y271382D01*
X-68839Y276381D02*
X-72838D01*
Y273382D01*
X-70838Y274381D01*
X-69839D01*
X-68839Y273382D01*
Y271382D01*
X-69839Y270383D01*
X-71838D01*
X-72838Y271382D01*
X-185801Y263784D02*
X-186801Y264784D01*
X-188800D01*
X-189800Y263784D01*
Y259785D01*
X-188800Y258786D01*
X-186801D01*
X-185801Y259785D01*
X-182802Y258786D02*
X-180803D01*
X-179803Y259785D01*
Y261785D01*
X-180803Y262785D01*
X-182802D01*
X-183802Y261785D01*
Y259785D01*
X-182802Y258786D01*
X-177804Y262785D02*
Y258786D01*
Y260785D01*
X-176804Y261785D01*
X-175804Y262785D01*
X-174805D01*
X-168807Y258786D02*
X-170806D01*
X-171806Y259785D01*
Y261785D01*
X-170806Y262785D01*
X-168807D01*
X-167807Y261785D01*
Y260785D01*
X-171806D01*
X-159810Y261785D02*
X-155811D01*
X-147814Y263784D02*
X-146814Y264784D01*
X-144815D01*
X-143815Y263784D01*
Y259785D01*
X-144815Y258786D01*
X-146814D01*
X-147814Y259785D01*
Y263784D01*
X-141815Y258786D02*
Y259785D01*
X-140816D01*
Y258786D01*
X-141815D01*
X-136817Y259785D02*
X-135818Y258786D01*
X-133818D01*
X-132818Y259785D01*
Y263784D01*
X-133818Y264784D01*
X-135818D01*
X-136817Y263784D01*
Y262785D01*
X-135818Y261785D01*
X-132818D01*
X-130819Y263784D02*
X-129819Y264784D01*
X-127820D01*
X-126820Y263784D01*
Y262785D01*
X-127820Y261785D01*
X-128820D01*
X-127820D01*
X-126820Y260785D01*
Y259785D01*
X-127820Y258786D01*
X-129819D01*
X-130819Y259785D01*
X-189800Y255186D02*
X-187801D01*
X-188800D01*
Y249188D01*
X-189800D01*
X-187801D01*
X-184802D02*
Y253187D01*
X-181803D01*
X-180803Y252187D01*
Y249188D01*
X-178804D02*
Y253187D01*
X-175804D01*
X-174805Y252187D01*
Y249188D01*
X-169807D02*
X-171806D01*
X-172806Y250188D01*
Y252187D01*
X-171806Y253187D01*
X-169807D01*
X-168807Y252187D01*
Y251187D01*
X-172806D01*
X-166807Y253187D02*
Y249188D01*
Y251187D01*
X-165808Y252187D01*
X-164808Y253187D01*
X-163808D01*
X-154811Y255186D02*
Y249188D01*
X-150813D01*
X-147814Y253187D02*
X-145814D01*
X-144815Y252187D01*
Y249188D01*
X-147814D01*
X-148813Y250188D01*
X-147814Y251187D01*
X-144815D01*
X-142815Y253187D02*
Y250188D01*
X-141815Y249188D01*
X-138816D01*
Y248188D01*
X-139816Y247189D01*
X-140816D01*
X-138816Y249188D02*
Y253187D01*
X-133818Y249188D02*
X-135818D01*
X-136817Y250188D01*
Y252187D01*
X-135818Y253187D01*
X-133818D01*
X-132818Y252187D01*
Y251187D01*
X-136817D01*
X-130819Y253187D02*
Y249188D01*
Y251187D01*
X-129819Y252187D01*
X-128820Y253187D01*
X-127820D01*
X-114824Y249188D02*
X-118823D01*
X-114824Y253187D01*
Y254187D01*
X-115824Y255186D01*
X-117823D01*
X-118823Y254187D01*
X-106827Y252187D02*
X-102828D01*
X-94831Y254187D02*
X-93831Y255186D01*
X-91832D01*
X-90832Y254187D01*
Y250188D01*
X-91832Y249188D01*
X-93831D01*
X-94831Y250188D01*
Y254187D01*
X-88833Y249188D02*
Y250188D01*
X-87833D01*
Y249188D01*
X-88833D01*
X-83834Y254187D02*
X-82835Y255186D01*
X-80835D01*
X-79836Y254187D01*
Y250188D01*
X-80835Y249188D01*
X-82835D01*
X-83834Y250188D01*
Y254187D01*
X-77836D02*
X-76837Y255186D01*
X-74837D01*
X-73838Y254187D01*
Y253187D01*
X-74837Y252187D01*
X-75837D01*
X-74837D01*
X-73838Y251187D01*
Y250188D01*
X-74837Y249188D01*
X-76837D01*
X-77836Y250188D01*
X-67839Y255186D02*
X-71838D01*
Y252187D01*
X-69839Y253187D01*
X-68839D01*
X-67839Y252187D01*
Y250188D01*
X-68839Y249188D01*
X-70838D01*
X-71838Y250188D01*
X-189800Y237591D02*
Y243589D01*
X-186801D01*
X-185801Y242589D01*
Y240590D01*
X-186801Y239590D01*
X-189800D01*
X-183802Y241590D02*
Y237591D01*
Y239590D01*
X-182802Y240590D01*
X-181803Y241590D01*
X-180803D01*
X-174805Y237591D02*
X-176804D01*
X-177804Y238591D01*
Y240590D01*
X-176804Y241590D01*
X-174805D01*
X-173805Y240590D01*
Y239590D01*
X-177804D01*
X-171806Y237591D02*
Y243589D01*
X-168807D01*
X-167807Y242589D01*
Y240590D01*
X-168807Y239590D01*
X-171806D01*
X-165808Y241590D02*
Y237591D01*
Y239590D01*
X-164808Y240590D01*
X-163808Y241590D01*
X-162809D01*
X-156811Y237591D02*
X-158810D01*
X-159810Y238591D01*
Y240590D01*
X-158810Y241590D01*
X-156811D01*
X-155811Y240590D01*
Y239590D01*
X-159810D01*
X-151812Y235592D02*
X-150813D01*
X-149813Y236591D01*
Y241590D01*
X-152812D01*
X-153812Y240590D01*
Y238591D01*
X-152812Y237591D01*
X-149813D01*
X-141815Y240590D02*
X-137817D01*
X-129819Y242589D02*
X-128820Y243589D01*
X-126820D01*
X-125821Y242589D01*
Y238591D01*
X-126820Y237591D01*
X-128820D01*
X-129819Y238591D01*
Y242589D01*
X-123821Y237591D02*
Y238591D01*
X-122822D01*
Y237591D01*
X-123821D01*
X-114824D02*
X-118823D01*
X-114824Y241590D01*
Y242589D01*
X-115824Y243589D01*
X-117823D01*
X-118823Y242589D01*
X-112825D02*
X-111825Y243589D01*
X-109826D01*
X-108826Y242589D01*
Y241590D01*
X-109826Y240590D01*
X-110826D01*
X-109826D01*
X-108826Y239590D01*
Y238591D01*
X-109826Y237591D01*
X-111825D01*
X-112825Y238591D01*
X-189800Y231992D02*
Y225994D01*
X-186801D01*
X-185801Y226994D01*
Y227993D01*
X-186801Y228993D01*
X-189800D01*
X-186801D01*
X-185801Y229993D01*
Y230992D01*
X-186801Y231992D01*
X-189800D01*
X-182802Y225994D02*
X-180803D01*
X-179803Y226994D01*
Y228993D01*
X-180803Y229993D01*
X-182802D01*
X-183802Y228993D01*
Y226994D01*
X-182802Y225994D01*
X-176804Y230992D02*
Y229993D01*
X-177804D01*
X-175804D01*
X-176804D01*
Y226994D01*
X-175804Y225994D01*
X-171806Y230992D02*
Y229993D01*
X-172806D01*
X-170806D01*
X-171806D01*
Y226994D01*
X-170806Y225994D01*
X-166807D02*
X-164808D01*
X-163808Y226994D01*
Y228993D01*
X-164808Y229993D01*
X-166807D01*
X-167807Y228993D01*
Y226994D01*
X-166807Y225994D01*
X-161809D02*
Y229993D01*
X-160809D01*
X-159810Y228993D01*
Y225994D01*
Y228993D01*
X-158810Y229993D01*
X-157810Y228993D01*
Y225994D01*
X-149813Y231992D02*
Y225994D01*
X-145814D01*
X-142815Y229993D02*
X-140816D01*
X-139816Y228993D01*
Y225994D01*
X-142815D01*
X-143815Y226994D01*
X-142815Y227993D01*
X-139816D01*
X-137817Y229993D02*
Y226994D01*
X-136817Y225994D01*
X-133818D01*
Y224994D01*
X-134818Y223995D01*
X-135818D01*
X-133818Y225994D02*
Y229993D01*
X-128820Y225994D02*
X-130819D01*
X-131819Y226994D01*
Y228993D01*
X-130819Y229993D01*
X-128820D01*
X-127820Y228993D01*
Y227993D01*
X-131819D01*
X-125821Y229993D02*
Y225994D01*
Y227993D01*
X-124821Y228993D01*
X-123821Y229993D01*
X-122822D01*
X-107826Y228993D02*
X-103828D01*
X-95830Y230992D02*
X-94831Y231992D01*
X-92831D01*
X-91832Y230992D01*
Y226994D01*
X-92831Y225994D01*
X-94831D01*
X-95830Y226994D01*
Y230992D01*
X-89832Y225994D02*
Y226994D01*
X-88833D01*
Y225994D01*
X-89832D01*
X-84834Y230992D02*
X-83834Y231992D01*
X-81835D01*
X-80835Y230992D01*
Y226994D01*
X-81835Y225994D01*
X-83834D01*
X-84834Y226994D01*
Y230992D01*
X-78836D02*
X-77836Y231992D01*
X-75837D01*
X-74837Y230992D01*
Y229993D01*
X-75837Y228993D01*
X-76837D01*
X-75837D01*
X-74837Y227993D01*
Y226994D01*
X-75837Y225994D01*
X-77836D01*
X-78836Y226994D01*
X-68839Y231992D02*
X-72838D01*
Y228993D01*
X-70838Y229993D01*
X-69839D01*
X-68839Y228993D01*
Y226994D01*
X-69839Y225994D01*
X-71838D01*
X-72838Y226994D01*
X-189800Y204799D02*
X-187801D01*
X-188800D01*
Y210797D01*
X-189800Y209798D01*
X-177804Y204799D02*
X-175804D01*
X-174805Y205799D01*
Y207798D01*
X-175804Y208798D01*
X-177804D01*
X-178804Y207798D01*
Y205799D01*
X-177804Y204799D01*
X-172806Y208798D02*
X-168807D01*
X-172806Y204799D01*
X-168807D01*
X-156811Y209798D02*
X-157810Y210797D01*
X-159810D01*
X-160809Y209798D01*
Y205799D01*
X-159810Y204799D01*
X-157810D01*
X-156811Y205799D01*
X-153812Y204799D02*
X-151812D01*
X-150813Y205799D01*
Y207798D01*
X-151812Y208798D01*
X-153812D01*
X-154811Y207798D01*
Y205799D01*
X-153812Y204799D01*
X-148813Y202800D02*
Y208798D01*
X-145814D01*
X-144815Y207798D01*
Y205799D01*
X-145814Y204799D01*
X-148813D01*
X-142815Y202800D02*
Y208798D01*
X-139816D01*
X-138816Y207798D01*
Y205799D01*
X-139816Y204799D01*
X-142815D01*
X-133818D02*
X-135818D01*
X-136817Y205799D01*
Y207798D01*
X-135818Y208798D01*
X-133818D01*
X-132818Y207798D01*
Y206799D01*
X-136817D01*
X-130819Y208798D02*
Y204799D01*
Y206799D01*
X-129819Y207798D01*
X-128820Y208798D01*
X-127820D01*
X-117823D02*
X-115824D01*
X-114824Y207798D01*
Y204799D01*
X-117823D01*
X-118823Y205799D01*
X-117823Y206799D01*
X-114824D01*
X-112825Y204799D02*
X-110826D01*
X-111825D01*
Y210797D01*
X-112825D01*
X-107826Y204799D02*
X-105827D01*
X-106827D01*
Y210797D01*
X-107826D01*
X-96830Y204799D02*
X-94831D01*
X-95830D01*
Y210797D01*
X-96830D01*
X-90832Y208798D02*
X-88833D01*
X-87833Y207798D01*
Y204799D01*
X-90832D01*
X-91832Y205799D01*
X-90832Y206799D01*
X-87833D01*
X-85834Y208798D02*
Y205799D01*
X-84834Y204799D01*
X-81835D01*
Y203800D01*
X-82835Y202800D01*
X-83834D01*
X-81835Y204799D02*
Y208798D01*
X-76837Y204799D02*
X-78836D01*
X-79836Y205799D01*
Y207798D01*
X-78836Y208798D01*
X-76837D01*
X-75837Y207798D01*
Y206799D01*
X-79836D01*
X-73838Y208798D02*
Y204799D01*
Y206799D01*
X-72838Y207798D01*
X-71838Y208798D01*
X-70838D01*
X-67839Y204799D02*
X-64840D01*
X-63841Y205799D01*
X-64840Y206799D01*
X-66840D01*
X-67839Y207798D01*
X-66840Y208798D01*
X-63841D01*
M02*
