M48
;Layer_Color=9474304
;FILE_FORMAT=2:5
INCH,LZ
;TYPE=PLATED
T2F00S00C0.01181
%
T02
X-0065817Y-0094683
X-0055817Y-0074683
X-0050817Y-0064683
X-0055817Y-0054683
X-0050817Y-0044683
X-0060817
X-0070817Y-0064683
X-0075817Y-0074683
X-0085817
Y-0054683
X-0095817
X-0105817
X-0100817Y-0044683
X-0090817
X-0105817Y-0034683
X-0035817
X-0015817
X-0005817
X0004183
Y-0054683
X0014183
X0019183Y-0044683
X0009183Y-0064683
X-0000817
X-0005817Y-0054683
X-0015817
X-0010817Y-0044683
X-0005817Y-0074683
X-0015817
X-0010817Y-0084683
X-0000817
X-0020817
X-0015817Y-0094683
X-0025817
X-0035817Y-0074683
X-0045817
Y-0054683
X-0035817
X-0030817Y-0064683
Y-0024683
X-0020817
X-0010817
X-0000817
X-0015817Y-0014683
X-0025817
X-0035817
X-0030817Y-0004683
X-0020817
X-0025817Y0005317
X-0035817
X-0040817Y0015317
X-0035817Y0025317
X-0045817
X-0055817
X-0060817Y0015317
Y-0004683
X-0050817
X-0055817Y-0014683
X-0050817Y-0024683
X-0060817
X-0085817Y-0014683
X-0095817
X-0105817
X-0100817Y-0004683
X-0090817Y0015317
X-0080817
X-0075817Y0025317
M30
