G04 Layer_Color=16711935*
%FSLAX25Y25*%
%MOIN*%
G70*
G01*
G75*
%ADD44C,0.00000*%
%ADD45C,0.00787*%
%ADD49C,0.00500*%
%ADD82C,0.01000*%
%ADD83C,0.00200*%
%ADD84C,0.00197*%
G36*
X-100017Y-47683D02*
X-103426D01*
Y-44883D01*
X-100017D01*
Y-47683D01*
D02*
G37*
G36*
X-92117Y-51383D02*
X-93854D01*
Y-49402D01*
X-92117D01*
Y-51383D01*
D02*
G37*
G36*
X-100017Y-55083D02*
X-103342D01*
Y-53845D01*
X-100017D01*
Y-55083D01*
D02*
G37*
G36*
X-89242Y1561D02*
X-91548D01*
Y3357D01*
X-89242D01*
Y1561D01*
D02*
G37*
G36*
X-97154Y-2144D02*
X-99448D01*
Y-343D01*
X-97154D01*
Y-2144D01*
D02*
G37*
G36*
X-89231Y-5858D02*
X-91548D01*
Y-4042D01*
X-89231D01*
Y-5858D01*
D02*
G37*
D44*
X-82617Y-59383D02*
G03*
X-80217Y-59383I1200J0D01*
G01*
X-14217Y-71183D02*
Y-54783D01*
X-30617Y-71183D02*
X-14217D01*
X-30617D02*
Y-54783D01*
X-14217D01*
X-30617Y-67383D02*
Y-66183D01*
Y-64883D02*
Y-63683D01*
Y-62283D02*
Y-61083D01*
Y-59783D02*
Y-58583D01*
X-26817Y-54783D02*
X-25617D01*
X-24317D02*
X-23117D01*
X-21717D02*
X-20517D01*
X-19217D02*
X-18017D01*
X-14217Y-59783D02*
Y-58583D01*
Y-62283D02*
Y-61083D01*
Y-64883D02*
Y-63683D01*
Y-67383D02*
Y-66183D01*
X-19217Y-71183D02*
X-18017D01*
X-21717D02*
X-20517D01*
X-24317D02*
X-23117D01*
X-26817D02*
X-25617D01*
X-19217D02*
X-14217Y-66183D01*
X-84217Y-67783D02*
X-78617D01*
Y-66683D01*
Y-65583D01*
Y-64183D01*
Y-62983D01*
Y-61583D01*
X-80217Y-59383D02*
X-78617D01*
X-82617D02*
X-80217D01*
X-84217D02*
X-82617D01*
X-84217Y-60483D02*
Y-59383D01*
Y-61583D02*
Y-60483D01*
Y-62983D02*
Y-61583D01*
Y-64183D02*
Y-62983D01*
Y-65583D02*
Y-64183D01*
X-86117Y-60483D02*
X-84217D01*
X-86117Y-61583D02*
Y-60483D01*
Y-61583D02*
X-84217D01*
X-86117Y-62983D02*
X-84217D01*
X-86117Y-64183D02*
Y-62983D01*
Y-64183D02*
X-84217D01*
Y-67783D02*
Y-66683D01*
Y-65583D01*
X-86117D02*
X-84217D01*
X-86117Y-66683D02*
Y-65583D01*
Y-66683D02*
X-84217D01*
X-78617D02*
X-76717D01*
Y-65583D01*
X-78617D02*
X-76717D01*
X-78617Y-64183D02*
X-76717D01*
Y-62983D01*
X-78617D02*
X-76717D01*
X-78617Y-60483D02*
Y-59383D01*
Y-61583D02*
Y-60483D01*
Y-61583D02*
X-76717D01*
Y-60483D01*
X-78617D02*
X-76717D01*
D45*
X-64483Y-20954D02*
G03*
X-64483Y-20954I-394J0D01*
G01*
X-52668Y-4730D02*
G03*
X-52668Y-4730I-394J0D01*
G01*
D49*
X-99776Y-56191D02*
X-97808D01*
X-99776D02*
Y-51467D01*
Y-49498D02*
Y-44774D01*
X-97808D01*
X-94658Y-53435D02*
Y-47530D01*
X-66254Y-16033D02*
X-58380D01*
Y-22332D02*
Y-16033D01*
X-66254Y-22332D02*
X-58380D01*
X-66254D02*
Y-16033D01*
X-54439Y191D02*
X-46565D01*
Y-6108D02*
Y191D01*
X-54439Y-6108D02*
X-46565D01*
X-54439D02*
Y191D01*
D82*
X24081Y307789D02*
X23082Y308789D01*
X21082D01*
X20083Y307789D01*
Y303791D01*
X21082Y302791D01*
X23082D01*
X24081Y303791D01*
X27080Y302791D02*
X29080D01*
X30079Y303791D01*
Y305790D01*
X29080Y306790D01*
X27080D01*
X26081Y305790D01*
Y303791D01*
X27080Y302791D01*
X32079D02*
Y306790D01*
X35078D01*
X36077Y305790D01*
Y302791D01*
X39077Y307789D02*
Y306790D01*
X38077D01*
X40076D01*
X39077D01*
Y303791D01*
X40076Y302791D01*
X43075Y306790D02*
Y302791D01*
Y304790D01*
X44075Y305790D01*
X45075Y306790D01*
X46074D01*
X50073Y302791D02*
X52072D01*
X53072Y303791D01*
Y305790D01*
X52072Y306790D01*
X50073D01*
X49073Y305790D01*
Y303791D01*
X50073Y302791D01*
X55071D02*
X57071D01*
X56071D01*
Y308789D01*
X55071D01*
X60070Y302791D02*
X62069D01*
X61069D01*
Y308789D01*
X60070D01*
X68067Y302791D02*
X66068D01*
X65068Y303791D01*
Y305790D01*
X66068Y306790D01*
X68067D01*
X69067Y305790D01*
Y304790D01*
X65068D01*
X75065Y308789D02*
Y302791D01*
X72066D01*
X71066Y303791D01*
Y305790D01*
X72066Y306790D01*
X75065D01*
X83062Y308789D02*
X85062D01*
X84062D01*
Y302791D01*
X83062D01*
X85062D01*
X88061D02*
Y306790D01*
X89060D01*
X90060Y305790D01*
Y302791D01*
Y305790D01*
X91060Y306790D01*
X92059Y305790D01*
Y302791D01*
X94059Y300792D02*
Y306790D01*
X97058D01*
X98057Y305790D01*
Y303791D01*
X97058Y302791D01*
X94059D01*
X103056D02*
X101057D01*
X100057Y303791D01*
Y305790D01*
X101057Y306790D01*
X103056D01*
X104056Y305790D01*
Y304790D01*
X100057D01*
X110054Y308789D02*
Y302791D01*
X107054D01*
X106055Y303791D01*
Y305790D01*
X107054Y306790D01*
X110054D01*
X113053D02*
X115052D01*
X116052Y305790D01*
Y302791D01*
X113053D01*
X112053Y303791D01*
X113053Y304790D01*
X116052D01*
X118051Y302791D02*
Y306790D01*
X121050D01*
X122050Y305790D01*
Y302791D01*
X128048Y306790D02*
X125049D01*
X124049Y305790D01*
Y303791D01*
X125049Y302791D01*
X128048D01*
X133046D02*
X131047D01*
X130047Y303791D01*
Y305790D01*
X131047Y306790D01*
X133046D01*
X134046Y305790D01*
Y304790D01*
X130047D01*
X145042Y302791D02*
Y308789D01*
X142043Y305790D01*
X146042D01*
X154039Y308789D02*
Y302791D01*
X158038D01*
X161037Y306790D02*
X163036D01*
X164036Y305790D01*
Y302791D01*
X161037D01*
X160037Y303791D01*
X161037Y304790D01*
X164036D01*
X166035Y306790D02*
Y303791D01*
X167035Y302791D01*
X170034D01*
Y301792D01*
X169035Y300792D01*
X168035D01*
X170034Y302791D02*
Y306790D01*
X175032Y302791D02*
X173033D01*
X172034Y303791D01*
Y305790D01*
X173033Y306790D01*
X175032D01*
X176032Y305790D01*
Y304790D01*
X172034D01*
X178032Y306790D02*
Y302791D01*
Y304790D01*
X179031Y305790D01*
X180031Y306790D01*
X181031D01*
X194026Y307789D02*
X193027Y308789D01*
X191027D01*
X190028Y307789D01*
Y306790D01*
X191027Y305790D01*
X193027D01*
X194026Y304790D01*
Y303791D01*
X193027Y302791D01*
X191027D01*
X190028Y303791D01*
X197025Y307789D02*
Y306790D01*
X196026D01*
X198025D01*
X197025D01*
Y303791D01*
X198025Y302791D01*
X202024Y306790D02*
X204023D01*
X205023Y305790D01*
Y302791D01*
X202024D01*
X201024Y303791D01*
X202024Y304790D01*
X205023D01*
X211021Y306790D02*
X208022D01*
X207022Y305790D01*
Y303791D01*
X208022Y302791D01*
X211021D01*
X213020D02*
Y308789D01*
Y304790D02*
X216019Y306790D01*
X213020Y304790D02*
X216019Y302791D01*
X219018Y306790D02*
Y303791D01*
X220018Y302791D01*
X223017D01*
Y306790D01*
X225016Y300792D02*
Y306790D01*
X228015D01*
X229015Y305790D01*
Y303791D01*
X228015Y302791D01*
X225016D01*
X238012Y306790D02*
X240012D01*
X241011Y305790D01*
Y302791D01*
X238012D01*
X237013Y303791D01*
X238012Y304790D01*
X241011D01*
X243011Y302791D02*
X245010D01*
X244010D01*
Y308789D01*
X243011D01*
X248009Y302791D02*
X250008D01*
X249009D01*
Y308789D01*
X248009D01*
X259005Y302791D02*
Y306790D01*
X260005D01*
X261005Y305790D01*
Y302791D01*
Y305790D01*
X262004Y306790D01*
X263004Y305790D01*
Y302791D01*
X268003D02*
X266003D01*
X265003Y303791D01*
Y305790D01*
X266003Y306790D01*
X268003D01*
X269002Y305790D01*
Y304790D01*
X265003D01*
X272001Y306790D02*
X274001D01*
X275000Y305790D01*
Y302791D01*
X272001D01*
X271002Y303791D01*
X272001Y304790D01*
X275000D01*
X277000Y302791D02*
X279999D01*
X280998Y303791D01*
X279999Y304790D01*
X277999D01*
X277000Y305790D01*
X277999Y306790D01*
X280998D01*
X282998D02*
Y303791D01*
X283997Y302791D01*
X286996D01*
Y306790D01*
X288996D02*
Y302791D01*
Y304790D01*
X289995Y305790D01*
X290995Y306790D01*
X291995D01*
X297993Y302791D02*
X295993D01*
X294994Y303791D01*
Y305790D01*
X295993Y306790D01*
X297993D01*
X298992Y305790D01*
Y304790D01*
X294994D01*
X300992Y302791D02*
Y306790D01*
X301992D01*
X302991Y305790D01*
Y302791D01*
Y305790D01*
X303991Y306790D01*
X304991Y305790D01*
Y302791D01*
X309989D02*
X307990D01*
X306990Y303791D01*
Y305790D01*
X307990Y306790D01*
X309989D01*
X310989Y305790D01*
Y304790D01*
X306990D01*
X312988Y302791D02*
Y306790D01*
X315987D01*
X316987Y305790D01*
Y302791D01*
X319986Y307789D02*
Y306790D01*
X318986D01*
X320985D01*
X319986D01*
Y303791D01*
X320985Y302791D01*
X323984D02*
X326983D01*
X327983Y303791D01*
X326983Y304790D01*
X324984D01*
X323984Y305790D01*
X324984Y306790D01*
X327983D01*
X335981Y302791D02*
X337980D01*
X336980D01*
Y306790D01*
X335981D01*
X340979Y302791D02*
Y306790D01*
X343978D01*
X344978Y305790D01*
Y302791D01*
X354974D02*
X352975D01*
Y308789D01*
X354974D01*
X357973Y302791D02*
Y306790D01*
X358973D01*
X359973Y305790D01*
Y302791D01*
Y305790D01*
X360972Y306790D01*
X361972Y305790D01*
Y302791D01*
X363971D02*
Y306790D01*
X364971D01*
X365971Y305790D01*
Y302791D01*
Y305790D01*
X366970Y306790D01*
X367970Y305790D01*
Y302791D01*
X369970D02*
X371969D01*
Y308789D01*
X369970D01*
X20083Y297192D02*
X24081D01*
X22082D01*
Y291194D01*
X27080D02*
X29080D01*
X30079Y292194D01*
Y294193D01*
X29080Y295193D01*
X27080D01*
X26081Y294193D01*
Y292194D01*
X27080Y291194D01*
X32079Y289195D02*
Y295193D01*
X35078D01*
X36077Y294193D01*
Y292194D01*
X35078Y291194D01*
X32079D01*
X44075Y297192D02*
Y291194D01*
X48074D01*
X51073Y295193D02*
X53072D01*
X54072Y294193D01*
Y291194D01*
X51073D01*
X50073Y292194D01*
X51073Y293194D01*
X54072D01*
X56071Y295193D02*
Y292194D01*
X57071Y291194D01*
X60070D01*
Y290195D01*
X59070Y289195D01*
X58070D01*
X60070Y291194D02*
Y295193D01*
X65068Y291194D02*
X63069D01*
X62069Y292194D01*
Y294193D01*
X63069Y295193D01*
X65068D01*
X66068Y294193D01*
Y293194D01*
X62069D01*
X68067Y295193D02*
Y291194D01*
Y293194D01*
X69067Y294193D01*
X70066Y295193D01*
X71066D01*
X80063Y294193D02*
X84062D01*
X92059Y296193D02*
X93059Y297192D01*
X95058D01*
X96058Y296193D01*
Y292194D01*
X95058Y291194D01*
X93059D01*
X92059Y292194D01*
Y296193D01*
X98058Y291194D02*
Y292194D01*
X99057D01*
Y291194D01*
X98058D01*
X103056Y296193D02*
X104056Y297192D01*
X106055D01*
X107054Y296193D01*
Y292194D01*
X106055Y291194D01*
X104056D01*
X103056Y292194D01*
Y296193D01*
X109054D02*
X110054Y297192D01*
X112053D01*
X113053Y296193D01*
Y295193D01*
X112053Y294193D01*
X111053D01*
X112053D01*
X113053Y293194D01*
Y292194D01*
X112053Y291194D01*
X110054D01*
X109054Y292194D01*
X119051Y297192D02*
X115052D01*
Y294193D01*
X117051Y295193D01*
X118051D01*
X119051Y294193D01*
Y292194D01*
X118051Y291194D01*
X116052D01*
X115052Y292194D01*
X20083Y279597D02*
Y285595D01*
X23082D01*
X24081Y284595D01*
Y282596D01*
X23082Y281596D01*
X20083D01*
X26081Y283596D02*
Y279597D01*
Y281596D01*
X27080Y282596D01*
X28080Y283596D01*
X29080D01*
X35078Y279597D02*
X33079D01*
X32079Y280597D01*
Y282596D01*
X33079Y283596D01*
X35078D01*
X36077Y282596D01*
Y281596D01*
X32079D01*
X38077Y279597D02*
Y285595D01*
X41076D01*
X42076Y284595D01*
Y282596D01*
X41076Y281596D01*
X38077D01*
X44075Y283596D02*
Y279597D01*
Y281596D01*
X45075Y282596D01*
X46074Y283596D01*
X47074D01*
X53072Y279597D02*
X51073D01*
X50073Y280597D01*
Y282596D01*
X51073Y283596D01*
X53072D01*
X54072Y282596D01*
Y281596D01*
X50073D01*
X58070Y277598D02*
X59070D01*
X60070Y278597D01*
Y283596D01*
X57071D01*
X56071Y282596D01*
Y280597D01*
X57071Y279597D01*
X60070D01*
X68067Y282596D02*
X72066D01*
X80063Y284595D02*
X81063Y285595D01*
X83062D01*
X84062Y284595D01*
Y280597D01*
X83062Y279597D01*
X81063D01*
X80063Y280597D01*
Y284595D01*
X86061Y279597D02*
Y280597D01*
X87061D01*
Y279597D01*
X86061D01*
X95058D02*
X91060D01*
X95058Y283596D01*
Y284595D01*
X94059Y285595D01*
X92059D01*
X91060Y284595D01*
X97058D02*
X98058Y285595D01*
X100057D01*
X101057Y284595D01*
Y283596D01*
X100057Y282596D01*
X99057D01*
X100057D01*
X101057Y281596D01*
Y280597D01*
X100057Y279597D01*
X98058D01*
X97058Y280597D01*
X20083Y273998D02*
X22082D01*
X21082D01*
Y268000D01*
X20083D01*
X22082D01*
X25081D02*
Y271999D01*
X28080D01*
X29080Y270999D01*
Y268000D01*
X31079D02*
Y271999D01*
X34078D01*
X35078Y270999D01*
Y268000D01*
X40076D02*
X38077D01*
X37077Y269000D01*
Y270999D01*
X38077Y271999D01*
X40076D01*
X41076Y270999D01*
Y269999D01*
X37077D01*
X43075Y271999D02*
Y268000D01*
Y269999D01*
X44075Y270999D01*
X45075Y271999D01*
X46074D01*
X55071Y273998D02*
Y268000D01*
X59070D01*
X62069Y271999D02*
X64068D01*
X65068Y270999D01*
Y268000D01*
X62069D01*
X61069Y269000D01*
X62069Y269999D01*
X65068D01*
X67067Y271999D02*
Y269000D01*
X68067Y268000D01*
X71066D01*
Y267000D01*
X70066Y266001D01*
X69067D01*
X71066Y268000D02*
Y271999D01*
X76065Y268000D02*
X74065D01*
X73066Y269000D01*
Y270999D01*
X74065Y271999D01*
X76065D01*
X77064Y270999D01*
Y269999D01*
X73066D01*
X79064Y271999D02*
Y268000D01*
Y269999D01*
X80063Y270999D01*
X81063Y271999D01*
X82063D01*
X91060Y268000D02*
X93059D01*
X92059D01*
Y273998D01*
X91060Y272998D01*
X102056Y270999D02*
X106055D01*
X114052Y272998D02*
X115052Y273998D01*
X117051D01*
X118051Y272998D01*
Y269000D01*
X117051Y268000D01*
X115052D01*
X114052Y269000D01*
Y272998D01*
X120050Y268000D02*
Y269000D01*
X121050D01*
Y268000D01*
X120050D01*
X125049Y272998D02*
X126048Y273998D01*
X128048D01*
X129047Y272998D01*
Y269000D01*
X128048Y268000D01*
X126048D01*
X125049Y269000D01*
Y272998D01*
X131047D02*
X132046Y273998D01*
X134046D01*
X135046Y272998D01*
Y271999D01*
X134046Y270999D01*
X133046D01*
X134046D01*
X135046Y269999D01*
Y269000D01*
X134046Y268000D01*
X132046D01*
X131047Y269000D01*
X141044Y273998D02*
X137045D01*
Y270999D01*
X139044Y271999D01*
X140044D01*
X141044Y270999D01*
Y269000D01*
X140044Y268000D01*
X138045D01*
X137045Y269000D01*
X24081Y261402D02*
X23082Y262401D01*
X21082D01*
X20083Y261402D01*
Y257403D01*
X21082Y256403D01*
X23082D01*
X24081Y257403D01*
X27080Y256403D02*
X29080D01*
X30079Y257403D01*
Y259402D01*
X29080Y260402D01*
X27080D01*
X26081Y259402D01*
Y257403D01*
X27080Y256403D01*
X32079Y260402D02*
Y256403D01*
Y258402D01*
X33079Y259402D01*
X34078Y260402D01*
X35078D01*
X41076Y256403D02*
X39077D01*
X38077Y257403D01*
Y259402D01*
X39077Y260402D01*
X41076D01*
X42076Y259402D01*
Y258402D01*
X38077D01*
X50073Y259402D02*
X54072D01*
X62069Y261402D02*
X63069Y262401D01*
X65068D01*
X66068Y261402D01*
Y257403D01*
X65068Y256403D01*
X63069D01*
X62069Y257403D01*
Y261402D01*
X68067Y256403D02*
Y257403D01*
X69067D01*
Y256403D01*
X68067D01*
X73066Y257403D02*
X74065Y256403D01*
X76065D01*
X77064Y257403D01*
Y261402D01*
X76065Y262401D01*
X74065D01*
X73066Y261402D01*
Y260402D01*
X74065Y259402D01*
X77064D01*
X79064Y261402D02*
X80063Y262401D01*
X82063D01*
X83062Y261402D01*
Y260402D01*
X82063Y259402D01*
X81063D01*
X82063D01*
X83062Y258402D01*
Y257403D01*
X82063Y256403D01*
X80063D01*
X79064Y257403D01*
X20083Y252803D02*
X22082D01*
X21082D01*
Y246805D01*
X20083D01*
X22082D01*
X25081D02*
Y250804D01*
X28080D01*
X29080Y249804D01*
Y246805D01*
X31079D02*
Y250804D01*
X34078D01*
X35078Y249804D01*
Y246805D01*
X40076D02*
X38077D01*
X37077Y247805D01*
Y249804D01*
X38077Y250804D01*
X40076D01*
X41076Y249804D01*
Y248805D01*
X37077D01*
X43075Y250804D02*
Y246805D01*
Y248805D01*
X44075Y249804D01*
X45075Y250804D01*
X46074D01*
X55071Y252803D02*
Y246805D01*
X59070D01*
X62069Y250804D02*
X64068D01*
X65068Y249804D01*
Y246805D01*
X62069D01*
X61069Y247805D01*
X62069Y248805D01*
X65068D01*
X67067Y250804D02*
Y247805D01*
X68067Y246805D01*
X71066D01*
Y245806D01*
X70066Y244806D01*
X69067D01*
X71066Y246805D02*
Y250804D01*
X76065Y246805D02*
X74065D01*
X73066Y247805D01*
Y249804D01*
X74065Y250804D01*
X76065D01*
X77064Y249804D01*
Y248805D01*
X73066D01*
X79064Y250804D02*
Y246805D01*
Y248805D01*
X80063Y249804D01*
X81063Y250804D01*
X82063D01*
X95058Y246805D02*
X91060D01*
X95058Y250804D01*
Y251804D01*
X94059Y252803D01*
X92059D01*
X91060Y251804D01*
X103056Y249804D02*
X107054D01*
X115052Y251804D02*
X116052Y252803D01*
X118051D01*
X119051Y251804D01*
Y247805D01*
X118051Y246805D01*
X116052D01*
X115052Y247805D01*
Y251804D01*
X121050Y246805D02*
Y247805D01*
X122050D01*
Y246805D01*
X121050D01*
X126048Y251804D02*
X127048Y252803D01*
X129047D01*
X130047Y251804D01*
Y247805D01*
X129047Y246805D01*
X127048D01*
X126048Y247805D01*
Y251804D01*
X132046D02*
X133046Y252803D01*
X135046D01*
X136045Y251804D01*
Y250804D01*
X135046Y249804D01*
X134046D01*
X135046D01*
X136045Y248805D01*
Y247805D01*
X135046Y246805D01*
X133046D01*
X132046Y247805D01*
X142043Y252803D02*
X138045D01*
Y249804D01*
X140044Y250804D01*
X141044D01*
X142043Y249804D01*
Y247805D01*
X141044Y246805D01*
X139044D01*
X138045Y247805D01*
X20083Y235208D02*
Y241206D01*
X23082D01*
X24081Y240207D01*
Y238207D01*
X23082Y237208D01*
X20083D01*
X26081Y239207D02*
Y235208D01*
Y237208D01*
X27080Y238207D01*
X28080Y239207D01*
X29080D01*
X35078Y235208D02*
X33079D01*
X32079Y236208D01*
Y238207D01*
X33079Y239207D01*
X35078D01*
X36077Y238207D01*
Y237208D01*
X32079D01*
X38077Y235208D02*
Y241206D01*
X41076D01*
X42076Y240207D01*
Y238207D01*
X41076Y237208D01*
X38077D01*
X44075Y239207D02*
Y235208D01*
Y237208D01*
X45075Y238207D01*
X46074Y239207D01*
X47074D01*
X53072Y235208D02*
X51073D01*
X50073Y236208D01*
Y238207D01*
X51073Y239207D01*
X53072D01*
X54072Y238207D01*
Y237208D01*
X50073D01*
X58070Y233209D02*
X59070D01*
X60070Y234209D01*
Y239207D01*
X57071D01*
X56071Y238207D01*
Y236208D01*
X57071Y235208D01*
X60070D01*
X68067Y238207D02*
X72066D01*
X80063Y240207D02*
X81063Y241206D01*
X83062D01*
X84062Y240207D01*
Y236208D01*
X83062Y235208D01*
X81063D01*
X80063Y236208D01*
Y240207D01*
X86061Y235208D02*
Y236208D01*
X87061D01*
Y235208D01*
X86061D01*
X95058D02*
X91060D01*
X95058Y239207D01*
Y240207D01*
X94059Y241206D01*
X92059D01*
X91060Y240207D01*
X97058D02*
X98058Y241206D01*
X100057D01*
X101057Y240207D01*
Y239207D01*
X100057Y238207D01*
X99057D01*
X100057D01*
X101057Y237208D01*
Y236208D01*
X100057Y235208D01*
X98058D01*
X97058Y236208D01*
X20083Y229609D02*
Y223611D01*
X23082D01*
X24081Y224611D01*
Y225611D01*
X23082Y226610D01*
X20083D01*
X23082D01*
X24081Y227610D01*
Y228610D01*
X23082Y229609D01*
X20083D01*
X27080Y223611D02*
X29080D01*
X30079Y224611D01*
Y226610D01*
X29080Y227610D01*
X27080D01*
X26081Y226610D01*
Y224611D01*
X27080Y223611D01*
X33079Y228610D02*
Y227610D01*
X32079D01*
X34078D01*
X33079D01*
Y224611D01*
X34078Y223611D01*
X38077Y228610D02*
Y227610D01*
X37077D01*
X39077D01*
X38077D01*
Y224611D01*
X39077Y223611D01*
X43075D02*
X45075D01*
X46074Y224611D01*
Y226610D01*
X45075Y227610D01*
X43075D01*
X42076Y226610D01*
Y224611D01*
X43075Y223611D01*
X48074D02*
Y227610D01*
X49073D01*
X50073Y226610D01*
Y223611D01*
Y226610D01*
X51073Y227610D01*
X52072Y226610D01*
Y223611D01*
X60070Y229609D02*
Y223611D01*
X64068D01*
X67067Y227610D02*
X69067D01*
X70066Y226610D01*
Y223611D01*
X67067D01*
X66068Y224611D01*
X67067Y225611D01*
X70066D01*
X72066Y227610D02*
Y224611D01*
X73066Y223611D01*
X76065D01*
Y222612D01*
X75065Y221612D01*
X74065D01*
X76065Y223611D02*
Y227610D01*
X81063Y223611D02*
X79064D01*
X78064Y224611D01*
Y226610D01*
X79064Y227610D01*
X81063D01*
X82063Y226610D01*
Y225611D01*
X78064D01*
X84062Y227610D02*
Y223611D01*
Y225611D01*
X85062Y226610D01*
X86061Y227610D01*
X87061D01*
X102056Y226610D02*
X106055D01*
X114052Y228610D02*
X115052Y229609D01*
X117051D01*
X118051Y228610D01*
Y224611D01*
X117051Y223611D01*
X115052D01*
X114052Y224611D01*
Y228610D01*
X120050Y223611D02*
Y224611D01*
X121050D01*
Y223611D01*
X120050D01*
X125049Y228610D02*
X126048Y229609D01*
X128048D01*
X129047Y228610D01*
Y224611D01*
X128048Y223611D01*
X126048D01*
X125049Y224611D01*
Y228610D01*
X131047D02*
X132046Y229609D01*
X134046D01*
X135046Y228610D01*
Y227610D01*
X134046Y226610D01*
X133046D01*
X134046D01*
X135046Y225611D01*
Y224611D01*
X134046Y223611D01*
X132046D01*
X131047Y224611D01*
X141044Y229609D02*
X137045D01*
Y226610D01*
X139044Y227610D01*
X140044D01*
X141044Y226610D01*
Y224611D01*
X140044Y223611D01*
X138045D01*
X137045Y224611D01*
X20083Y202417D02*
X22082D01*
X21082D01*
Y208415D01*
X20083Y207415D01*
X32079Y202417D02*
X34078D01*
X35078Y203416D01*
Y205416D01*
X34078Y206415D01*
X32079D01*
X31079Y205416D01*
Y203416D01*
X32079Y202417D01*
X37077Y206415D02*
X41076D01*
X37077Y202417D01*
X41076D01*
X53072Y207415D02*
X52072Y208415D01*
X50073D01*
X49073Y207415D01*
Y203416D01*
X50073Y202417D01*
X52072D01*
X53072Y203416D01*
X56071Y202417D02*
X58070D01*
X59070Y203416D01*
Y205416D01*
X58070Y206415D01*
X56071D01*
X55071Y205416D01*
Y203416D01*
X56071Y202417D01*
X61069Y200417D02*
Y206415D01*
X64068D01*
X65068Y205416D01*
Y203416D01*
X64068Y202417D01*
X61069D01*
X67067Y200417D02*
Y206415D01*
X70066D01*
X71066Y205416D01*
Y203416D01*
X70066Y202417D01*
X67067D01*
X76065D02*
X74065D01*
X73066Y203416D01*
Y205416D01*
X74065Y206415D01*
X76065D01*
X77064Y205416D01*
Y204416D01*
X73066D01*
X79064Y206415D02*
Y202417D01*
Y204416D01*
X80063Y205416D01*
X81063Y206415D01*
X82063D01*
X92059D02*
X94059D01*
X95058Y205416D01*
Y202417D01*
X92059D01*
X91060Y203416D01*
X92059Y204416D01*
X95058D01*
X97058Y202417D02*
X99057D01*
X98058D01*
Y208415D01*
X97058D01*
X102056Y202417D02*
X104056D01*
X103056D01*
Y208415D01*
X102056D01*
X113053Y202417D02*
X115052D01*
X114052D01*
Y208415D01*
X113053D01*
X119051Y206415D02*
X121050D01*
X122050Y205416D01*
Y202417D01*
X119051D01*
X118051Y203416D01*
X119051Y204416D01*
X122050D01*
X124049Y206415D02*
Y203416D01*
X125049Y202417D01*
X128048D01*
Y201417D01*
X127048Y200417D01*
X126048D01*
X128048Y202417D02*
Y206415D01*
X133046Y202417D02*
X131047D01*
X130047Y203416D01*
Y205416D01*
X131047Y206415D01*
X133046D01*
X134046Y205416D01*
Y204416D01*
X130047D01*
X136045Y206415D02*
Y202417D01*
Y204416D01*
X137045Y205416D01*
X138045Y206415D01*
X139044D01*
X142043Y202417D02*
X145042D01*
X146042Y203416D01*
X145042Y204416D01*
X143043D01*
X142043Y205416D01*
X143043Y206415D01*
X146042D01*
D83*
X-105812Y-58447D02*
X-88623D01*
X-105812Y-42518D02*
X-88623D01*
X-105812Y-58447D02*
Y-42518D01*
X-88623Y-58447D02*
Y-42518D01*
X-15501Y11319D02*
X-10026Y16794D01*
X-15501Y11319D02*
X-5672Y1490D01*
X7082Y-11264D02*
X13335Y-5011D01*
X-5672Y1490D02*
X7082Y-11264D01*
X13335Y-5011D02*
X19089Y743D01*
X7678Y12154D02*
X19089Y743D01*
X-3520Y23300D02*
X-3494Y23326D01*
X7678Y12154D01*
X-10026Y16794D02*
X-3494Y23326D01*
X-10026Y16794D02*
X-9986Y16754D01*
X5601Y10077D02*
X7678Y12154D01*
X-9986Y16754D02*
X-8192Y14960D01*
X11238Y-2914D02*
X13335Y-5011D01*
X-5672Y1490D02*
X-3874Y3289D01*
D84*
X-3789Y19363D02*
X14863Y711D01*
X6789Y-7363D02*
X14863Y711D01*
X-11863Y11289D02*
X6789Y-7363D01*
X-11863Y11289D02*
X-3789Y19363D01*
X-67632Y-14655D02*
X-57002D01*
Y-23710D02*
Y-14655D01*
X-67632Y-23710D02*
X-57002D01*
X-67632D02*
Y-14655D01*
X-55817Y1569D02*
X-45187D01*
Y-7486D02*
Y1569D01*
X-55817Y-7486D02*
X-45187D01*
X-55817D02*
Y1569D01*
M02*
