G04 Layer_Color=32768*
%FSLAX25Y25*%
%MOIN*%
G70*
G01*
G75*
%ADD47C,0.00394*%
%ADD84C,0.00197*%
D47*
X-23587Y-26430D02*
X-19847D01*
X-21717Y-28300D02*
Y-24560D01*
X-35776Y-25548D02*
Y-21217D01*
X-26131Y-25548D02*
Y-21217D01*
X-35776D02*
X-26131D01*
X-35776Y-25548D02*
X-26131D01*
X-32036Y-23383D02*
X-29871D01*
X-30953Y-24465D02*
Y-22300D01*
X-35776Y-31081D02*
Y-26751D01*
X-26131Y-31081D02*
Y-26751D01*
X-35776D02*
X-26131D01*
X-35776Y-31081D02*
X-26131D01*
X-32036Y-28916D02*
X-29871D01*
X-30953Y-29999D02*
Y-27833D01*
X-35776Y-36615D02*
Y-32284D01*
X-26131Y-36615D02*
Y-32284D01*
X-35776D02*
X-26131D01*
X-35776Y-36615D02*
X-26131D01*
X-32036Y-34449D02*
X-29871D01*
X-30953Y-35532D02*
Y-33367D01*
X-35776Y-42148D02*
Y-37817D01*
X-26131Y-42148D02*
Y-37817D01*
X-35776D02*
X-26131D01*
X-35776Y-42148D02*
X-26131D01*
X-32036Y-39983D02*
X-29871D01*
X-30953Y-41065D02*
Y-38900D01*
X-42483Y-39360D02*
X-38152D01*
X-42483Y-49005D02*
X-38152D01*
Y-39360D01*
X-42483Y-49005D02*
Y-39360D01*
X-40317Y-45265D02*
Y-43100D01*
X-41400Y-44183D02*
X-39235D01*
X-33230Y-49383D02*
X-29490D01*
X-31360Y-51253D02*
Y-47513D01*
X-36417Y-60510D02*
Y-56770D01*
X-38287Y-58640D02*
X-34547D01*
X-20481Y-51765D02*
Y-49600D01*
X-21564Y-50683D02*
X-19398D01*
X-25304Y-48517D02*
X-15658D01*
X-25304Y-52848D02*
X-15658D01*
X-25304D02*
Y-48517D01*
X-15658Y-52848D02*
Y-48517D01*
X-18300Y-77683D02*
X-16135D01*
X-17217Y-78765D02*
Y-76600D01*
X-15052Y-82506D02*
Y-72860D01*
X-19383Y-82506D02*
Y-72860D01*
X-15052D01*
X-19383Y-82506D02*
X-15052D01*
X-29386Y-76983D02*
X-25449D01*
X-27417Y-78951D02*
Y-75014D01*
X-37817Y-72953D02*
Y-69213D01*
X-39687Y-71083D02*
X-35947D01*
X-54483Y-81006D02*
X-50152D01*
X-54483Y-71360D02*
X-50152D01*
X-54483Y-81006D02*
Y-71360D01*
X-50152Y-81006D02*
Y-71360D01*
X-52317Y-77265D02*
Y-75100D01*
X-53400Y-76183D02*
X-51235D01*
X-64595Y-76748D02*
Y-72417D01*
X-74240Y-76748D02*
Y-72417D01*
Y-76748D02*
X-64595D01*
X-74240Y-72417D02*
X-64595D01*
X-70500Y-74583D02*
X-68335D01*
X-69417Y-75665D02*
Y-73500D01*
X-81417Y-57453D02*
Y-53713D01*
X-83287Y-55583D02*
X-79547D01*
X-92500Y-71583D02*
X-90335D01*
X-91417Y-72665D02*
Y-70500D01*
X-89252Y-76406D02*
Y-66760D01*
X-93583Y-76406D02*
Y-66760D01*
X-89252D01*
X-93583Y-76406D02*
X-89252D01*
X-55086Y30517D02*
X-51149D01*
X-53117Y28549D02*
Y32486D01*
X-52117Y-19951D02*
Y-16014D01*
X-54086Y-17983D02*
X-50149D01*
X-66287Y-10583D02*
X-62547D01*
X-64417Y-12453D02*
Y-8713D01*
X-73317Y-15553D02*
Y-11813D01*
X-75187Y-13683D02*
X-71447D01*
X-55270Y-68958D02*
Y-65218D01*
X-57140Y-67088D02*
X-53400D01*
X-71386Y-63583D02*
X-67449D01*
X-69417Y-65551D02*
Y-61614D01*
X-81417Y-50453D02*
Y-46713D01*
X-83287Y-48583D02*
X-79547D01*
X-57286Y-36183D02*
X-53349D01*
X-55317Y-38151D02*
Y-34214D01*
X-81417Y-80453D02*
Y-76713D01*
X-83287Y-78583D02*
X-79547D01*
X-81417Y-73453D02*
Y-69713D01*
X-83287Y-71583D02*
X-79547D01*
D84*
X-24670Y-31930D02*
Y-20930D01*
X-18765Y-31930D02*
Y-20930D01*
X-24670Y-31930D02*
X-18765D01*
X-24670Y-20930D02*
X-18765D01*
X-36675Y-52335D02*
Y-46430D01*
X-26045Y-52335D02*
Y-46430D01*
X-36675D02*
X-26045D01*
X-36675Y-52335D02*
X-26045D01*
X-39370Y-53325D02*
X-33465D01*
X-39370Y-63955D02*
X-33465D01*
Y-53325D01*
X-39370Y-63955D02*
Y-53325D01*
X-34110Y-80723D02*
Y-73242D01*
X-20724Y-80723D02*
Y-73242D01*
X-34110D02*
X-20724D01*
X-34110Y-80723D02*
X-20724D01*
X-40770Y-76398D02*
X-34865D01*
X-40770Y-65768D02*
X-34865D01*
X-40770Y-76398D02*
Y-65768D01*
X-34865Y-76398D02*
Y-65768D01*
X-86732Y-52630D02*
X-76102D01*
X-86732Y-58535D02*
X-76102D01*
X-86732D02*
Y-52630D01*
X-76102Y-58535D02*
Y-52630D01*
X-46424Y26777D02*
Y34258D01*
X-59810Y26777D02*
Y34258D01*
Y26777D02*
X-46424D01*
X-59810Y34258D02*
X-46424D01*
X-55857Y-11290D02*
X-48377D01*
X-55857Y-24676D02*
X-48377D01*
Y-11290D01*
X-55857Y-24676D02*
Y-11290D01*
X-69732Y-13535D02*
Y-7630D01*
X-59102Y-13535D02*
Y-7630D01*
X-69732D02*
X-59102D01*
X-69732Y-13535D02*
X-59102D01*
X-76270Y-8368D02*
X-70365D01*
X-76270Y-18998D02*
X-70365D01*
Y-8368D01*
X-76270Y-18998D02*
Y-8368D01*
X-60770Y-64135D02*
X-49770D01*
X-60770Y-70041D02*
X-49770D01*
X-60770D02*
Y-64135D01*
X-49770Y-70041D02*
Y-64135D01*
X-73945Y-71653D02*
Y-55512D01*
X-64890Y-71653D02*
Y-55512D01*
X-73945Y-71653D02*
X-64890D01*
X-73945Y-55512D02*
X-64890D01*
X-86732Y-45630D02*
X-76102D01*
X-86732Y-51535D02*
X-76102D01*
X-86732D02*
Y-45630D01*
X-76102Y-51535D02*
Y-45630D01*
X-65455Y-46321D02*
Y-26045D01*
X-45180Y-46321D02*
Y-26045D01*
X-65455Y-46321D02*
X-45180D01*
X-65455Y-26045D02*
X-45180D01*
X-86732Y-81535D02*
X-76102D01*
X-86732Y-75630D02*
X-76102D01*
Y-81535D02*
Y-75630D01*
X-86732Y-81535D02*
Y-75630D01*
Y-74535D02*
X-76102D01*
X-86732Y-68630D02*
X-76102D01*
Y-74535D02*
Y-68630D01*
X-86732Y-74535D02*
Y-68630D01*
M02*
