G04 Layer_Color=65535*
%FSLAX25Y25*%
%MOIN*%
G70*
G01*
G75*
%ADD85C,0.00800*%
%ADD86R,0.02000X0.02000*%
D85*
X-60517Y-100183D02*
Y-95183D01*
X-55817Y-103183D02*
X-50817D01*
X-45817D02*
X-40817D01*
X-35817D02*
X-30817D01*
X-28317Y-100683D02*
Y-85683D01*
X-38317Y-100683D02*
Y-85683D01*
X-48317Y-100683D02*
Y-85683D01*
X-30817Y-83183D02*
X-28317Y-85683D01*
X-35817Y-83183D02*
X-30817D01*
X-38317Y-85683D02*
X-35817Y-83183D01*
X-40817D02*
X-38317Y-85683D01*
X-45817Y-83183D02*
X-40817D01*
X-48317Y-85683D02*
X-45817Y-83183D01*
X-50817D02*
X-48317Y-85683D01*
X-55817Y-83183D02*
X-50817D01*
X-58317Y-85683D02*
X-55817Y-83183D01*
X-58317Y-100683D02*
Y-85683D01*
X-30817Y-103183D02*
X-28317Y-100683D01*
X-38317D02*
X-35817Y-103183D01*
X-40817D02*
X-38317Y-100683D01*
X-48317D02*
X-45817Y-103183D01*
X-50817D02*
X-48317Y-100683D01*
X-58317D02*
X-55817Y-103183D01*
D86*
X-33317Y-98183D02*
D03*
Y-88183D02*
D03*
X-43317Y-98183D02*
D03*
Y-88183D02*
D03*
X-53317D02*
D03*
Y-98183D02*
D03*
M02*
